<ttFont>
<head>
    <!-- Most of this table will be recalculated by the compiler -->
    <tableVersion value="1.0"/>
    <fontRevision value="1.29999"/>
    <checkSumAdjustment value="0x43869430"/>
    <magicNumber value="0x5f0f3cf5"/>
    <flags value="00000000 00001001"/>
    <unitsPerEm value="1000"/>
    <created value="Mon Oct 19 13:12:10 2015"/>
    <modified value="Mon Aug  1 23:07:43 2016"/>
    <xMin value="-72"/>
    <yMin value="-411"/>
    <xMax value="805"/>
    <yMax value="1254"/>
    <macStyle value="00000000 00000010"/>
    <lowestRecPPEM value="9"/>
    <fontDirectionHint value="2"/>
    <indexToLocFormat value="0"/>
    <glyphDataFormat value="0"/>
  </head>
    <TTGlyph name=".notdef" xMin="-7" yMin="-200" xMax="548" yMax="800">
      <contour>
        <pt x="-7" y="800" on="1"/>
        <pt x="533" y="800" on="1"/>
        <pt x="548" y="-200" on="1"/>
        <pt x="8" y="-200" on="1"/>
      </contour>
      <contour>
        <pt x="269" y="360" on="1"/>
        <pt x="457" y="750" on="1"/>
        <pt x="70" y="750" on="1"/>
      </contour>
      <contour>
        <pt x="301" y="300" on="1"/>
        <pt x="492" y="-76" on="1"/>
        <pt x="481" y="676" on="1"/>
      </contour>
      <contour>
        <pt x="240" y="300" on="1"/>
        <pt x="49" y="676" on="1"/>
        <pt x="60" y="-76" on="1"/>
      </contour>
      <contour>
        <pt x="84" y="-150" on="1"/>
        <pt x="471" y="-150" on="1"/>
        <pt x="271" y="240" on="1"/>
      </contour>
    </TTGlyph>
    <TTGlyph name="A" xMin="3" yMin="-4" xMax="530" yMax="690">
      <contour>
        <pt x="439" y="-4" on="1"/>
        <pt x="435" y="50" on="0"/>
        <pt x="427" y="155" on="0"/>
        <pt x="423" y="209" on="1"/>
        <pt x="191" y="209" on="1"/>
        <pt x="167" y="156" on="0"/>
        <pt x="119" y="52" on="0"/>
        <pt x="96" y="0" on="1"/>
        <pt x="3" y="0" on="1"/>
        <pt x="82" y="173" on="0"/>
        <pt x="248" y="517" on="0"/>
        <pt x="335" y="690" on="1"/>
        <pt x="464" y="690" on="1"/>
        <pt x="483" y="518" on="0"/>
        <pt x="516" y="178" on="0"/>
        <pt x="530" y="4" on="1"/>
      </contour>
      <contour>
        <pt x="381" y="610" on="1"/>
        <pt x="341" y="527" on="0"/>
        <pt x="262" y="363" on="0"/>
        <pt x="223" y="279" on="1"/>
        <pt x="417" y="279" on="1"/>
        <pt x="411" y="363" on="0"/>
        <pt x="397" y="528" on="0"/>
        <pt x="389" y="610" on="1"/>
      </contour>
    </TTGlyph>
    <TTGlyph name="AE" xMin="-17" yMin="0" xMax="672" yMax="688">
      <contour>
        <pt x="383" y="611" on="1"/>
        <pt x="339" y="526" on="0"/>
        <pt x="254" y="355" on="0"/>
        <pt x="212" y="270" on="1"/>
        <pt x="326" y="270" on="1"/>
        <pt x="392" y="611" on="1"/>
      </contour>
      <contour>
        <pt x="313" y="202" on="1"/>
        <pt x="178" y="202" on="1"/>
        <pt x="152" y="151" on="0"/>
        <pt x="102" y="51" on="0"/>
        <pt x="76" y="0" on="1"/>
        <pt x="-17" y="0" on="1"/>
        <pt x="72" y="171" on="0"/>
        <pt x="252" y="515" on="0"/>
        <pt x="344" y="688" on="1"/>
        <pt x="672" y="688" on="1"/>
        <pt x="657" y="611" on="1"/>
        <pt x="474" y="611" on="1"/>
        <pt x="429" y="381" on="1"/>
        <pt x="581" y="381" on="1"/>
        <pt x="568" y="315" on="1"/>
        <pt x="416" y="315" on="1"/>
        <pt x="370" y="77" on="1"/>
        <pt x="557" y="77" on="1"/>
        <pt x="536" y="0" on="1"/>
        <pt x="274" y="0" on="1"/>
      </contour>
    </TTGlyph>
    <TTGlyph name="AEacute" xMin="-17" yMin="0" xMax="685" yMax="990">
      <component glyphName="acute.cap" x="197" y="144" flags="0x204"/>
      <component glyphName="AE" x="0" y="0" flags="0x4"/>
    </TTGlyph>
    <TTGlyph name="Aacute" xMin="3" yMin="-4" xMax="585" yMax="992">
      <component glyphName="A" x="0" y="0" flags="0x204"/>
      <component glyphName="acute.cap" x="97" y="146" flags="0x4"/>
    </TTGlyph>
    <TTGlyph name="Abreve" xMin="3" yMin="-4" xMax="654" yMax="970">
      <component glyphName="A" x="0" y="0" flags="0x204"/>
      <component glyphName="breve.cap" x="118" y="146" flags="0x4"/>
    </TTGlyph>
    <TTGlyph name="Acircumflex" xMin="3" yMin="-4" xMax="618" yMax="979">
      <component glyphName="A" x="0" y="0" flags="0x204"/>
      <component glyphName="circumflex.cap" x="110" y="146" flags="0x4"/>
    </TTGlyph>
    <TTGlyph name="Adieresis" xMin="3" yMin="-4" xMax="620" yMax="930">
      <component glyphName="A" x="0" y="0" flags="0x204"/>
      <component glyphName="dieresis.cap" x="102" y="146" flags="0x4"/>
    </TTGlyph>
    <TTGlyph name="Agrave" xMin="3" yMin="-4" xMax="552" yMax="998">
      <component glyphName="A" x="0" y="0" flags="0x204"/>
      <component glyphName="grave.cap" x="114" y="146" flags="0x4"/>
    </TTGlyph>
    <TTGlyph name="Amacron" xMin="3" yMin="-4" xMax="623" yMax="894">
      <component glyphName="A" x="0" y="0" flags="0x204"/>
      <component glyphName="macron.cap" x="117" y="146" flags="0x4"/>
    </TTGlyph>
    <TTGlyph name="Aogonek" xMin="3" yMin="-232" xMax="530" yMax="690">
      <contour>
        <pt x="381" y="610" on="1"/>
        <pt x="341" y="527" on="0"/>
        <pt x="262" y="363" on="0"/>
        <pt x="223" y="279" on="1"/>
        <pt x="417" y="279" on="1"/>
        <pt x="411" y="363" on="0"/>
        <pt x="397" y="528" on="0"/>
        <pt x="389" y="610" on="1"/>
      </contour>
      <contour>
        <pt x="530" y="4" on="1"/>
        <pt x="420" y="-32" on="0"/>
        <pt x="325" y="-102" on="0"/>
        <pt x="325" y="-131" on="1"/>
        <pt x="325" y="-147" on="0"/>
        <pt x="350" y="-168" on="0"/>
        <pt x="378" y="-168" on="1"/>
        <pt x="416" y="-168" on="0"/>
        <pt x="485" y="-143" on="1"/>
        <pt x="496" y="-186" on="1"/>
        <pt x="448" y="-211" on="0"/>
        <pt x="369" y="-232" on="0"/>
        <pt x="339" y="-232" on="1"/>
        <pt x="291" y="-232" on="0"/>
        <pt x="243" y="-189" on="0"/>
        <pt x="242" y="-157" on="1"/>
        <pt x="242" y="-117" on="0"/>
        <pt x="333" y="-27" on="0"/>
        <pt x="438" y="16" on="1"/>
        <pt x="434" y="64" on="0"/>
        <pt x="427" y="160" on="0"/>
        <pt x="423" y="209" on="1"/>
        <pt x="191" y="209" on="1"/>
        <pt x="167" y="156" on="0"/>
        <pt x="119" y="52" on="0"/>
        <pt x="96" y="0" on="1"/>
        <pt x="3" y="0" on="1"/>
        <pt x="82" y="173" on="0"/>
        <pt x="248" y="517" on="0"/>
        <pt x="335" y="690" on="1"/>
        <pt x="464" y="690" on="1"/>
        <pt x="483" y="518" on="0"/>
        <pt x="516" y="178" on="0"/>
      </contour>
    </TTGlyph>
    <TTGlyph name="Aring" xMin="3" yMin="-4" xMax="581" yMax="987">
      <component glyphName="A" x="0" y="0" flags="0x204"/>
      <component glyphName="ring.cap" x="50" y="146" flags="0x4"/>
    </TTGlyph>
    <TTGlyph name="Aringacute" xMin="3" yMin="-4" xMax="651" yMax="1254">
      <contour>
        <pt x="439" y="-4" on="1"/>
        <pt x="435" y="50" on="0"/>
        <pt x="427" y="155" on="0"/>
        <pt x="423" y="209" on="1"/>
        <pt x="191" y="209" on="1"/>
        <pt x="167" y="156" on="0"/>
        <pt x="119" y="52" on="0"/>
        <pt x="96" y="0" on="1"/>
        <pt x="3" y="0" on="1"/>
        <pt x="82" y="173" on="0"/>
        <pt x="248" y="517" on="0"/>
        <pt x="335" y="690" on="1"/>
        <pt x="464" y="690" on="1"/>
        <pt x="483" y="518" on="0"/>
        <pt x="516" y="178" on="0"/>
        <pt x="530" y="4" on="1"/>
      </contour>
      <contour>
        <pt x="381" y="610" on="1"/>
        <pt x="341" y="527" on="0"/>
        <pt x="262" y="363" on="0"/>
        <pt x="223" y="279" on="1"/>
        <pt x="417" y="279" on="1"/>
        <pt x="411" y="363" on="0"/>
        <pt x="397" y="528" on="0"/>
        <pt x="389" y="610" on="1"/>
      </contour>
      <contour>
        <pt x="348" y="1067" on="1"/>
        <pt x="375" y="1083" on="0"/>
        <pt x="439" y="1129" on="0"/>
        <pt x="504" y="1179" on="0"/>
        <pt x="565" y="1231" on="0"/>
        <pt x="589" y="1254" on="1"/>
        <pt x="651" y="1183" on="1"/>
        <pt x="623" y="1162" on="0"/>
        <pt x="550" y="1117" on="0"/>
        <pt x="473" y="1076" on="0"/>
        <pt x="397" y="1040" on="0"/>
        <pt x="366" y="1027" on="1"/>
        <pt x="348" y="1067" on="1"/>
      </contour>
      <contour>
        <pt x="443" y="987" on="1"/>
        <pt x="474" y="987" on="0"/>
        <pt x="525" y="970" on="0"/>
        <pt x="561" y="940" on="0"/>
        <pt x="581" y="900" on="0"/>
        <pt x="581" y="878" on="1"/>
        <pt x="581" y="853" on="0"/>
        <pt x="558" y="808" on="0"/>
        <pt x="517" y="774" on="0"/>
        <pt x="460" y="754" on="0"/>
        <pt x="426" y="754" on="1"/>
        <pt x="363" y="754" on="0"/>
        <pt x="288" y="817" on="0"/>
        <pt x="288" y="864" on="1"/>
        <pt x="288" y="889" on="0"/>
        <pt x="311" y="934" on="0"/>
        <pt x="352" y="967" on="0"/>
        <pt x="409" y="987" on="0"/>
      </contour>
    </TTGlyph>
    <TTGlyph name="Atilde" xMin="3" yMin="-4" xMax="666" yMax="958">
      <component glyphName="A" x="0" y="0" flags="0x204"/>
      <component glyphName="tilde.cap" x="115" y="146" flags="0x4"/>
    </TTGlyph>
    <TTGlyph name="B" xMin="62" yMin="-8" xMax="583" yMax="696">
      <contour>
        <pt x="549" y="209" on="1"/>
        <pt x="549" y="168" on="0"/>
        <pt x="510" y="91" on="0"/>
        <pt x="425" y="29" on="0"/>
        <pt x="290" y="-8" on="0"/>
        <pt x="193" y="-8" on="1"/>
        <pt x="163" y="-8" on="0"/>
        <pt x="98" y="-5" on="0"/>
        <pt x="62" y="0" on="1"/>
        <pt x="194" y="685" on="1"/>
        <pt x="233" y="691" on="0"/>
        <pt x="302" y="696" on="0"/>
        <pt x="333" y="696" on="1"/>
        <pt x="399" y="696" on="0"/>
        <pt x="493" y="673" on="0"/>
        <pt x="554" y="632" on="0"/>
        <pt x="583" y="577" on="0"/>
        <pt x="583" y="545" on="1"/>
        <pt x="583" y="482" on="0"/>
        <pt x="491" y="382" on="0"/>
        <pt x="409" y="356" on="1"/>
        <pt x="473" y="341" on="0"/>
        <pt x="549" y="263" on="0"/>
      </contour>
      <contour>
        <pt x="494" y="525" on="1"/>
        <pt x="494" y="568" on="0"/>
        <pt x="415" y="622" on="0"/>
        <pt x="334" y="622" on="1"/>
        <pt x="320" y="622" on="0"/>
        <pt x="290" y="620" on="0"/>
        <pt x="273" y="618" on="1"/>
        <pt x="225" y="371" on="1"/>
        <pt x="296" y="374" on="0"/>
        <pt x="398" y="402" on="0"/>
        <pt x="463" y="443" on="0"/>
        <pt x="494" y="496" on="0"/>
      </contour>
      <contour>
        <pt x="459" y="202" on="1"/>
        <pt x="459" y="253" on="0"/>
        <pt x="367" y="317" on="0"/>
        <pt x="264" y="317" on="1"/>
        <pt x="252" y="317" on="0"/>
        <pt x="228" y="316" on="0"/>
        <pt x="215" y="315" on="1"/>
        <pt x="168" y="75" on="1"/>
        <pt x="188" y="73" on="0"/>
        <pt x="226" y="70" on="0"/>
        <pt x="244" y="70" on="1"/>
        <pt x="299" y="70" on="0"/>
        <pt x="381" y="91" on="0"/>
        <pt x="433" y="127" on="0"/>
        <pt x="459" y="175" on="0"/>
      </contour>
    </TTGlyph>
    <TTGlyph name="C" xMin="79" yMin="-15" xMax="583" yMax="703">
      <contour>
        <pt x="426" y="703" on="1"/>
        <pt x="512" y="703" on="0"/>
        <pt x="583" y="593" on="0"/>
        <pt x="583" y="487" on="1"/>
        <pt x="583" y="477" on="0"/>
        <pt x="583" y="457" on="0"/>
        <pt x="582" y="446" on="1"/>
        <pt x="495" y="444" on="1"/>
        <pt x="495" y="466" on="1"/>
        <pt x="495" y="505" on="0"/>
        <pt x="488" y="563" on="0"/>
        <pt x="469" y="602" on="0"/>
        <pt x="434" y="621" on="0"/>
        <pt x="407" y="621" on="1"/>
        <pt x="356" y="621" on="0"/>
        <pt x="270" y="557" on="0"/>
        <pt x="207" y="455" on="0"/>
        <pt x="171" y="327" on="0"/>
        <pt x="171" y="263" on="1"/>
        <pt x="171" y="69" on="0"/>
        <pt x="338" y="69" on="1"/>
        <pt x="412" y="69" on="0"/>
        <pt x="519" y="108" on="1"/>
        <pt x="510" y="24" on="1"/>
        <pt x="400" y="-15" on="0"/>
        <pt x="316" y="-15" on="1"/>
        <pt x="201" y="-15" on="0"/>
        <pt x="79" y="119" on="0"/>
        <pt x="79" y="247" on="1"/>
        <pt x="79" y="335" on="0"/>
        <pt x="133" y="500" on="0"/>
        <pt x="227" y="627" on="0"/>
        <pt x="353" y="703" on="0"/>
      </contour>
    </TTGlyph>
    <TTGlyph name="Cacute" xMin="79" yMin="-15" xMax="592" yMax="1004">
      <component glyphName="C" x="0" y="0" flags="0x204"/>
      <component glyphName="acute.cap" x="104" y="158" flags="0x4"/>
    </TTGlyph>
    <TTGlyph name="Ccaron" xMin="79" yMin="-15" xMax="648" yMax="988">
      <component glyphName="C" x="0" y="0" flags="0x204"/>
      <component glyphName="caron.cap" x="113" y="158" flags="0x4"/>
    </TTGlyph>
    <TTGlyph name="Ccedilla" xMin="79" yMin="-203" xMax="583" yMax="703">
      <contour>
        <pt x="320" y="-203" on="1"/>
        <pt x="321" y="-194" on="0"/>
        <pt x="321" y="-177" on="0"/>
        <pt x="321" y="-169" on="1"/>
        <pt x="321" y="-109" on="0"/>
        <pt x="291" y="-58" on="0"/>
        <pt x="265" y="-58" on="1"/>
        <pt x="237" y="-58" on="0"/>
        <pt x="185" y="-118" on="0"/>
        <pt x="159" y="-173" on="1"/>
        <pt x="112" y="-157" on="1"/>
        <pt x="164" y="-33" on="0"/>
        <pt x="229" y="-2" on="1"/>
        <pt x="156" y="21" on="0"/>
        <pt x="79" y="147" on="0"/>
        <pt x="79" y="247" on="1"/>
        <pt x="79" y="335" on="0"/>
        <pt x="133" y="500" on="0"/>
        <pt x="227" y="627" on="0"/>
        <pt x="353" y="703" on="0"/>
        <pt x="426" y="703" on="1"/>
        <pt x="512" y="703" on="0"/>
        <pt x="583" y="593" on="0"/>
        <pt x="583" y="487" on="1"/>
        <pt x="583" y="477" on="0"/>
        <pt x="583" y="457" on="0"/>
        <pt x="582" y="446" on="1"/>
        <pt x="495" y="444" on="1"/>
        <pt x="495" y="466" on="1"/>
        <pt x="495" y="505" on="0"/>
        <pt x="488" y="563" on="0"/>
        <pt x="469" y="602" on="0"/>
        <pt x="434" y="621" on="0"/>
        <pt x="407" y="621" on="1"/>
        <pt x="356" y="621" on="0"/>
        <pt x="270" y="557" on="0"/>
        <pt x="207" y="455" on="0"/>
        <pt x="171" y="327" on="0"/>
        <pt x="171" y="263" on="1"/>
        <pt x="171" y="69" on="0"/>
        <pt x="338" y="69" on="1"/>
        <pt x="412" y="69" on="0"/>
        <pt x="519" y="108" on="1"/>
        <pt x="510" y="24" on="1"/>
        <pt x="415" y="-10" on="0"/>
        <pt x="342" y="-14" on="1"/>
        <pt x="368" y="-34" on="0"/>
        <pt x="400" y="-113" on="0"/>
        <pt x="400" y="-173" on="1"/>
        <pt x="400" y="-180" on="0"/>
        <pt x="400" y="-193" on="0"/>
        <pt x="399" y="-201" on="1"/>
      </contour>
    </TTGlyph>
    <TTGlyph name="Cdotaccent" xMin="79" yMin="-15" xMax="583" yMax="940">
      <component glyphName="dotaccent.cap" x="120" y="158" flags="0x204"/>
      <component glyphName="C" x="0" y="0" flags="0x4"/>
    </TTGlyph>
    <TTGlyph name="D" xMin="54" yMin="-7" xMax="587" yMax="697">
      <contour>
        <pt x="587" y="426" on="1"/>
        <pt x="587" y="340" on="0"/>
        <pt x="536" y="183" on="0"/>
        <pt x="429" y="64" on="0"/>
        <pt x="265" y="-7" on="0"/>
        <pt x="152" y="-7" on="1"/>
        <pt x="129" y="-7" on="0"/>
        <pt x="80" y="-3" on="0"/>
        <pt x="54" y="0" on="1"/>
        <pt x="187" y="686" on="1"/>
        <pt x="219" y="691" on="0"/>
        <pt x="278" y="697" on="0"/>
        <pt x="306" y="697" on="1"/>
        <pt x="444" y="697" on="0"/>
        <pt x="587" y="562" on="0"/>
      </contour>
      <contour>
        <pt x="495" y="417" on="1"/>
        <pt x="495" y="520" on="0"/>
        <pt x="401" y="619" on="0"/>
        <pt x="308" y="619" on="1"/>
        <pt x="297" y="619" on="0"/>
        <pt x="276" y="619" on="0"/>
        <pt x="265" y="617" on="1"/>
        <pt x="160" y="73" on="1"/>
        <pt x="169" y="72" on="0"/>
        <pt x="186" y="72" on="0"/>
        <pt x="194" y="72" on="1"/>
        <pt x="270" y="72" on="0"/>
        <pt x="383" y="128" on="0"/>
        <pt x="458" y="222" on="0"/>
        <pt x="495" y="348" on="0"/>
      </contour>
    </TTGlyph>
    <TTGlyph name="Dcaron" xMin="54" yMin="-7" xMax="649" yMax="982">
      <component glyphName="caron.cap" x="114" y="152" flags="0x204"/>
      <component glyphName="D" x="0" y="0" flags="0x4"/>
    </TTGlyph>
    <TTGlyph name="Dcroat" xMin="38" yMin="-7" xMax="587" yMax="697">
      <contour>
        <pt x="587" y="426" on="1"/>
        <pt x="587" y="340" on="0"/>
        <pt x="536" y="183" on="0"/>
        <pt x="429" y="64" on="0"/>
        <pt x="265" y="-7" on="0"/>
        <pt x="152" y="-7" on="1"/>
        <pt x="129" y="-7" on="0"/>
        <pt x="80" y="-3" on="0"/>
        <pt x="54" y="0" on="1"/>
        <pt x="115" y="316" on="1"/>
        <pt x="38" y="316" on="1"/>
        <pt x="51" y="382" on="1"/>
        <pt x="128" y="382" on="1"/>
        <pt x="187" y="686" on="1"/>
        <pt x="219" y="691" on="0"/>
        <pt x="278" y="697" on="0"/>
        <pt x="306" y="697" on="1"/>
        <pt x="444" y="697" on="0"/>
        <pt x="587" y="562" on="0"/>
      </contour>
      <contour>
        <pt x="207" y="316" on="1"/>
        <pt x="160" y="73" on="1"/>
        <pt x="169" y="72" on="0"/>
        <pt x="186" y="72" on="0"/>
        <pt x="194" y="72" on="1"/>
        <pt x="270" y="72" on="0"/>
        <pt x="383" y="128" on="0"/>
        <pt x="458" y="222" on="0"/>
        <pt x="495" y="348" on="0"/>
        <pt x="495" y="417" on="1"/>
        <pt x="495" y="520" on="0"/>
        <pt x="401" y="619" on="0"/>
        <pt x="308" y="619" on="1"/>
        <pt x="297" y="619" on="0"/>
        <pt x="276" y="619" on="0"/>
        <pt x="265" y="617" on="1"/>
        <pt x="220" y="382" on="1"/>
        <pt x="365" y="382" on="1"/>
        <pt x="348" y="316" on="1"/>
      </contour>
    </TTGlyph>
    <TTGlyph name="E" xMin="71" yMin="0" xMax="615" yMax="688">
      <contour>
        <pt x="479" y="0" on="1"/>
        <pt x="71" y="0" on="1"/>
        <pt x="204" y="688" on="1"/>
        <pt x="615" y="688" on="1"/>
        <pt x="600" y="610" on="1"/>
        <pt x="281" y="610" on="1"/>
        <pt x="237" y="382" on="1"/>
        <pt x="507" y="382" on="1"/>
        <pt x="494" y="313" on="1"/>
        <pt x="223" y="313" on="1"/>
        <pt x="178" y="79" on="1"/>
        <pt x="500" y="79" on="1"/>
      </contour>
    </TTGlyph>
    <TTGlyph name="Eacute" xMin="71" yMin="0" xMax="615" yMax="990">
      <component glyphName="acute.cap" x="108" y="144" flags="0x204"/>
      <component glyphName="E" x="0" y="0" flags="0x4"/>
    </TTGlyph>
    <TTGlyph name="Ebreve" xMin="71" yMin="0" xMax="666" yMax="968">
      <component glyphName="breve.cap" x="130" y="144" flags="0x204"/>
      <component glyphName="E" x="0" y="0" flags="0x4"/>
    </TTGlyph>
    <TTGlyph name="Ecaron" xMin="71" yMin="0" xMax="652" yMax="974">
      <component glyphName="caron.cap" x="117" y="144" flags="0x204"/>
      <component glyphName="E" x="0" y="0" flags="0x4"/>
    </TTGlyph>
    <TTGlyph name="Ecircumflex" xMin="71" yMin="0" xMax="629" yMax="977">
      <component glyphName="E" x="0" y="0" flags="0x204"/>
      <component glyphName="circumflex.cap" x="121" y="144" flags="0x4"/>
    </TTGlyph>
    <TTGlyph name="Edieresis" xMin="71" yMin="0" xMax="632" yMax="928">
      <component glyphName="dieresis.cap" x="114" y="144" flags="0x204"/>
      <component glyphName="E" x="0" y="0" flags="0x4"/>
    </TTGlyph>
    <TTGlyph name="Edotaccent" xMin="71" yMin="0" xMax="615" yMax="926">
      <component glyphName="dotaccent.cap" x="124" y="144" flags="0x204"/>
      <component glyphName="E" x="0" y="0" flags="0x4"/>
    </TTGlyph>
    <TTGlyph name="Egrave" xMin="71" yMin="0" xMax="615" yMax="996">
      <component glyphName="grave.cap" x="125" y="144" flags="0x204"/>
      <component glyphName="E" x="0" y="0" flags="0x4"/>
    </TTGlyph>
    <TTGlyph name="Emacron" xMin="71" yMin="0" xMax="634" yMax="892">
      <component glyphName="macron.cap" x="128" y="144" flags="0x204"/>
      <component glyphName="E" x="0" y="0" flags="0x4"/>
    </TTGlyph>
    <TTGlyph name="Eogonek" xMin="71" yMin="-233" xMax="615" yMax="688">
      <contour>
        <pt x="479" y="0" on="1"/>
        <pt x="369" y="-35" on="0"/>
        <pt x="274" y="-102" on="0"/>
        <pt x="274" y="-131" on="1"/>
        <pt x="274" y="-148" on="0"/>
        <pt x="299" y="-169" on="0"/>
        <pt x="327" y="-169" on="1"/>
        <pt x="365" y="-169" on="0"/>
        <pt x="434" y="-144" on="1"/>
        <pt x="445" y="-187" on="1"/>
        <pt x="397" y="-211" on="0"/>
        <pt x="319" y="-233" on="0"/>
        <pt x="288" y="-233" on="1"/>
        <pt x="240" y="-233" on="0"/>
        <pt x="192" y="-189" on="0"/>
        <pt x="192" y="-157" on="1"/>
        <pt x="192" y="-120" on="0"/>
        <pt x="269" y="-40" on="0"/>
        <pt x="357" y="0" on="1"/>
        <pt x="71" y="0" on="1"/>
        <pt x="204" y="688" on="1"/>
        <pt x="615" y="688" on="1"/>
        <pt x="600" y="610" on="1"/>
        <pt x="281" y="610" on="1"/>
        <pt x="237" y="382" on="1"/>
        <pt x="507" y="382" on="1"/>
        <pt x="494" y="313" on="1"/>
        <pt x="223" y="313" on="1"/>
        <pt x="178" y="79" on="1"/>
        <pt x="500" y="79" on="1"/>
        <pt x="479" y="0" on="1"/>
      </contour>
    </TTGlyph>
    <TTGlyph name="Eth" xMin="38" yMin="-7" xMax="587" yMax="697">
      <contour>
        <pt x="587" y="426" on="1"/>
        <pt x="587" y="340" on="0"/>
        <pt x="536" y="183" on="0"/>
        <pt x="429" y="64" on="0"/>
        <pt x="265" y="-7" on="0"/>
        <pt x="152" y="-7" on="1"/>
        <pt x="129" y="-7" on="0"/>
        <pt x="80" y="-3" on="0"/>
        <pt x="54" y="0" on="1"/>
        <pt x="115" y="316" on="1"/>
        <pt x="38" y="316" on="1"/>
        <pt x="51" y="382" on="1"/>
        <pt x="128" y="382" on="1"/>
        <pt x="187" y="686" on="1"/>
        <pt x="219" y="691" on="0"/>
        <pt x="278" y="697" on="0"/>
        <pt x="306" y="697" on="1"/>
        <pt x="444" y="697" on="0"/>
        <pt x="587" y="562" on="0"/>
      </contour>
      <contour>
        <pt x="207" y="316" on="1"/>
        <pt x="160" y="73" on="1"/>
        <pt x="169" y="72" on="0"/>
        <pt x="186" y="72" on="0"/>
        <pt x="194" y="72" on="1"/>
        <pt x="270" y="72" on="0"/>
        <pt x="383" y="128" on="0"/>
        <pt x="458" y="222" on="0"/>
        <pt x="495" y="348" on="0"/>
        <pt x="495" y="417" on="1"/>
        <pt x="495" y="520" on="0"/>
        <pt x="401" y="619" on="0"/>
        <pt x="308" y="619" on="1"/>
        <pt x="297" y="619" on="0"/>
        <pt x="276" y="619" on="0"/>
        <pt x="265" y="617" on="1"/>
        <pt x="220" y="382" on="1"/>
        <pt x="365" y="382" on="1"/>
        <pt x="348" y="316" on="1"/>
      </contour>
    </TTGlyph>
    <TTGlyph name="Euro" xMin="38" yMin="-14" xMax="619" yMax="703">
      <contour>
        <pt x="532" y="38" on="1"/>
        <pt x="473" y="11" on="0"/>
        <pt x="374" y="-14" on="0"/>
        <pt x="332" y="-14" on="1"/>
        <pt x="234" y="-14" on="0"/>
        <pt x="131" y="109" on="0"/>
        <pt x="124" y="211" on="1"/>
        <pt x="38" y="211" on="1"/>
        <pt x="52" y="280" on="1"/>
        <pt x="124" y="280" on="1"/>
        <pt x="129" y="335" on="0"/>
        <pt x="142" y="386" on="1"/>
        <pt x="71" y="386" on="1"/>
        <pt x="85" y="454" on="1"/>
        <pt x="164" y="454" on="1"/>
        <pt x="186" y="508" on="0"/>
        <pt x="249" y="599" on="0"/>
        <pt x="326" y="665" on="0"/>
        <pt x="416" y="703" on="0"/>
        <pt x="464" y="703" on="1"/>
        <pt x="542" y="703" on="0"/>
        <pt x="614" y="610" on="0"/>
        <pt x="619" y="515" on="1"/>
        <pt x="536" y="502" on="1"/>
        <pt x="532" y="562" on="0"/>
        <pt x="496" y="627" on="0"/>
        <pt x="444" y="627" on="1"/>
        <pt x="412" y="627" on="0"/>
        <pt x="354" y="599" on="0"/>
        <pt x="304" y="551" on="0"/>
        <pt x="262" y="485" on="0"/>
        <pt x="246" y="448" on="1"/>
        <pt x="495" y="448" on="1"/>
        <pt x="480" y="386" on="1"/>
        <pt x="226" y="386" on="1"/>
        <pt x="218" y="360" on="0"/>
        <pt x="211" y="308" on="0"/>
        <pt x="209" y="282" on="1"/>
        <pt x="459" y="282" on="1"/>
        <pt x="444" y="219" on="1"/>
        <pt x="210" y="219" on="1"/>
        <pt x="217" y="139" on="0"/>
        <pt x="291" y="63" on="0"/>
        <pt x="363" y="63" on="1"/>
        <pt x="427" y="63" on="0"/>
        <pt x="522" y="93" on="1"/>
        <pt x="532" y="38" on="1"/>
      </contour>
    </TTGlyph>
    <TTGlyph name="F" xMin="73" yMin="0" xMax="629" yMax="688">
      <contour>
        <pt x="223" y="297" on="1"/>
        <pt x="165" y="0" on="1"/>
        <pt x="73" y="0" on="1"/>
        <pt x="206" y="688" on="1"/>
        <pt x="629" y="688" on="1"/>
        <pt x="615" y="609" on="1"/>
        <pt x="283" y="609" on="1"/>
        <pt x="236" y="368" on="1"/>
        <pt x="517" y="368" on="1"/>
        <pt x="503" y="297" on="1"/>
      </contour>
    </TTGlyph>
    <TTGlyph name="G" xMin="78" yMin="-122" xMax="572" yMax="703">
      <contour>
        <pt x="372" y="-122" on="1"/>
        <pt x="400" y="4" on="1"/>
        <pt x="343" y="-12" on="0"/>
        <pt x="292" y="-12" on="1"/>
        <pt x="189" y="-12" on="0"/>
        <pt x="78" y="119" on="0"/>
        <pt x="78" y="243" on="1"/>
        <pt x="78" y="333" on="0"/>
        <pt x="132" y="499" on="0"/>
        <pt x="223" y="626" on="0"/>
        <pt x="346" y="703" on="0"/>
        <pt x="415" y="703" on="1"/>
        <pt x="499" y="703" on="0"/>
        <pt x="572" y="597" on="0"/>
        <pt x="572" y="488" on="1"/>
        <pt x="572" y="478" on="0"/>
        <pt x="572" y="457" on="0"/>
        <pt x="571" y="446" on="1"/>
        <pt x="485" y="445" on="1"/>
        <pt x="485" y="472" on="1"/>
        <pt x="485" y="545" on="0"/>
        <pt x="451" y="621" on="0"/>
        <pt x="399" y="621" on="1"/>
        <pt x="350" y="621" on="0"/>
        <pt x="266" y="557" on="0"/>
        <pt x="205" y="453" on="0"/>
        <pt x="170" y="324" on="0"/>
        <pt x="170" y="258" on="1"/>
        <pt x="170" y="67" on="0"/>
        <pt x="316" y="67" on="1"/>
        <pt x="362" y="67" on="0"/>
        <pt x="419" y="86" on="1"/>
        <pt x="459" y="267" on="1"/>
        <pt x="547" y="270" on="1"/>
        <pt x="455" y="-120" on="1"/>
      </contour>
    </TTGlyph>
    <TTGlyph name="Gbreve" xMin="78" yMin="-122" xMax="654" yMax="982">
      <component glyphName="breve.cap" x="118" y="158" flags="0x204"/>
      <component glyphName="G" x="0" y="0" flags="0x4"/>
    </TTGlyph>
    <TTGlyph name="Gcommaaccent" xMin="78" yMin="-411" xMax="572" yMax="703">
      <component glyphName="G" x="0" y="0" flags="0x204"/>
      <component glyphName="commaaccent.cap" x="-81" y="-106" flags="0x4"/>
    </TTGlyph>
    <TTGlyph name="Gdotaccent" xMin="78" yMin="-122" xMax="572" yMax="940">
      <component glyphName="dotaccent.cap" x="113" y="158" flags="0x204"/>
      <component glyphName="G" x="0" y="0" flags="0x4"/>
    </TTGlyph>
    <TTGlyph name="H" xMin="50" yMin="0" xMax="619" yMax="688">
      <contour>
        <pt x="453" y="312" on="1"/>
        <pt x="204" y="312" on="1"/>
        <pt x="143" y="0" on="1"/>
        <pt x="50" y="0" on="1"/>
        <pt x="183" y="688" on="1"/>
        <pt x="277" y="688" on="1"/>
        <pt x="218" y="385" on="1"/>
        <pt x="467" y="385" on="1"/>
        <pt x="526" y="688" on="1"/>
        <pt x="619" y="688" on="1"/>
        <pt x="486" y="0" on="1"/>
        <pt x="393" y="0" on="1"/>
      </contour>
    </TTGlyph>
    <TTGlyph name="Hbar" xMin="50" yMin="0" xMax="671" yMax="688">
      <contour>
        <pt x="489" y="495" on="1"/>
        <pt x="239" y="495" on="1"/>
        <pt x="215" y="369" on="1"/>
        <pt x="464" y="369" on="1"/>
      </contour>
      <contour>
        <pt x="450" y="297" on="1"/>
        <pt x="201" y="297" on="1"/>
        <pt x="143" y="0" on="1"/>
        <pt x="50" y="0" on="1"/>
        <pt x="145" y="492" on="1"/>
        <pt x="67" y="492" on="1"/>
        <pt x="80" y="558" on="1"/>
        <pt x="158" y="558" on="1"/>
        <pt x="183" y="688" on="1"/>
        <pt x="277" y="688" on="1"/>
        <pt x="251" y="555" on="1"/>
        <pt x="500" y="555" on="1"/>
        <pt x="526" y="688" on="1"/>
        <pt x="619" y="688" on="1"/>
        <pt x="594" y="558" on="1"/>
        <pt x="671" y="558" on="1"/>
        <pt x="659" y="492" on="1"/>
        <pt x="581" y="492" on="1"/>
        <pt x="486" y="0" on="1"/>
        <pt x="393" y="0" on="1"/>
      </contour>
    </TTGlyph>
    <TTGlyph name="I" xMin="47" yMin="0" xMax="595" yMax="688">
      <contour>
        <pt x="482" y="74" on="1"/>
        <pt x="464" y="0" on="1"/>
        <pt x="47" y="0" on="1"/>
        <pt x="61" y="74" on="1"/>
        <pt x="223" y="74" on="1"/>
        <pt x="328" y="615" on="1"/>
        <pt x="163" y="615" on="1"/>
        <pt x="177" y="688" on="1"/>
        <pt x="595" y="688" on="1"/>
        <pt x="581" y="615" on="1"/>
        <pt x="420" y="615" on="1"/>
        <pt x="315" y="74" on="1"/>
      </contour>
    </TTGlyph>
    <TTGlyph name="Iacute" xMin="47" yMin="0" xMax="595" yMax="990">
      <component glyphName="I" x="0" y="0" flags="0x204"/>
      <component glyphName="acute.cap" x="87" y="144" flags="0x4"/>
    </TTGlyph>
    <TTGlyph name="Ibreve" xMin="47" yMin="0" xMax="644" yMax="968">
      <component glyphName="I" x="0" y="0" flags="0x204"/>
      <component glyphName="breve.cap" x="108" y="144" flags="0x4"/>
    </TTGlyph>
    <TTGlyph name="Icircumflex" xMin="47" yMin="0" xMax="608" yMax="977">
      <component glyphName="I" x="0" y="0" flags="0x204"/>
      <component glyphName="circumflex.cap" x="100" y="144" flags="0x4"/>
    </TTGlyph>
    <TTGlyph name="Idieresis" xMin="47" yMin="0" xMax="610" yMax="928">
      <component glyphName="I" x="0" y="0" flags="0x204"/>
      <component glyphName="dieresis.cap" x="92" y="144" flags="0x4"/>
    </TTGlyph>
    <TTGlyph name="Idotaccent" xMin="47" yMin="0" xMax="595" yMax="926">
      <component glyphName="I" x="0" y="0" flags="0x204"/>
      <component glyphName="dotaccent.cap" x="102" y="144" flags="0x4"/>
    </TTGlyph>
    <TTGlyph name="Igrave" xMin="47" yMin="0" xMax="595" yMax="996">
      <component glyphName="I" x="0" y="0" flags="0x204"/>
      <component glyphName="grave.cap" x="103" y="144" flags="0x4"/>
    </TTGlyph>
    <TTGlyph name="Imacron" xMin="47" yMin="0" xMax="612" yMax="892">
      <component glyphName="I" x="0" y="0" flags="0x204"/>
      <component glyphName="macron.cap" x="106" y="144" flags="0x4"/>
    </TTGlyph>
    <TTGlyph name="Iogonek" xMin="47" yMin="-232" xMax="595" yMax="688">
      <contour>
        <pt x="352" y="-186" on="1"/>
        <pt x="303" y="-210" on="0"/>
        <pt x="225" y="-232" on="0"/>
        <pt x="195" y="-232" on="1"/>
        <pt x="147" y="-232" on="0"/>
        <pt x="98" y="-188" on="0"/>
        <pt x="98" y="-156" on="1"/>
        <pt x="98" y="-119" on="0"/>
        <pt x="153" y="-40" on="0"/>
        <pt x="216" y="0" on="1"/>
        <pt x="47" y="0" on="1"/>
        <pt x="61" y="74" on="1"/>
        <pt x="223" y="74" on="1"/>
        <pt x="328" y="615" on="1"/>
        <pt x="163" y="615" on="1"/>
        <pt x="177" y="688" on="1"/>
        <pt x="595" y="688" on="1"/>
        <pt x="581" y="615" on="1"/>
        <pt x="420" y="615" on="1"/>
        <pt x="315" y="74" on="1"/>
        <pt x="482" y="74" on="1"/>
        <pt x="464" y="0" on="1"/>
        <pt x="311" y="0" on="1"/>
        <pt x="242" y="-35" on="0"/>
        <pt x="181" y="-102" on="0"/>
        <pt x="181" y="-131" on="1"/>
        <pt x="181" y="-147" on="0"/>
        <pt x="206" y="-168" on="0"/>
        <pt x="234" y="-168" on="1"/>
        <pt x="272" y="-168" on="0"/>
        <pt x="341" y="-143" on="1"/>
        <pt x="352" y="-186" on="1"/>
      </contour>
    </TTGlyph>
    <TTGlyph name="J" xMin="51" yMin="-12" xMax="554" yMax="688">
      <contour>
        <pt x="400" y="56" on="1"/>
        <pt x="383" y="39" on="0"/>
        <pt x="331" y="14" on="0"/>
        <pt x="254" y="-3" on="0"/>
        <pt x="148" y="-12" on="0"/>
        <pt x="76" y="-12" on="1"/>
        <pt x="51" y="-12" on="1"/>
        <pt x="65" y="72" on="1"/>
        <pt x="129" y="72" on="1"/>
        <pt x="175" y="72" on="0"/>
        <pt x="242" y="75" on="0"/>
        <pt x="288" y="82" on="0"/>
        <pt x="317" y="95" on="0"/>
        <pt x="327" y="105" on="1"/>
        <pt x="335" y="112" on="0"/>
        <pt x="347" y="136" on="0"/>
        <pt x="360" y="180" on="0"/>
        <pt x="375" y="249" on="0"/>
        <pt x="386" y="303" on="1"/>
        <pt x="448" y="615" on="1"/>
        <pt x="221" y="615" on="1"/>
        <pt x="236" y="688" on="1"/>
        <pt x="554" y="688" on="1"/>
        <pt x="482" y="314" on="1"/>
        <pt x="468" y="242" on="0"/>
        <pt x="447" y="152" on="0"/>
        <pt x="429" y="96" on="0"/>
        <pt x="411" y="67" on="0"/>
      </contour>
    </TTGlyph>
    <TTGlyph name="K" xMin="61" yMin="-7" xMax="655" yMax="688">
      <contour>
        <pt x="244" y="346" on="1"/>
        <pt x="555" y="688" on="1"/>
        <pt x="655" y="688" on="1"/>
        <pt x="346" y="345" on="1"/>
        <pt x="541" y="6" on="1"/>
        <pt x="443" y="-7" on="1"/>
      </contour>
      <contour>
        <pt x="286" y="688" on="1"/>
        <pt x="153" y="0" on="1"/>
        <pt x="61" y="0" on="1"/>
        <pt x="195" y="688" on="1"/>
      </contour>
    </TTGlyph>
    <TTGlyph name="Kcommaaccent" xMin="61" yMin="-312" xMax="655" yMax="688">
      <component glyphName="K" x="0" y="0" flags="0x204"/>
      <component glyphName="commaaccent.cap" x="-24" y="-7" flags="0x4"/>
    </TTGlyph>
    <TTGlyph name="L" xMin="75" yMin="0" xMax="519" yMax="688">
      <contour>
        <pt x="75" y="0" on="1"/>
        <pt x="208" y="688" on="1"/>
        <pt x="301" y="688" on="1"/>
        <pt x="183" y="79" on="1"/>
        <pt x="519" y="79" on="1"/>
        <pt x="502" y="0" on="1"/>
      </contour>
    </TTGlyph>
    <TTGlyph name="Lacute" xMin="75" yMin="0" xMax="608" yMax="990">
      <component glyphName="acute.cap" x="120" y="144" flags="0x204"/>
      <component glyphName="L" x="0" y="0" flags="0x4"/>
    </TTGlyph>
    <TTGlyph name="Lcaron" xMin="75" yMin="0" xMax="635" yMax="777">
      <component glyphName="L" x="0" y="0" flags="0x204"/>
      <component glyphName="caron.alt" x="213" y="-114" flags="0x4"/>
    </TTGlyph>
    <TTGlyph name="Lcommaaccent" xMin="75" yMin="-305" xMax="519" yMax="688">
      <component glyphName="L" x="0" y="0" flags="0x204"/>
      <component glyphName="commaaccent.cap" x="-35" y="0" flags="0x4"/>
    </TTGlyph>
    <TTGlyph name="Ldot" xMin="75" yMin="0" xMax="561" yMax="688">
      <contour>
        <pt x="75" y="0" on="1"/>
        <pt x="208" y="688" on="1"/>
        <pt x="301" y="688" on="1"/>
        <pt x="183" y="79" on="1"/>
        <pt x="519" y="79" on="1"/>
        <pt x="502" y="0" on="1"/>
      </contour>
      <contour>
        <pt x="429" y="295" on="1"/>
        <pt x="458" y="416" on="1"/>
        <pt x="561" y="416" on="1"/>
        <pt x="532" y="295" on="1"/>
      </contour>
    </TTGlyph>
    <TTGlyph name="Lslash" xMin="67" yMin="0" xMax="534" yMax="688">
      <contour>
        <pt x="90" y="0" on="1"/>
        <pt x="153" y="326" on="1"/>
        <pt x="70" y="287" on="1"/>
        <pt x="67" y="351" on="1"/>
        <pt x="167" y="398" on="1"/>
        <pt x="223" y="688" on="1"/>
        <pt x="316" y="688" on="1"/>
        <pt x="269" y="445" on="1"/>
        <pt x="437" y="524" on="1"/>
        <pt x="440" y="461" on="1"/>
        <pt x="255" y="374" on="1"/>
        <pt x="198" y="79" on="1"/>
        <pt x="534" y="79" on="1"/>
        <pt x="517" y="0" on="1"/>
      </contour>
    </TTGlyph>
    <TTGlyph name="M" xMin="43" yMin="0" xMax="635" yMax="691">
      <contour>
        <pt x="312" y="236" on="1"/>
        <pt x="315" y="236" on="1"/>
        <pt x="526" y="688" on="1"/>
        <pt x="635" y="688" on="1"/>
        <pt x="502" y="0" on="1"/>
        <pt x="414" y="0" on="1"/>
        <pt x="522" y="536" on="1"/>
        <pt x="518" y="536" on="1"/>
        <pt x="320" y="121" on="1"/>
        <pt x="261" y="121" on="1"/>
        <pt x="230" y="536" on="1"/>
        <pt x="227" y="536" on="1"/>
        <pt x="128" y="0" on="1"/>
        <pt x="43" y="0" on="1"/>
        <pt x="175" y="686" on="1"/>
        <pt x="279" y="691" on="1"/>
      </contour>
    </TTGlyph>
    <TTGlyph name="N" xMin="51" yMin="0" xMax="621" yMax="690">
      <contour>
        <pt x="244" y="537" on="1"/>
        <pt x="238" y="537" on="1"/>
        <pt x="137" y="0" on="1"/>
        <pt x="51" y="0" on="1"/>
        <pt x="184" y="687" on="1"/>
        <pt x="280" y="690" on="1"/>
        <pt x="430" y="161" on="1"/>
        <pt x="435" y="161" on="1"/>
        <pt x="535" y="688" on="1"/>
        <pt x="621" y="688" on="1"/>
        <pt x="488" y="0" on="1"/>
        <pt x="401" y="0" on="1"/>
      </contour>
    </TTGlyph>
    <TTGlyph name="Nacute" xMin="51" yMin="0" xMax="621" yMax="991">
      <component glyphName="acute.cap" x="100" y="145" flags="0x204"/>
      <component glyphName="N" x="0" y="0" flags="0x4"/>
    </TTGlyph>
    <TTGlyph name="Ncaron" xMin="51" yMin="0" xMax="644" yMax="975">
      <component glyphName="caron.cap" x="109" y="145" flags="0x204"/>
      <component glyphName="N" x="0" y="0" flags="0x4"/>
    </TTGlyph>
    <TTGlyph name="Ncommaaccent" xMin="51" yMin="-305" xMax="621" yMax="690">
      <component glyphName="commaaccent.cap" x="-54" y="0" flags="0x204"/>
      <component glyphName="N" x="0" y="0" flags="0x4"/>
    </TTGlyph>
    <TTGlyph name="Ntilde" xMin="51" yMin="0" xMax="670" yMax="957">
      <component glyphName="tilde.cap" x="119" y="145" flags="0x204"/>
      <component glyphName="N" x="0" y="0" flags="0x4"/>
    </TTGlyph>
    <TTGlyph name="O" xMin="73" yMin="-14" xMax="596" yMax="702">
      <contour>
        <pt x="596" y="443" on="1"/>
        <pt x="596" y="356" on="0"/>
        <pt x="548" y="192" on="0"/>
        <pt x="462" y="64" on="0"/>
        <pt x="343" y="-14" on="0"/>
        <pt x="273" y="-14" on="1"/>
        <pt x="229" y="-14" on="0"/>
        <pt x="155" y="18" on="0"/>
        <pt x="102" y="82" on="0"/>
        <pt x="73" y="179" on="0"/>
        <pt x="73" y="245" on="1"/>
        <pt x="73" y="332" on="0"/>
        <pt x="121" y="496" on="0"/>
        <pt x="207" y="624" on="0"/>
        <pt x="325" y="702" on="0"/>
        <pt x="395" y="702" on="1"/>
        <pt x="440" y="702" on="0"/>
        <pt x="514" y="670" on="0"/>
        <pt x="567" y="606" on="0"/>
        <pt x="596" y="509" on="0"/>
      </contour>
      <contour>
        <pt x="168" y="249" on="1"/>
        <pt x="168" y="155" on="0"/>
        <pt x="232" y="66" on="0"/>
        <pt x="286" y="66" on="1"/>
        <pt x="333" y="66" on="0"/>
        <pt x="412" y="131" on="0"/>
        <pt x="469" y="236" on="0"/>
        <pt x="501" y="369" on="0"/>
        <pt x="501" y="438" on="1"/>
        <pt x="501" y="532" on="0"/>
        <pt x="437" y="622" on="0"/>
        <pt x="383" y="622" on="1"/>
        <pt x="336" y="622" on="0"/>
        <pt x="257" y="557" on="0"/>
        <pt x="200" y="452" on="0"/>
        <pt x="168" y="318" on="0"/>
      </contour>
    </TTGlyph>
    <TTGlyph name="OE" xMin="65" yMin="0" xMax="668" yMax="688">
      <contour>
        <pt x="157" y="234" on="1"/>
        <pt x="157" y="151" on="0"/>
        <pt x="223" y="79" on="0"/>
        <pt x="285" y="77" on="1"/>
        <pt x="389" y="611" on="1"/>
        <pt x="343" y="610" on="0"/>
        <pt x="273" y="569" on="0"/>
        <pt x="221" y="503" on="0"/>
        <pt x="187" y="421" on="0"/>
        <pt x="166" y="338" on="0"/>
        <pt x="157" y="261" on="0"/>
      </contour>
      <contour>
        <pt x="532" y="0" on="1"/>
        <pt x="301" y="0" on="1"/>
        <pt x="248" y="0" on="0"/>
        <pt x="162" y="22" on="0"/>
        <pt x="99" y="75" on="0"/>
        <pt x="65" y="163" on="0"/>
        <pt x="65" y="230" on="1"/>
        <pt x="65" y="270" on="0"/>
        <pt x="79" y="369" on="0"/>
        <pt x="113" y="471" on="0"/>
        <pt x="169" y="567" on="0"/>
        <pt x="254" y="642" on="0"/>
        <pt x="368" y="688" on="0"/>
        <pt x="444" y="688" on="1"/>
        <pt x="668" y="688" on="1"/>
        <pt x="654" y="611" on="1"/>
        <pt x="471" y="611" on="1"/>
        <pt x="427" y="381" on="1"/>
        <pt x="577" y="381" on="1"/>
        <pt x="564" y="315" on="1"/>
        <pt x="414" y="315" on="1"/>
        <pt x="368" y="77" on="1"/>
        <pt x="553" y="77" on="1"/>
      </contour>
    </TTGlyph>
    <TTGlyph name="Oacute" xMin="73" yMin="-14" xMax="596" yMax="1005">
      <component glyphName="acute.cap" x="101" y="159" flags="0x204"/>
      <component glyphName="O" x="0" y="0" flags="0x4"/>
    </TTGlyph>
    <TTGlyph name="Obreve" xMin="73" yMin="-14" xMax="659" yMax="983">
      <component glyphName="breve.cap" x="123" y="159" flags="0x204"/>
      <component glyphName="O" x="0" y="0" flags="0x4"/>
    </TTGlyph>
    <TTGlyph name="Ocircumflex" xMin="73" yMin="-14" xMax="623" yMax="992">
      <component glyphName="O" x="0" y="0" flags="0x204"/>
      <component glyphName="circumflex.cap" x="115" y="159" flags="0x4"/>
    </TTGlyph>
    <TTGlyph name="Odieresis" xMin="73" yMin="-14" xMax="625" yMax="943">
      <component glyphName="dieresis.cap" x="107" y="159" flags="0x204"/>
      <component glyphName="O" x="0" y="0" flags="0x4"/>
    </TTGlyph>
    <TTGlyph name="Ograve" xMin="73" yMin="-14" xMax="596" yMax="1011">
      <component glyphName="grave.cap" x="118" y="159" flags="0x204"/>
      <component glyphName="O" x="0" y="0" flags="0x4"/>
    </TTGlyph>
    <TTGlyph name="Ohungarumlaut" xMin="73" yMin="-14" xMax="720" yMax="1026">
      <component glyphName="O" x="0" y="0" flags="0x204"/>
      <component glyphName="hungarumlaut.cap" x="98" y="159" flags="0x4"/>
    </TTGlyph>
    <TTGlyph name="Omacron" xMin="73" yMin="-14" xMax="627" yMax="907">
      <component glyphName="macron.cap" x="121" y="159" flags="0x204"/>
      <component glyphName="O" x="0" y="0" flags="0x4"/>
    </TTGlyph>
    <TTGlyph name="Omega" xMin="12" yMin="0" xMax="573" yMax="702">
      <contour>
        <pt x="213" y="0" on="1"/>
        <pt x="12" y="0" on="1"/>
        <pt x="26" y="74" on="1"/>
        <pt x="139" y="74" on="1"/>
        <pt x="122" y="138" on="0"/>
        <pt x="104" y="257" on="0"/>
        <pt x="104" y="319" on="1"/>
        <pt x="104" y="403" on="0"/>
        <pt x="139" y="544" on="0"/>
        <pt x="207" y="645" on="0"/>
        <pt x="309" y="702" on="0"/>
        <pt x="377" y="702" on="1"/>
        <pt x="471" y="702" on="0"/>
        <pt x="573" y="587" on="0"/>
        <pt x="573" y="485" on="1"/>
        <pt x="573" y="400" on="0"/>
        <pt x="500" y="195" on="0"/>
        <pt x="425" y="74" on="1"/>
        <pt x="532" y="74" on="1"/>
        <pt x="518" y="0" on="1"/>
        <pt x="317" y="0" on="1"/>
        <pt x="316" y="6" on="1"/>
        <pt x="402" y="159" on="0"/>
        <pt x="483" y="385" on="0"/>
        <pt x="483" y="469" on="1"/>
        <pt x="483" y="543" on="0"/>
        <pt x="420" y="621" on="0"/>
        <pt x="362" y="621" on="1"/>
        <pt x="319" y="621" on="0"/>
        <pt x="253" y="573" on="0"/>
        <pt x="208" y="486" on="0"/>
        <pt x="185" y="365" on="0"/>
        <pt x="185" y="293" on="1"/>
        <pt x="185" y="249" on="0"/>
        <pt x="189" y="174" on="0"/>
        <pt x="197" y="105" on="0"/>
        <pt x="209" y="40" on="0"/>
        <pt x="216" y="6" on="1"/>
      </contour>
    </TTGlyph>
    <TTGlyph name="Oslash" xMin="34" yMin="-42" xMax="635" yMax="730">
      <contour>
        <pt x="379" y="624" on="1"/>
        <pt x="332" y="624" on="0"/>
        <pt x="256" y="561" on="0"/>
        <pt x="200" y="457" on="0"/>
        <pt x="170" y="325" on="0"/>
        <pt x="170" y="256" on="1"/>
        <pt x="170" y="210" on="0"/>
        <pt x="177" y="178" on="1"/>
        <pt x="469" y="573" on="1"/>
        <pt x="437" y="624" on="0"/>
      </contour>
      <contour>
        <pt x="290" y="64" on="1"/>
        <pt x="336" y="64" on="0"/>
        <pt x="413" y="127" on="0"/>
        <pt x="469" y="231" on="0"/>
        <pt x="499" y="364" on="0"/>
        <pt x="499" y="433" on="1"/>
        <pt x="499" y="456" on="0"/>
        <pt x="495" y="496" on="0"/>
        <pt x="492" y="513" on="1"/>
        <pt x="198" y="117" on="1"/>
        <pt x="230" y="64" on="0"/>
      </contour>
      <contour>
        <pt x="277" y="-15" on="1"/>
        <pt x="197" y="-15" on="0"/>
        <pt x="145" y="35" on="1"/>
        <pt x="88" y="-42" on="1"/>
        <pt x="34" y="-5" on="1"/>
        <pt x="106" y="92" on="1"/>
        <pt x="75" y="156" on="0"/>
        <pt x="75" y="253" on="1"/>
        <pt x="75" y="339" on="0"/>
        <pt x="122" y="501" on="0"/>
        <pt x="207" y="627" on="0"/>
        <pt x="323" y="703" on="0"/>
        <pt x="392" y="703" on="1"/>
        <pt x="471" y="703" on="0"/>
        <pt x="523" y="653" on="1"/>
        <pt x="581" y="730" on="1"/>
        <pt x="635" y="694" on="1"/>
        <pt x="562" y="598" on="1"/>
        <pt x="594" y="534" on="0"/>
        <pt x="594" y="435" on="1"/>
        <pt x="594" y="349" on="0"/>
        <pt x="547" y="187" on="0"/>
        <pt x="463" y="61" on="0"/>
        <pt x="347" y="-15" on="0"/>
      </contour>
    </TTGlyph>
    <TTGlyph name="Oslashacute" xMin="34" yMin="-42" xMax="635" yMax="1005">
      <component glyphName="Oslash" x="0" y="0" flags="0x204"/>
      <component glyphName="acute.cap" x="101" y="159" flags="0x4"/>
    </TTGlyph>
    <TTGlyph name="Otilde" xMin="73" yMin="-14" xMax="671" yMax="971">
      <component glyphName="tilde.cap" x="120" y="159" flags="0x204"/>
      <component glyphName="O" x="0" y="0" flags="0x4"/>
    </TTGlyph>
    <TTGlyph name="P" xMin="64" yMin="0" xMax="608" yMax="695">
      <contour>
        <pt x="64" y="0" on="1"/>
        <pt x="197" y="685" on="1"/>
        <pt x="233" y="690" on="0"/>
        <pt x="298" y="695" on="0"/>
        <pt x="327" y="695" on="1"/>
        <pt x="402" y="695" on="0"/>
        <pt x="508" y="666" on="0"/>
        <pt x="576" y="616" on="0"/>
        <pt x="608" y="547" on="0"/>
        <pt x="608" y="507" on="1"/>
        <pt x="608" y="448" on="0"/>
        <pt x="553" y="351" on="0"/>
        <pt x="448" y="277" on="0"/>
        <pt x="296" y="229" on="0"/>
        <pt x="199" y="220" on="1"/>
        <pt x="156" y="0" on="1"/>
      </contour>
      <contour>
        <pt x="518" y="492" on="1"/>
        <pt x="518" y="549" on="0"/>
        <pt x="431" y="617" on="0"/>
        <pt x="340" y="617" on="1"/>
        <pt x="325" y="617" on="0"/>
        <pt x="292" y="615" on="0"/>
        <pt x="275" y="613" on="1"/>
        <pt x="215" y="305" on="1"/>
        <pt x="226" y="305" on="1"/>
        <pt x="297" y="305" on="0"/>
        <pt x="406" y="332" on="0"/>
        <pt x="480" y="382" on="0"/>
        <pt x="518" y="450" on="0"/>
      </contour>
    </TTGlyph>
    <TTGlyph name="Q" xMin="88" yMin="-154" xMax="599" yMax="703">
      <contour>
        <pt x="150" y="-14" on="1"/>
        <pt x="173" y="52" on="1"/>
        <pt x="246" y="82" on="0"/>
        <pt x="368" y="172" on="0"/>
        <pt x="456" y="281" on="0"/>
        <pt x="504" y="403" on="0"/>
        <pt x="504" y="465" on="1"/>
        <pt x="504" y="543" on="0"/>
        <pt x="436" y="625" on="0"/>
        <pt x="373" y="625" on="1"/>
        <pt x="332" y="625" on="0"/>
        <pt x="262" y="584" on="0"/>
        <pt x="210" y="508" on="0"/>
        <pt x="180" y="400" on="0"/>
        <pt x="180" y="333" on="1"/>
        <pt x="180" y="250" on="0"/>
        <pt x="205" y="154" on="1"/>
        <pt x="125" y="125" on="1"/>
        <pt x="106" y="179" on="0"/>
        <pt x="88" y="282" on="0"/>
        <pt x="88" y="330" on="1"/>
        <pt x="88" y="409" on="0"/>
        <pt x="132" y="546" on="0"/>
        <pt x="212" y="646" on="0"/>
        <pt x="323" y="703" on="0"/>
        <pt x="389" y="703" on="1"/>
        <pt x="441" y="703" on="0"/>
        <pt x="520" y="669" on="0"/>
        <pt x="572" y="608" on="0"/>
        <pt x="599" y="522" on="0"/>
        <pt x="599" y="471" on="1"/>
        <pt x="599" y="401" on="0"/>
        <pt x="549" y="270" on="0"/>
        <pt x="460" y="154" on="0"/>
        <pt x="341" y="58" on="0"/>
        <pt x="272" y="24" on="1"/>
        <pt x="506" y="-78" on="1"/>
        <pt x="467" y="-154" on="1"/>
      </contour>
    </TTGlyph>
    <TTGlyph name="R" xMin="59" yMin="-7" xMax="584" yMax="696">
      <contour>
        <pt x="272" y="308" on="1"/>
        <pt x="272" y="311" on="1"/>
        <pt x="331" y="337" on="0"/>
        <pt x="414" y="386" on="0"/>
        <pt x="467" y="435" on="0"/>
        <pt x="492" y="486" on="0"/>
        <pt x="492" y="515" on="1"/>
        <pt x="492" y="563" on="0"/>
        <pt x="413" y="617" on="0"/>
        <pt x="333" y="617" on="1"/>
        <pt x="319" y="617" on="0"/>
        <pt x="286" y="615" on="0"/>
        <pt x="269" y="613" on="1"/>
        <pt x="151" y="0" on="1"/>
        <pt x="59" y="0" on="1"/>
        <pt x="192" y="686" on="1"/>
        <pt x="230" y="691" on="0"/>
        <pt x="296" y="696" on="0"/>
        <pt x="325" y="696" on="1"/>
        <pt x="395" y="696" on="0"/>
        <pt x="494" y="671" on="0"/>
        <pt x="556" y="627" on="0"/>
        <pt x="584" y="568" on="0"/>
        <pt x="584" y="534" on="1"/>
        <pt x="584" y="458" on="0"/>
        <pt x="476" y="343" on="0"/>
        <pt x="380" y="295" on="1"/>
        <pt x="550" y="7" on="1"/>
        <pt x="450" y="-7" on="1"/>
      </contour>
    </TTGlyph>
    <TTGlyph name="R_p" xMin="23" yMin="-195" xMax="632" yMax="693">
      <contour>
        <pt x="167" y="307" on="1"/>
        <pt x="167" y="309" on="1"/>
        <pt x="234" y="377" on="0"/>
        <pt x="295" y="490" on="0"/>
        <pt x="295" y="543" on="1"/>
        <pt x="295" y="622" on="0"/>
        <pt x="220" y="622" on="1"/>
        <pt x="96" y="0" on="1"/>
        <pt x="23" y="0" on="1"/>
        <pt x="157" y="688" on="1"/>
        <pt x="174" y="690" on="0"/>
        <pt x="204" y="693" on="0"/>
        <pt x="218" y="693" on="1"/>
        <pt x="299" y="693" on="0"/>
        <pt x="370" y="623" on="0"/>
        <pt x="370" y="560" on="1"/>
        <pt x="370" y="490" on="0"/>
        <pt x="301" y="367" on="0"/>
        <pt x="238" y="304" on="1"/>
        <pt x="292" y="6" on="1"/>
        <pt x="216" y="-6" on="1"/>
      </contour>
      <contour>
        <pt x="440" y="67" on="1"/>
        <pt x="462" y="67" on="0"/>
        <pt x="504" y="139" on="0"/>
        <pt x="537" y="245" on="0"/>
        <pt x="557" y="364" on="0"/>
        <pt x="557" y="412" on="1"/>
        <pt x="557" y="481" on="0"/>
        <pt x="527" y="481" on="1"/>
        <pt x="505" y="481" on="0"/>
        <pt x="475" y="454" on="1"/>
        <pt x="472" y="434" on="0"/>
        <pt x="457" y="356" on="0"/>
        <pt x="438" y="254" on="0"/>
        <pt x="415" y="136" on="0"/>
        <pt x="404" y="77" on="1"/>
        <pt x="424" y="67" on="0"/>
      </contour>
      <contour>
        <pt x="278" y="-195" on="1"/>
        <pt x="289" y="-139" on="0"/>
        <pt x="315" y="-3" on="0"/>
        <pt x="343" y="142" on="0"/>
        <pt x="370" y="286" on="0"/>
        <pt x="394" y="412" on="0"/>
        <pt x="412" y="513" on="0"/>
        <pt x="417" y="542" on="1"/>
        <pt x="488" y="547" on="1"/>
        <pt x="482" y="505" on="1"/>
        <pt x="504" y="528" on="0"/>
        <pt x="550" y="557" on="0"/>
        <pt x="572" y="557" on="1"/>
        <pt x="600" y="557" on="0"/>
        <pt x="632" y="499" on="0"/>
        <pt x="632" y="433" on="1"/>
        <pt x="632" y="358" on="0"/>
        <pt x="600" y="202" on="0"/>
        <pt x="545" y="74" on="0"/>
        <pt x="468" y="-8" on="0"/>
        <pt x="423" y="-8" on="1"/>
        <pt x="409" y="-8" on="0"/>
        <pt x="389" y="-3" on="1"/>
        <pt x="378" y="-60" on="0"/>
        <pt x="359" y="-156" on="0"/>
        <pt x="353" y="-188" on="1"/>
      </contour>
    </TTGlyph>
    <TTGlyph name="Racute" xMin="59" yMin="-7" xMax="584" yMax="997">
      <component glyphName="R" x="0" y="0" flags="0x204"/>
      <component glyphName="acute.cap" x="83" y="151" flags="0x4"/>
    </TTGlyph>
    <TTGlyph name="Rcaron" xMin="59" yMin="-7" xMax="627" yMax="981">
      <component glyphName="caron.cap" x="92" y="151" flags="0x204"/>
      <component glyphName="R" x="0" y="0" flags="0x4"/>
    </TTGlyph>
    <TTGlyph name="Rcommaaccent" xMin="59" yMin="-312" xMax="584" yMax="696">
      <component glyphName="R" x="0" y="0" flags="0x204"/>
      <component glyphName="commaaccent.cap" x="-43" y="-7" flags="0x4"/>
    </TTGlyph>
    <TTGlyph name="S" xMin="39" yMin="-9" xMax="576" yMax="701">
      <contour>
        <pt x="494" y="494" on="1"/>
        <pt x="483" y="563" on="0"/>
        <pt x="418" y="623" on="0"/>
        <pt x="363" y="623" on="1"/>
        <pt x="335" y="623" on="0"/>
        <pt x="289" y="605" on="0"/>
        <pt x="255" y="574" on="0"/>
        <pt x="236" y="533" on="0"/>
        <pt x="236" y="510" on="1"/>
        <pt x="236" y="478" on="0"/>
        <pt x="278" y="423" on="0"/>
        <pt x="341" y="371" on="0"/>
        <pt x="414" y="320" on="0"/>
        <pt x="477" y="263" on="0"/>
        <pt x="519" y="199" on="0"/>
        <pt x="519" y="161" on="1"/>
        <pt x="519" y="129" on="0"/>
        <pt x="488" y="68" on="0"/>
        <pt x="421" y="20" on="0"/>
        <pt x="317" y="-9" on="0"/>
        <pt x="244" y="-9" on="1"/>
        <pt x="200" y="-9" on="0"/>
        <pt x="99" y="2" on="0"/>
        <pt x="39" y="15" on="1"/>
        <pt x="57" y="106" on="1"/>
        <pt x="128" y="88" on="0"/>
        <pt x="236" y="72" on="0"/>
        <pt x="278" y="72" on="1"/>
        <pt x="358" y="72" on="0"/>
        <pt x="425" y="121" on="0"/>
        <pt x="425" y="154" on="1"/>
        <pt x="425" y="182" on="0"/>
        <pt x="383" y="232" on="0"/>
        <pt x="321" y="282" on="0"/>
        <pt x="247" y="333" on="0"/>
        <pt x="185" y="391" on="0"/>
        <pt x="143" y="458" on="0"/>
        <pt x="143" y="498" on="1"/>
        <pt x="143" y="537" on="0"/>
        <pt x="179" y="611" on="0"/>
        <pt x="243" y="667" on="0"/>
        <pt x="331" y="701" on="0"/>
        <pt x="384" y="701" on="1"/>
        <pt x="472" y="701" on="0"/>
        <pt x="562" y="603" on="0"/>
        <pt x="576" y="510" on="1"/>
      </contour>
    </TTGlyph>
    <TTGlyph name="Sacute" xMin="39" yMin="-9" xMax="590" yMax="1002">
      <component glyphName="S" x="0" y="0" flags="0x204"/>
      <component glyphName="acute.cap" x="102" y="156" flags="0x4"/>
    </TTGlyph>
    <TTGlyph name="Scaron" xMin="39" yMin="-9" xMax="645" yMax="986">
      <component glyphName="S" x="0" y="0" flags="0x204"/>
      <component glyphName="caron.cap" x="110" y="156" flags="0x4"/>
    </TTGlyph>
    <TTGlyph name="Scedilla" xMin="39" yMin="-204" xMax="576" yMax="701">
      <contour>
        <pt x="289" y="-204" on="1"/>
        <pt x="290" y="-195" on="0"/>
        <pt x="290" y="-178" on="0"/>
        <pt x="290" y="-170" on="1"/>
        <pt x="290" y="-110" on="0"/>
        <pt x="260" y="-59" on="0"/>
        <pt x="234" y="-59" on="1"/>
        <pt x="206" y="-59" on="0"/>
        <pt x="154" y="-119" on="0"/>
        <pt x="128" y="-174" on="1"/>
        <pt x="81" y="-158" on="1"/>
        <pt x="131" y="-39" on="0"/>
        <pt x="191" y="-7" on="1"/>
        <pt x="156" y="-5" on="0"/>
        <pt x="81" y="6" on="0"/>
        <pt x="39" y="15" on="1"/>
        <pt x="57" y="106" on="1"/>
        <pt x="128" y="88" on="0"/>
        <pt x="236" y="72" on="0"/>
        <pt x="278" y="72" on="1"/>
        <pt x="358" y="72" on="0"/>
        <pt x="425" y="121" on="0"/>
        <pt x="425" y="154" on="1"/>
        <pt x="425" y="182" on="0"/>
        <pt x="383" y="232" on="0"/>
        <pt x="321" y="282" on="0"/>
        <pt x="247" y="333" on="0"/>
        <pt x="185" y="391" on="0"/>
        <pt x="143" y="458" on="0"/>
        <pt x="143" y="498" on="1"/>
        <pt x="143" y="537" on="0"/>
        <pt x="179" y="611" on="0"/>
        <pt x="243" y="667" on="0"/>
        <pt x="331" y="701" on="0"/>
        <pt x="384" y="701" on="1"/>
        <pt x="472" y="701" on="0"/>
        <pt x="562" y="603" on="0"/>
        <pt x="576" y="510" on="1"/>
        <pt x="494" y="494" on="1"/>
        <pt x="483" y="563" on="0"/>
        <pt x="418" y="623" on="0"/>
        <pt x="363" y="623" on="1"/>
        <pt x="335" y="623" on="0"/>
        <pt x="289" y="605" on="0"/>
        <pt x="255" y="574" on="0"/>
        <pt x="236" y="533" on="0"/>
        <pt x="236" y="510" on="1"/>
        <pt x="236" y="478" on="0"/>
        <pt x="278" y="423" on="0"/>
        <pt x="341" y="371" on="0"/>
        <pt x="414" y="320" on="0"/>
        <pt x="477" y="263" on="0"/>
        <pt x="519" y="199" on="0"/>
        <pt x="519" y="161" on="1"/>
        <pt x="519" y="132" on="0"/>
        <pt x="494" y="76" on="0"/>
        <pt x="440" y="31" on="0"/>
        <pt x="356" y="-1" on="0"/>
        <pt x="298" y="-7" on="1"/>
        <pt x="330" y="-24" on="0"/>
        <pt x="369" y="-106" on="0"/>
        <pt x="369" y="-172" on="1"/>
        <pt x="369" y="-180" on="0"/>
        <pt x="369" y="-194" on="0"/>
        <pt x="368" y="-202" on="1"/>
        <pt x="289" y="-204" on="1"/>
      </contour>
    </TTGlyph>
    <TTGlyph name="Scommaaccent" xMin="39" yMin="-314" xMax="576" yMax="701">
      <component glyphName="S" x="0" y="0" flags="0x204"/>
      <component glyphName="commaaccent.cap" x="-75" y="-9" flags="0x4"/>
    </TTGlyph>
    <TTGlyph name="T" xMin="120" yMin="0" xMax="651" yMax="688">
      <contour>
        <pt x="306" y="0" on="1"/>
        <pt x="213" y="0" on="1"/>
        <pt x="331" y="609" on="1"/>
        <pt x="120" y="609" on="1"/>
        <pt x="135" y="688" on="1"/>
        <pt x="651" y="688" on="1"/>
        <pt x="636" y="609" on="1"/>
        <pt x="424" y="609" on="1"/>
      </contour>
    </TTGlyph>
    <TTGlyph name="Tcaron" xMin="120" yMin="0" xMax="651" yMax="974">
      <component glyphName="caron.cap" x="99" y="144" flags="0x204"/>
      <component glyphName="T" x="0" y="0" flags="0x4"/>
    </TTGlyph>
    <TTGlyph name="Tcommaaccent" xMin="120" yMin="-305" xMax="651" yMax="688">
      <component glyphName="T" x="0" y="0" flags="0x204"/>
      <component glyphName="commaaccent.cap" x="-64" y="0" flags="0x4"/>
    </TTGlyph>
    <TTGlyph name="Thorn" xMin="64" yMin="0" xMax="587" yMax="688">
      <contour>
        <pt x="64" y="0" on="1"/>
        <pt x="199" y="688" on="1"/>
        <pt x="291" y="688" on="1"/>
        <pt x="271" y="584" on="1"/>
        <pt x="279" y="584" on="0"/>
        <pt x="295" y="585" on="0"/>
        <pt x="303" y="585" on="1"/>
        <pt x="378" y="585" on="0"/>
        <pt x="485" y="556" on="0"/>
        <pt x="554" y="506" on="0"/>
        <pt x="587" y="437" on="0"/>
        <pt x="587" y="397" on="1"/>
        <pt x="587" y="338" on="0"/>
        <pt x="531" y="241" on="0"/>
        <pt x="426" y="167" on="0"/>
        <pt x="274" y="119" on="0"/>
        <pt x="178" y="110" on="1"/>
        <pt x="156" y="0" on="1"/>
      </contour>
      <contour>
        <pt x="496" y="382" on="1"/>
        <pt x="496" y="439" on="0"/>
        <pt x="410" y="507" on="0"/>
        <pt x="318" y="507" on="1"/>
        <pt x="304" y="507" on="0"/>
        <pt x="272" y="505" on="0"/>
        <pt x="255" y="503" on="1"/>
        <pt x="194" y="195" on="1"/>
        <pt x="205" y="195" on="1"/>
        <pt x="276" y="195" on="0"/>
        <pt x="385" y="222" on="0"/>
        <pt x="458" y="272" on="0"/>
        <pt x="496" y="340" on="0"/>
      </contour>
    </TTGlyph>
    <TTGlyph name="U" xMin="85" yMin="-16" xMax="621" yMax="688">
      <contour>
        <pt x="277" y="-16" on="1"/>
        <pt x="187" y="-16" on="0"/>
        <pt x="85" y="74" on="0"/>
        <pt x="85" y="168" on="1"/>
        <pt x="85" y="185" on="0"/>
        <pt x="89" y="224" on="0"/>
        <pt x="93" y="245" on="1"/>
        <pt x="180" y="688" on="1"/>
        <pt x="272" y="688" on="1"/>
        <pt x="186" y="246" on="1"/>
        <pt x="182" y="227" on="0"/>
        <pt x="179" y="193" on="0"/>
        <pt x="179" y="179" on="1"/>
        <pt x="179" y="119" on="0"/>
        <pt x="235" y="65" on="0"/>
        <pt x="288" y="65" on="1"/>
        <pt x="348" y="65" on="0"/>
        <pt x="423" y="141" on="0"/>
        <pt x="439" y="223" on="1"/>
        <pt x="529" y="688" on="1"/>
        <pt x="621" y="688" on="1"/>
        <pt x="531" y="224" on="1"/>
        <pt x="507" y="101" on="0"/>
        <pt x="376" y="-16" on="0"/>
      </contour>
    </TTGlyph>
    <TTGlyph name="Uacute" xMin="85" yMin="-16" xMax="621" yMax="990">
      <component glyphName="acute.cap" x="98" y="144" flags="0x204"/>
      <component glyphName="U" x="0" y="0" flags="0x4"/>
    </TTGlyph>
    <TTGlyph name="Ubreve" xMin="85" yMin="-16" xMax="655" yMax="968">
      <component glyphName="breve.cap" x="119" y="144" flags="0x204"/>
      <component glyphName="U" x="0" y="0" flags="0x4"/>
    </TTGlyph>
    <TTGlyph name="Ucircumflex" xMin="85" yMin="-16" xMax="621" yMax="977">
      <component glyphName="U" x="0" y="0" flags="0x204"/>
      <component glyphName="circumflex.cap" x="111" y="144" flags="0x4"/>
    </TTGlyph>
    <TTGlyph name="Udieresis" xMin="85" yMin="-16" xMax="621" yMax="928">
      <component glyphName="dieresis.cap" x="103" y="144" flags="0x204"/>
      <component glyphName="U" x="0" y="0" flags="0x4"/>
    </TTGlyph>
    <TTGlyph name="Ugrave" xMin="85" yMin="-16" xMax="621" yMax="996">
      <component glyphName="grave.cap" x="115" y="144" flags="0x204"/>
      <component glyphName="U" x="0" y="0" flags="0x4"/>
    </TTGlyph>
    <TTGlyph name="Uhungarumlaut" xMin="85" yMin="-16" xMax="716" yMax="1011">
      <component glyphName="U" x="0" y="0" flags="0x204"/>
      <component glyphName="hungarumlaut.cap" x="94" y="144" flags="0x4"/>
    </TTGlyph>
    <TTGlyph name="Umacron" xMin="85" yMin="-16" xMax="624" yMax="892">
      <component glyphName="macron.cap" x="118" y="144" flags="0x204"/>
      <component glyphName="U" x="0" y="0" flags="0x4"/>
    </TTGlyph>
    <TTGlyph name="Uogonek" xMin="85" yMin="-232" xMax="621" yMax="688">
      <contour>
        <pt x="382" y="-186" on="1"/>
        <pt x="334" y="-210" on="0"/>
        <pt x="256" y="-232" on="0"/>
        <pt x="225" y="-232" on="1"/>
        <pt x="177" y="-232" on="0"/>
        <pt x="129" y="-188" on="0"/>
        <pt x="129" y="-156" on="1"/>
        <pt x="129" y="-123" on="0"/>
        <pt x="192" y="-52" on="0"/>
        <pt x="260" y="-16" on="1"/>
        <pt x="178" y="-11" on="0"/>
        <pt x="85" y="79" on="0"/>
        <pt x="85" y="167" on="1"/>
        <pt x="85" y="185" on="0"/>
        <pt x="88" y="224" on="0"/>
        <pt x="93" y="245" on="1"/>
        <pt x="180" y="688" on="1"/>
        <pt x="272" y="688" on="1"/>
        <pt x="186" y="246" on="1"/>
        <pt x="182" y="227" on="0"/>
        <pt x="179" y="193" on="0"/>
        <pt x="179" y="179" on="1"/>
        <pt x="179" y="119" on="0"/>
        <pt x="235" y="65" on="0"/>
        <pt x="288" y="65" on="1"/>
        <pt x="348" y="65" on="0"/>
        <pt x="423" y="141" on="0"/>
        <pt x="439" y="223" on="1"/>
        <pt x="529" y="688" on="1"/>
        <pt x="621" y="688" on="1"/>
        <pt x="531" y="224" on="1"/>
        <pt x="514" y="140" on="0"/>
        <pt x="443" y="35" on="0"/>
        <pt x="389" y="8" on="1"/>
        <pt x="292" y="-39" on="0"/>
        <pt x="211" y="-102" on="0"/>
        <pt x="211" y="-131" on="1"/>
        <pt x="211" y="-147" on="0"/>
        <pt x="236" y="-168" on="0"/>
        <pt x="264" y="-168" on="1"/>
        <pt x="303" y="-168" on="0"/>
        <pt x="371" y="-143" on="1"/>
        <pt x="382" y="-186" on="1"/>
      </contour>
    </TTGlyph>
    <TTGlyph name="Uring" xMin="85" yMin="-16" xMax="621" yMax="985">
      <component glyphName="U" x="0" y="0" flags="0x204"/>
      <component glyphName="ring.cap" x="51" y="144" flags="0x4"/>
    </TTGlyph>
    <TTGlyph name="V" xMin="128" yMin="0" xMax="662" yMax="692">
      <contour>
        <pt x="194" y="0" on="1"/>
        <pt x="173" y="173" on="0"/>
        <pt x="139" y="512" on="0"/>
        <pt x="128" y="685" on="1"/>
        <pt x="219" y="692" on="1"/>
        <pt x="229" y="540" on="0"/>
        <pt x="256" y="236" on="0"/>
        <pt x="270" y="84" on="1"/>
        <pt x="279" y="84" on="1"/>
        <pt x="355" y="236" on="0"/>
        <pt x="500" y="536" on="0"/>
        <pt x="569" y="688" on="1"/>
        <pt x="662" y="688" on="1"/>
        <pt x="582" y="516" on="0"/>
        <pt x="414" y="173" on="0"/>
        <pt x="324" y="0" on="1"/>
      </contour>
    </TTGlyph>
    <TTGlyph name="W" xMin="80" yMin="0" xMax="652" yMax="688">
      <contour>
        <pt x="341" y="361" on="1"/>
        <pt x="176" y="0" on="1"/>
        <pt x="80" y="0" on="1"/>
        <pt x="82" y="49" on="0"/>
        <pt x="94" y="193" on="0"/>
        <pt x="114" y="372" on="0"/>
        <pt x="140" y="577" on="0"/>
        <pt x="156" y="688" on="1"/>
        <pt x="247" y="688" on="1"/>
        <pt x="242" y="655" on="0"/>
        <pt x="227" y="553" on="0"/>
        <pt x="210" y="438" on="0"/>
        <pt x="194" y="319" on="0"/>
        <pt x="179" y="215" on="0"/>
        <pt x="169" y="136" on="0"/>
        <pt x="168" y="120" on="1"/>
        <pt x="173" y="120" on="1"/>
        <pt x="338" y="484" on="1"/>
        <pt x="394" y="484" on="1"/>
        <pt x="418" y="120" on="1"/>
        <pt x="422" y="120" on="1"/>
        <pt x="427" y="136" on="0"/>
        <pt x="447" y="215" on="0"/>
        <pt x="474" y="319" on="0"/>
        <pt x="503" y="438" on="0"/>
        <pt x="531" y="553" on="0"/>
        <pt x="555" y="654" on="0"/>
        <pt x="563" y="688" on="1"/>
        <pt x="652" y="688" on="1"/>
        <pt x="625" y="577" on="0"/>
        <pt x="572" y="371" on="0"/>
        <pt x="522" y="193" on="0"/>
        <pt x="479" y="49" on="0"/>
        <pt x="463" y="0" on="1"/>
        <pt x="365" y="0" on="1"/>
      </contour>
    </TTGlyph>
    <TTGlyph name="Wacute" xMin="80" yMin="0" xMax="652" yMax="990">
      <component glyphName="acute.cap" x="101" y="144" flags="0x204"/>
      <component glyphName="W" x="0" y="0" flags="0x4"/>
    </TTGlyph>
    <TTGlyph name="Wcircumflex" xMin="80" yMin="0" xMax="652" yMax="977">
      <component glyphName="W" x="0" y="0" flags="0x204"/>
      <component glyphName="circumflex.cap" x="114" y="144" flags="0x4"/>
    </TTGlyph>
    <TTGlyph name="Wdieresis" xMin="80" yMin="0" xMax="652" yMax="928">
      <component glyphName="dieresis.cap" x="106" y="144" flags="0x204"/>
      <component glyphName="W" x="0" y="0" flags="0x4"/>
    </TTGlyph>
    <TTGlyph name="Wgrave" xMin="80" yMin="0" xMax="652" yMax="996">
      <component glyphName="grave.cap" x="118" y="144" flags="0x204"/>
      <component glyphName="W" x="0" y="0" flags="0x4"/>
    </TTGlyph>
    <TTGlyph name="X" xMin="5" yMin="-3" xMax="660" yMax="692">
      <contour>
        <pt x="316" y="282" on="1"/>
        <pt x="104" y="0" on="1"/>
        <pt x="5" y="0" on="1"/>
        <pt x="278" y="350" on="1"/>
        <pt x="137" y="685" on="1"/>
        <pt x="231" y="692" on="1"/>
        <pt x="347" y="406" on="1"/>
        <pt x="559" y="688" on="1"/>
        <pt x="660" y="688" on="1"/>
        <pt x="386" y="338" on="1"/>
        <pt x="526" y="3" on="1"/>
        <pt x="430" y="-3" on="1"/>
      </contour>
    </TTGlyph>
    <TTGlyph name="Y" xMin="123" yMin="0" xMax="667" yMax="690">
      <contour>
        <pt x="214" y="0" on="1"/>
        <pt x="260" y="233" on="1"/>
        <pt x="123" y="686" on="1"/>
        <pt x="218" y="690" on="1"/>
        <pt x="324" y="318" on="1"/>
        <pt x="568" y="688" on="1"/>
        <pt x="667" y="688" on="1"/>
        <pt x="350" y="224" on="1"/>
        <pt x="307" y="0" on="1"/>
      </contour>
    </TTGlyph>
    <TTGlyph name="Yacute" xMin="123" yMin="0" xMax="667" yMax="992">
      <component glyphName="Y" x="0" y="0" flags="0x204"/>
      <component glyphName="acute.cap" x="92" y="146" flags="0x4"/>
    </TTGlyph>
    <TTGlyph name="Ycircumflex" xMin="123" yMin="0" xMax="667" yMax="979">
      <component glyphName="Y" x="0" y="0" flags="0x204"/>
      <component glyphName="circumflex.cap" x="106" y="146" flags="0x4"/>
    </TTGlyph>
    <TTGlyph name="Ydieresis" xMin="123" yMin="0" xMax="667" yMax="930">
      <component glyphName="Y" x="0" y="0" flags="0x204"/>
      <component glyphName="dieresis.cap" x="98" y="146" flags="0x4"/>
    </TTGlyph>
    <TTGlyph name="Ygrave" xMin="123" yMin="0" xMax="667" yMax="998">
      <component glyphName="Y" x="0" y="0" flags="0x204"/>
      <component glyphName="grave.cap" x="109" y="146" flags="0x4"/>
    </TTGlyph>
    <TTGlyph name="Z" xMin="32" yMin="0" xMax="620" yMax="688">
      <contour>
        <pt x="32" y="0" on="1"/>
        <pt x="46" y="78" on="1"/>
        <pt x="503" y="609" on="1"/>
        <pt x="156" y="607" on="1"/>
        <pt x="171" y="688" on="1"/>
        <pt x="620" y="688" on="1"/>
        <pt x="607" y="610" on="1"/>
        <pt x="153" y="79" on="1"/>
        <pt x="507" y="81" on="1"/>
        <pt x="492" y="0" on="1"/>
      </contour>
    </TTGlyph>
    <TTGlyph name="Zacute" xMin="32" yMin="0" xMax="620" yMax="990">
      <component glyphName="Z" x="0" y="0" flags="0x204"/>
      <component glyphName="acute.cap" x="92" y="144" flags="0x4"/>
    </TTGlyph>
    <TTGlyph name="Zcaron" xMin="32" yMin="0" xMax="636" yMax="974">
      <component glyphName="caron.cap" x="101" y="144" flags="0x204"/>
      <component glyphName="Z" x="0" y="0" flags="0x4"/>
    </TTGlyph>
    <TTGlyph name="Zdotaccent" xMin="32" yMin="0" xMax="620" yMax="926">
      <component glyphName="dotaccent.cap" x="108" y="144" flags="0x204"/>
      <component glyphName="Z" x="0" y="0" flags="0x4"/>
    </TTGlyph>
    <TTGlyph name="a" xMin="61" yMin="-12" xMax="577" yMax="555">
      <contour>
        <pt x="577" y="42" on="1"/>
        <pt x="531" y="14" on="0"/>
        <pt x="464" y="-11" on="0"/>
        <pt x="441" y="-11" on="1"/>
        <pt x="409" y="-11" on="0"/>
        <pt x="381" y="33" on="0"/>
        <pt x="381" y="71" on="1"/>
        <pt x="381" y="79" on="0"/>
        <pt x="382" y="96" on="0"/>
        <pt x="383" y="105" on="1"/>
        <pt x="359" y="81" on="0"/>
        <pt x="306" y="38" on="0"/>
        <pt x="253" y="7" on="0"/>
        <pt x="201" y="-12" on="0"/>
        <pt x="178" y="-12" on="1"/>
        <pt x="127" y="-12" on="0"/>
        <pt x="61" y="72" on="0"/>
        <pt x="61" y="159" on="1"/>
        <pt x="61" y="235" on="0"/>
        <pt x="109" y="378" on="0"/>
        <pt x="197" y="488" on="0"/>
        <pt x="319" y="555" on="0"/>
        <pt x="393" y="555" on="1"/>
        <pt x="428" y="555" on="0"/>
        <pt x="507" y="544" on="0"/>
        <pt x="549" y="532" on="1"/>
        <pt x="473" y="142" on="1"/>
        <pt x="467" y="113" on="0"/>
        <pt x="467" y="96" on="1"/>
        <pt x="467" y="67" on="0"/>
        <pt x="492" y="67" on="1"/>
        <pt x="504" y="67" on="0"/>
        <pt x="541" y="77" on="0"/>
        <pt x="567" y="87" on="1"/>
      </contour>
      <contour>
        <pt x="222" y="72" on="1"/>
        <pt x="239" y="72" on="0"/>
        <pt x="281" y="87" on="0"/>
        <pt x="326" y="114" on="0"/>
        <pt x="371" y="149" on="0"/>
        <pt x="391" y="169" on="1"/>
        <pt x="395" y="190" on="0"/>
        <pt x="410" y="263" on="0"/>
        <pt x="427" y="346" on="0"/>
        <pt x="444" y="430" on="0"/>
        <pt x="450" y="462" on="1"/>
        <pt x="419" y="471" on="0"/>
        <pt x="366" y="480" on="0"/>
        <pt x="346" y="480" on="1"/>
        <pt x="305" y="480" on="0"/>
        <pt x="234" y="428" on="0"/>
        <pt x="182" y="344" on="0"/>
        <pt x="151" y="236" on="0"/>
        <pt x="151" y="179" on="1"/>
        <pt x="151" y="122" on="0"/>
        <pt x="192" y="72" on="0"/>
      </contour>
    </TTGlyph>
    <TTGlyph name="aacute" xMin="61" yMin="-12" xMax="577" yMax="857">
      <component glyphName="a" x="0" y="0" flags="0x204"/>
      <component glyphName="acute" x="88" y="11" flags="0x4"/>
    </TTGlyph>
    <TTGlyph name="abreve" xMin="61" yMin="-12" xMax="645" yMax="835">
      <component glyphName="a" x="0" y="0" flags="0x204"/>
      <component glyphName="breve" x="109" y="11" flags="0x4"/>
    </TTGlyph>
    <TTGlyph name="acircumflex" xMin="61" yMin="-12" xMax="609" yMax="844">
      <component glyphName="a" x="0" y="0" flags="0x204"/>
      <component glyphName="circumflex" x="101" y="11" flags="0x4"/>
    </TTGlyph>
    <TTGlyph name="acute" xMin="185" yMin="619" xMax="488" yMax="846">
      <contour>
        <pt x="185" y="659" on="1"/>
        <pt x="212" y="675" on="0"/>
        <pt x="276" y="721" on="0"/>
        <pt x="341" y="771" on="0"/>
        <pt x="402" y="823" on="0"/>
        <pt x="426" y="846" on="1"/>
        <pt x="488" y="775" on="1"/>
        <pt x="460" y="754" on="0"/>
        <pt x="387" y="709" on="0"/>
        <pt x="310" y="668" on="0"/>
        <pt x="234" y="632" on="0"/>
        <pt x="203" y="619" on="1"/>
        <pt x="185" y="659" on="1"/>
      </contour>
    </TTGlyph>
    <TTGlyph name="acute.cap" xMin="185" yMin="619" xMax="488" yMax="846">
      <contour>
        <pt x="185" y="659" on="1"/>
        <pt x="212" y="675" on="0"/>
        <pt x="276" y="721" on="0"/>
        <pt x="341" y="771" on="0"/>
        <pt x="402" y="823" on="0"/>
        <pt x="426" y="846" on="1"/>
        <pt x="488" y="775" on="1"/>
        <pt x="460" y="754" on="0"/>
        <pt x="387" y="709" on="0"/>
        <pt x="310" y="668" on="0"/>
        <pt x="234" y="632" on="0"/>
        <pt x="203" y="619" on="1"/>
        <pt x="185" y="659" on="1"/>
      </contour>
    </TTGlyph>
    <TTGlyph name="adieresis" xMin="61" yMin="-12" xMax="611" yMax="795">
      <component glyphName="a" x="0" y="0" flags="0x204"/>
      <component glyphName="dieresis" x="93" y="11" flags="0x4"/>
    </TTGlyph>
    <TTGlyph name="ae" xMin="43" yMin="-8" xMax="625" yMax="555">
      <contour>
        <pt x="578" y="64" on="1"/>
        <pt x="521" y="26" on="0"/>
        <pt x="430" y="-8" on="0"/>
        <pt x="395" y="-8" on="1"/>
        <pt x="349" y="-8" on="0"/>
        <pt x="294" y="46" on="0"/>
        <pt x="283" y="91" on="1"/>
        <pt x="248" y="49" on="0"/>
        <pt x="170" y="-7" on="0"/>
        <pt x="128" y="-7" on="1"/>
        <pt x="88" y="-7" on="0"/>
        <pt x="43" y="63" on="0"/>
        <pt x="43" y="136" on="1"/>
        <pt x="43" y="213" on="0"/>
        <pt x="83" y="362" on="0"/>
        <pt x="152" y="480" on="0"/>
        <pt x="246" y="552" on="0"/>
        <pt x="300" y="552" on="1"/>
        <pt x="361" y="552" on="0"/>
        <pt x="419" y="514" on="1"/>
        <pt x="469" y="555" on="0"/>
        <pt x="524" y="555" on="1"/>
        <pt x="573" y="555" on="0"/>
        <pt x="625" y="495" on="0"/>
        <pt x="625" y="445" on="1"/>
        <pt x="625" y="404" on="0"/>
        <pt x="593" y="326" on="0"/>
        <pt x="527" y="263" on="0"/>
        <pt x="428" y="217" on="0"/>
        <pt x="361" y="208" on="1"/>
        <pt x="360" y="199" on="0"/>
        <pt x="360" y="181" on="0"/>
        <pt x="360" y="172" on="1"/>
        <pt x="360" y="121" on="0"/>
        <pt x="393" y="68" on="0"/>
        <pt x="433" y="68" on="1"/>
        <pt x="479" y="68" on="0"/>
        <pt x="569" y="110" on="1"/>
      </contour>
      <contour>
        <pt x="501" y="481" on="1"/>
        <pt x="478" y="481" on="0"/>
        <pt x="436" y="443" on="0"/>
        <pt x="401" y="381" on="0"/>
        <pt x="375" y="301" on="0"/>
        <pt x="368" y="259" on="1"/>
        <pt x="412" y="267" on="0"/>
        <pt x="478" y="303" on="0"/>
        <pt x="521" y="351" on="0"/>
        <pt x="542" y="404" on="0"/>
        <pt x="542" y="429" on="1"/>
        <pt x="542" y="481" on="0"/>
      </contour>
      <contour>
        <pt x="172" y="73" on="1"/>
        <pt x="196" y="73" on="0"/>
        <pt x="249" y="122" on="0"/>
        <pt x="276" y="158" on="1"/>
        <pt x="276" y="239" on="0"/>
        <pt x="322" y="393" on="0"/>
        <pt x="361" y="450" on="1"/>
        <pt x="338" y="467" on="0"/>
        <pt x="298" y="480" on="0"/>
        <pt x="282" y="480" on="1"/>
        <pt x="250" y="480" on="0"/>
        <pt x="196" y="421" on="0"/>
        <pt x="156" y="329" on="0"/>
        <pt x="133" y="215" on="0"/>
        <pt x="133" y="160" on="1"/>
        <pt x="133" y="73" on="0"/>
      </contour>
    </TTGlyph>
    <TTGlyph name="aeacute" xMin="43" yMin="-8" xMax="625" yMax="850">
      <component glyphName="acute" x="93" y="4" flags="0x204"/>
      <component glyphName="ae" x="0" y="0" flags="0x4"/>
    </TTGlyph>
    <TTGlyph name="agrave" xMin="61" yMin="-12" xMax="577" yMax="863">
      <component glyphName="a" x="0" y="0" flags="0x204"/>
      <component glyphName="grave" x="105" y="11" flags="0x4"/>
    </TTGlyph>
    <TTGlyph name="amacron" xMin="61" yMin="-12" xMax="614" yMax="759">
      <component glyphName="a" x="0" y="0" flags="0x204"/>
      <component glyphName="macron" x="108" y="11" flags="0x4"/>
    </TTGlyph>
    <TTGlyph name="ampersand" xMin="28" yMin="-21" xMax="589" yMax="710">
      <contour>
        <pt x="515" y="-21" on="1"/>
        <pt x="445" y="51" on="0"/>
        <pt x="395" y="121" on="1"/>
        <pt x="265" y="-11" on="0"/>
        <pt x="156" y="-11" on="1"/>
        <pt x="93" y="-11" on="0"/>
        <pt x="28" y="61" on="0"/>
        <pt x="28" y="124" on="1"/>
        <pt x="28" y="207" on="0"/>
        <pt x="150" y="385" on="0"/>
        <pt x="257" y="476" on="1"/>
        <pt x="257" y="485" on="1"/>
        <pt x="257" y="530" on="0"/>
        <pt x="281" y="612" on="0"/>
        <pt x="318" y="673" on="0"/>
        <pt x="364" y="710" on="0"/>
        <pt x="386" y="710" on="1"/>
        <pt x="413" y="710" on="0"/>
        <pt x="447" y="680" on="0"/>
        <pt x="447" y="652" on="1"/>
        <pt x="447" y="610" on="0"/>
        <pt x="392" y="508" on="0"/>
        <pt x="341" y="457" on="1"/>
        <pt x="348" y="404" on="0"/>
        <pt x="385" y="302" on="0"/>
        <pt x="415" y="250" on="1"/>
        <pt x="440" y="285" on="0"/>
        <pt x="489" y="366" on="0"/>
        <pt x="514" y="415" on="1"/>
        <pt x="589" y="389" on="1"/>
        <pt x="523" y="272" on="0"/>
        <pt x="455" y="189" on="1"/>
        <pt x="509" y="114" on="0"/>
        <pt x="586" y="37" on="1"/>
      </contour>
      <contour>
        <pt x="182" y="70" on="1"/>
        <pt x="217" y="70" on="0"/>
        <pt x="306" y="122" on="0"/>
        <pt x="356" y="177" on="1"/>
        <pt x="323" y="231" on="0"/>
        <pt x="277" y="339" on="0"/>
        <pt x="266" y="393" on="1"/>
        <pt x="199" y="327" on="0"/>
        <pt x="115" y="200" on="0"/>
        <pt x="115" y="143" on="1"/>
        <pt x="115" y="108" on="0"/>
        <pt x="150" y="70" on="0"/>
      </contour>
    </TTGlyph>
    <TTGlyph name="aogonek" xMin="61" yMin="-231" xMax="577" yMax="555">
      <contour>
        <pt x="531" y="-186" on="1"/>
        <pt x="483" y="-210" on="0"/>
        <pt x="405" y="-231" on="0"/>
        <pt x="375" y="-231" on="1"/>
        <pt x="327" y="-231" on="0"/>
        <pt x="279" y="-188" on="0"/>
        <pt x="279" y="-157" on="1"/>
        <pt x="279" y="-119" on="0"/>
        <pt x="343" y="-38" on="0"/>
        <pt x="418" y="6" on="1"/>
        <pt x="381" y="17" on="0"/>
        <pt x="381" y="76" on="1"/>
        <pt x="381" y="83" on="0"/>
        <pt x="382" y="97" on="0"/>
        <pt x="383" y="105" on="1"/>
        <pt x="359" y="81" on="0"/>
        <pt x="306" y="38" on="0"/>
        <pt x="253" y="7" on="0"/>
        <pt x="201" y="-12" on="0"/>
        <pt x="178" y="-12" on="1"/>
        <pt x="127" y="-12" on="0"/>
        <pt x="61" y="72" on="0"/>
        <pt x="61" y="159" on="1"/>
        <pt x="61" y="235" on="0"/>
        <pt x="109" y="378" on="0"/>
        <pt x="197" y="488" on="0"/>
        <pt x="319" y="555" on="0"/>
        <pt x="393" y="555" on="1"/>
        <pt x="428" y="555" on="0"/>
        <pt x="507" y="544" on="0"/>
        <pt x="549" y="532" on="1"/>
        <pt x="473" y="142" on="1"/>
        <pt x="467" y="113" on="0"/>
        <pt x="467" y="96" on="1"/>
        <pt x="467" y="67" on="0"/>
        <pt x="492" y="67" on="1"/>
        <pt x="504" y="67" on="0"/>
        <pt x="541" y="77" on="0"/>
        <pt x="567" y="87" on="1"/>
        <pt x="577" y="42" on="1"/>
        <pt x="518" y="15" on="0"/>
        <pt x="435" y="-32" on="0"/>
        <pt x="384" y="-74" on="0"/>
        <pt x="361" y="-112" on="0"/>
        <pt x="361" y="-130" on="1"/>
        <pt x="361" y="-147" on="0"/>
        <pt x="386" y="-167" on="0"/>
        <pt x="414" y="-167" on="1"/>
        <pt x="433" y="-167" on="0"/>
        <pt x="487" y="-156" on="0"/>
        <pt x="522" y="-142" on="1"/>
      </contour>
      <contour>
        <pt x="222" y="72" on="1"/>
        <pt x="239" y="72" on="0"/>
        <pt x="281" y="87" on="0"/>
        <pt x="326" y="114" on="0"/>
        <pt x="371" y="149" on="0"/>
        <pt x="391" y="169" on="1"/>
        <pt x="395" y="190" on="0"/>
        <pt x="410" y="263" on="0"/>
        <pt x="427" y="346" on="0"/>
        <pt x="444" y="430" on="0"/>
        <pt x="450" y="462" on="1"/>
        <pt x="419" y="471" on="0"/>
        <pt x="366" y="480" on="0"/>
        <pt x="346" y="480" on="1"/>
        <pt x="305" y="480" on="0"/>
        <pt x="234" y="428" on="0"/>
        <pt x="182" y="344" on="0"/>
        <pt x="151" y="236" on="0"/>
        <pt x="151" y="179" on="1"/>
        <pt x="151" y="122" on="0"/>
        <pt x="192" y="72" on="0"/>
      </contour>
    </TTGlyph>
    <TTGlyph name="approxequal" xMin="44" yMin="110" xMax="597" yMax="543">
      <contour>
        <pt x="427" y="348" on="1"/>
        <pt x="394" y="348" on="0"/>
        <pt x="346" y="385" on="0"/>
        <pt x="307" y="429" on="0"/>
        <pt x="272" y="466" on="0"/>
        <pt x="251" y="466" on="1"/>
        <pt x="226" y="466" on="0"/>
        <pt x="172" y="399" on="0"/>
        <pt x="140" y="348" on="1"/>
        <pt x="90" y="375" on="1"/>
        <pt x="138" y="460" on="0"/>
        <pt x="220" y="543" on="0"/>
        <pt x="269" y="543" on="1"/>
        <pt x="302" y="543" on="0"/>
        <pt x="348" y="506" on="0"/>
        <pt x="386" y="461" on="0"/>
        <pt x="420" y="424" on="0"/>
        <pt x="440" y="424" on="1"/>
        <pt x="464" y="424" on="0"/>
        <pt x="516" y="488" on="0"/>
        <pt x="547" y="537" on="1"/>
        <pt x="597" y="510" on="1"/>
        <pt x="549" y="427" on="0"/>
        <pt x="474" y="348" on="0"/>
      </contour>
      <contour>
        <pt x="381" y="110" on="1"/>
        <pt x="348" y="110" on="0"/>
        <pt x="300" y="147" on="0"/>
        <pt x="261" y="192" on="0"/>
        <pt x="226" y="230" on="0"/>
        <pt x="205" y="230" on="1"/>
        <pt x="180" y="230" on="0"/>
        <pt x="126" y="163" on="0"/>
        <pt x="94" y="112" on="1"/>
        <pt x="44" y="139" on="1"/>
        <pt x="92" y="224" on="0"/>
        <pt x="175" y="306" on="0"/>
        <pt x="224" y="306" on="1"/>
        <pt x="256" y="306" on="0"/>
        <pt x="303" y="269" on="0"/>
        <pt x="341" y="224" on="0"/>
        <pt x="375" y="187" on="0"/>
        <pt x="395" y="187" on="1"/>
        <pt x="419" y="187" on="0"/>
        <pt x="471" y="251" on="0"/>
        <pt x="501" y="301" on="1"/>
        <pt x="551" y="273" on="1"/>
        <pt x="503" y="190" on="0"/>
        <pt x="428" y="110" on="0"/>
      </contour>
    </TTGlyph>
    <TTGlyph name="aring" xMin="61" yMin="-12" xMax="577" yMax="852">
      <component glyphName="a" x="0" y="0" flags="0x204"/>
      <component glyphName="ring" x="41" y="11" flags="0x4"/>
    </TTGlyph>
    <TTGlyph name="aringacute" xMin="61" yMin="-12" xMax="642" yMax="1122">
      <contour>
        <pt x="577" y="42" on="1"/>
        <pt x="531" y="14" on="0"/>
        <pt x="464" y="-11" on="0"/>
        <pt x="441" y="-11" on="1"/>
        <pt x="409" y="-11" on="0"/>
        <pt x="381" y="33" on="0"/>
        <pt x="381" y="71" on="1"/>
        <pt x="381" y="79" on="0"/>
        <pt x="382" y="96" on="0"/>
        <pt x="383" y="105" on="1"/>
        <pt x="359" y="81" on="0"/>
        <pt x="306" y="38" on="0"/>
        <pt x="253" y="7" on="0"/>
        <pt x="201" y="-12" on="0"/>
        <pt x="178" y="-12" on="1"/>
        <pt x="127" y="-12" on="0"/>
        <pt x="61" y="72" on="0"/>
        <pt x="61" y="159" on="1"/>
        <pt x="61" y="235" on="0"/>
        <pt x="109" y="378" on="0"/>
        <pt x="197" y="488" on="0"/>
        <pt x="319" y="555" on="0"/>
        <pt x="393" y="555" on="1"/>
        <pt x="428" y="555" on="0"/>
        <pt x="507" y="544" on="0"/>
        <pt x="549" y="532" on="1"/>
        <pt x="473" y="142" on="1"/>
        <pt x="467" y="113" on="0"/>
        <pt x="467" y="96" on="1"/>
        <pt x="467" y="67" on="0"/>
        <pt x="492" y="67" on="1"/>
        <pt x="504" y="67" on="0"/>
        <pt x="541" y="77" on="0"/>
        <pt x="567" y="87" on="1"/>
      </contour>
      <contour>
        <pt x="222" y="72" on="1"/>
        <pt x="239" y="72" on="0"/>
        <pt x="281" y="87" on="0"/>
        <pt x="326" y="114" on="0"/>
        <pt x="371" y="149" on="0"/>
        <pt x="391" y="169" on="1"/>
        <pt x="395" y="190" on="0"/>
        <pt x="410" y="263" on="0"/>
        <pt x="427" y="346" on="0"/>
        <pt x="444" y="430" on="0"/>
        <pt x="450" y="462" on="1"/>
        <pt x="419" y="471" on="0"/>
        <pt x="366" y="480" on="0"/>
        <pt x="346" y="480" on="1"/>
        <pt x="305" y="480" on="0"/>
        <pt x="234" y="428" on="0"/>
        <pt x="182" y="344" on="0"/>
        <pt x="151" y="236" on="0"/>
        <pt x="151" y="179" on="1"/>
        <pt x="151" y="122" on="0"/>
        <pt x="192" y="72" on="0"/>
      </contour>
      <contour>
        <pt x="339" y="935" on="1"/>
        <pt x="366" y="951" on="0"/>
        <pt x="430" y="997" on="0"/>
        <pt x="495" y="1047" on="0"/>
        <pt x="556" y="1099" on="0"/>
        <pt x="580" y="1122" on="1"/>
        <pt x="642" y="1051" on="1"/>
        <pt x="614" y="1030" on="0"/>
        <pt x="541" y="985" on="0"/>
        <pt x="464" y="944" on="0"/>
        <pt x="388" y="908" on="0"/>
        <pt x="357" y="895" on="1"/>
        <pt x="339" y="935" on="1"/>
      </contour>
      <contour>
        <pt x="434" y="852" on="1"/>
        <pt x="465" y="852" on="0"/>
        <pt x="516" y="835" on="0"/>
        <pt x="552" y="805" on="0"/>
        <pt x="572" y="765" on="0"/>
        <pt x="572" y="743" on="1"/>
        <pt x="572" y="718" on="0"/>
        <pt x="549" y="673" on="0"/>
        <pt x="508" y="639" on="0"/>
        <pt x="451" y="619" on="0"/>
        <pt x="417" y="619" on="1"/>
        <pt x="354" y="619" on="0"/>
        <pt x="279" y="682" on="0"/>
        <pt x="279" y="729" on="1"/>
        <pt x="279" y="754" on="0"/>
        <pt x="302" y="799" on="0"/>
        <pt x="343" y="832" on="0"/>
        <pt x="400" y="852" on="0"/>
      </contour>
    </TTGlyph>
    <TTGlyph name="asciicircum" xMin="60" yMin="173" xMax="562" yMax="551">
      <contour>
        <pt x="338" y="431" on="1"/>
        <pt x="117" y="173" on="1"/>
        <pt x="60" y="221" on="1"/>
        <pt x="343" y="548" on="1"/>
        <pt x="362" y="551" on="1"/>
        <pt x="562" y="221" on="1"/>
        <pt x="488" y="175" on="1"/>
      </contour>
    </TTGlyph>
    <TTGlyph name="asciitilde" xMin="49" yMin="219" xMax="606" yMax="459">
      <contour>
        <pt x="423" y="219" on="1"/>
        <pt x="388" y="219" on="0"/>
        <pt x="333" y="268" on="0"/>
        <pt x="285" y="327" on="0"/>
        <pt x="243" y="376" on="0"/>
        <pt x="221" y="376" on="1"/>
        <pt x="207" y="376" on="0"/>
        <pt x="179" y="354" on="0"/>
        <pt x="150" y="314" on="0"/>
        <pt x="120" y="259" on="0"/>
        <pt x="106" y="226" on="1"/>
        <pt x="49" y="251" on="1"/>
        <pt x="93" y="351" on="0"/>
        <pt x="185" y="459" on="0"/>
        <pt x="236" y="459" on="1"/>
        <pt x="270" y="459" on="0"/>
        <pt x="325" y="410" on="0"/>
        <pt x="371" y="350" on="0"/>
        <pt x="412" y="301" on="0"/>
        <pt x="433" y="301" on="1"/>
        <pt x="460" y="301" on="0"/>
        <pt x="520" y="386" on="0"/>
        <pt x="549" y="451" on="1"/>
        <pt x="606" y="426" on="1"/>
        <pt x="561" y="324" on="0"/>
        <pt x="474" y="219" on="0"/>
      </contour>
    </TTGlyph>
    <TTGlyph name="asterisk" xMin="134" yMin="289" xMax="596" yMax="768">
      <contour>
        <pt x="329" y="443" on="1"/>
        <pt x="180" y="355" on="1"/>
        <pt x="145" y="400" on="1"/>
        <pt x="266" y="522" on="1"/>
        <pt x="134" y="638" on="1"/>
        <pt x="167" y="686" on="1"/>
        <pt x="320" y="607" on="1"/>
        <pt x="391" y="768" on="1"/>
        <pt x="447" y="752" on="1"/>
        <pt x="421" y="580" on="1"/>
        <pt x="594" y="563" on="1"/>
        <pt x="596" y="507" on="1"/>
        <pt x="424" y="478" on="1"/>
        <pt x="462" y="310" on="1"/>
        <pt x="409" y="289" on="1"/>
      </contour>
    </TTGlyph>
    <TTGlyph name="asterisk.alt" xMin="110" yMin="284" xMax="597" yMax="772">
      <contour>
        <pt x="355" y="616" on="1"/>
        <pt x="375" y="772" on="1"/>
        <pt x="458" y="750" on="1"/>
        <pt x="398" y="605" on="1"/>
      </contour>
      <contour>
        <pt x="279" y="572" on="1"/>
        <pt x="153" y="668" on="1"/>
        <pt x="214" y="729" on="1"/>
        <pt x="310" y="606" on="1"/>
      </contour>
      <contour>
        <pt x="429" y="572" on="1"/>
        <pt x="575" y="632" on="1"/>
        <pt x="597" y="550" on="1"/>
        <pt x="443" y="527" on="1"/>
      </contour>
      <contour>
        <pt x="279" y="484" on="1"/>
        <pt x="133" y="424" on="1"/>
        <pt x="110" y="506" on="1"/>
        <pt x="265" y="529" on="1"/>
      </contour>
      <contour>
        <pt x="430" y="484" on="1"/>
        <pt x="555" y="389" on="1"/>
        <pt x="496" y="328" on="1"/>
        <pt x="399" y="450" on="1"/>
      </contour>
      <contour>
        <pt x="353" y="440" on="1"/>
        <pt x="335" y="284" on="1"/>
        <pt x="251" y="306" on="1"/>
        <pt x="310" y="450" on="1"/>
      </contour>
    </TTGlyph>
    <TTGlyph name="at" xMin="60" yMin="-173" xMax="623" yMax="758">
      <contour>
        <pt x="460" y="-158" on="1"/>
        <pt x="386" y="-173" on="0"/>
        <pt x="329" y="-173" on="1"/>
        <pt x="257" y="-173" on="0"/>
        <pt x="155" y="-130" on="0"/>
        <pt x="90" y="-50" on="0"/>
        <pt x="60" y="66" on="0"/>
        <pt x="60" y="138" on="1"/>
        <pt x="60" y="216" on="0"/>
        <pt x="88" y="369" on="0"/>
        <pt x="141" y="507" on="0"/>
        <pt x="214" y="624" on="0"/>
        <pt x="305" y="710" on="0"/>
        <pt x="409" y="758" on="0"/>
        <pt x="466" y="758" on="1"/>
        <pt x="544" y="758" on="0"/>
        <pt x="623" y="670" on="0"/>
        <pt x="623" y="585" on="1"/>
        <pt x="623" y="537" on="0"/>
        <pt x="611" y="479" on="1"/>
        <pt x="566" y="258" on="1"/>
        <pt x="558" y="216" on="0"/>
        <pt x="542" y="118" on="0"/>
        <pt x="535" y="71" on="1"/>
        <pt x="459" y="73" on="1"/>
        <pt x="465" y="131" on="1"/>
        <pt x="434" y="102" on="0"/>
        <pt x="367" y="64" on="0"/>
        <pt x="338" y="64" on="1"/>
        <pt x="303" y="64" on="0"/>
        <pt x="257" y="132" on="0"/>
        <pt x="257" y="204" on="1"/>
        <pt x="257" y="263" on="0"/>
        <pt x="289" y="381" on="0"/>
        <pt x="349" y="474" on="0"/>
        <pt x="434" y="532" on="0"/>
        <pt x="487" y="532" on="1"/>
        <pt x="499" y="532" on="0"/>
        <pt x="526" y="529" on="0"/>
        <pt x="541" y="527" on="1"/>
        <pt x="543" y="541" on="0"/>
        <pt x="545" y="567" on="0"/>
        <pt x="545" y="579" on="1"/>
        <pt x="545" y="689" on="0"/>
        <pt x="450" y="689" on="1"/>
        <pt x="389" y="689" on="0"/>
        <pt x="276" y="597" on="0"/>
        <pt x="189" y="445" on="0"/>
        <pt x="136" y="249" on="0"/>
        <pt x="136" y="145" on="1"/>
        <pt x="136" y="86" on="0"/>
        <pt x="158" y="-6" on="0"/>
        <pt x="208" y="-69" on="0"/>
        <pt x="287" y="-102" on="0"/>
        <pt x="343" y="-102" on="1"/>
        <pt x="400" y="-102" on="0"/>
        <pt x="470" y="-86" on="1"/>
      </contour>
      <contour>
        <pt x="378" y="140" on="1"/>
        <pt x="397" y="140" on="0"/>
        <pt x="449" y="165" on="0"/>
        <pt x="472" y="185" on="1"/>
        <pt x="526" y="450" on="1"/>
        <pt x="506" y="457" on="0"/>
        <pt x="469" y="464" on="0"/>
        <pt x="456" y="464" on="1"/>
        <pt x="433" y="464" on="0"/>
        <pt x="389" y="419" on="0"/>
        <pt x="355" y="348" on="0"/>
        <pt x="334" y="262" on="0"/>
        <pt x="334" y="221" on="1"/>
        <pt x="334" y="178" on="0"/>
        <pt x="360" y="140" on="0"/>
      </contour>
    </TTGlyph>
    <TTGlyph name="atilde" xMin="61" yMin="-12" xMax="658" yMax="823">
      <component glyphName="a" x="0" y="0" flags="0x204"/>
      <component glyphName="tilde" x="107" y="11" flags="0x4"/>
    </TTGlyph>
    <TTGlyph name="b" xMin="66" yMin="-12" xMax="562" yMax="781">
      <contour>
        <pt x="230" y="-12" on="1"/>
        <pt x="193" y="-12" on="0"/>
        <pt x="106" y="4" on="0"/>
        <pt x="66" y="16" on="1"/>
        <pt x="213" y="774" on="1"/>
        <pt x="302" y="781" on="1"/>
        <pt x="237" y="446" on="1"/>
        <pt x="261" y="469" on="0"/>
        <pt x="312" y="510" on="0"/>
        <pt x="365" y="540" on="0"/>
        <pt x="416" y="558" on="0"/>
        <pt x="439" y="558" on="1"/>
        <pt x="492" y="558" on="0"/>
        <pt x="562" y="467" on="0"/>
        <pt x="562" y="375" on="1"/>
        <pt x="562" y="300" on="0"/>
        <pt x="514" y="161" on="0"/>
        <pt x="427" y="53" on="0"/>
        <pt x="304" y="-12" on="0"/>
      </contour>
      <contour>
        <pt x="277" y="64" on="1"/>
        <pt x="317" y="64" on="0"/>
        <pt x="389" y="114" on="0"/>
        <pt x="442" y="195" on="0"/>
        <pt x="473" y="299" on="0"/>
        <pt x="473" y="354" on="1"/>
        <pt x="473" y="417" on="0"/>
        <pt x="428" y="476" on="0"/>
        <pt x="396" y="476" on="1"/>
        <pt x="377" y="476" on="0"/>
        <pt x="333" y="459" on="0"/>
        <pt x="288" y="431" on="0"/>
        <pt x="243" y="394" on="0"/>
        <pt x="223" y="373" on="1"/>
        <pt x="166" y="83" on="1"/>
        <pt x="198" y="74" on="0"/>
        <pt x="256" y="64" on="0"/>
      </contour>
    </TTGlyph>
    <TTGlyph name="backslash" xMin="125" yMin="-207" xMax="505" yMax="797">
      <contour>
        <pt x="505" y="-184" on="1"/>
        <pt x="431" y="-207" on="1"/>
        <pt x="125" y="773" on="1"/>
        <pt x="199" y="797" on="1"/>
      </contour>
    </TTGlyph>
    <TTGlyph name="bar" xMin="175" yMin="-201" xMax="451" yMax="785">
      <contour>
        <pt x="451" y="785" on="1"/>
        <pt x="259" y="-201" on="1"/>
        <pt x="175" y="-201" on="1"/>
        <pt x="367" y="782" on="1"/>
      </contour>
    </TTGlyph>
    <TTGlyph name="braceleft" xMin="113" yMin="-230" xMax="618" yMax="803">
      <contour>
        <pt x="412" y="-230" on="1"/>
        <pt x="335" y="-196" on="0"/>
        <pt x="227" y="-140" on="0"/>
        <pt x="159" y="-88" on="0"/>
        <pt x="128" y="-38" on="0"/>
        <pt x="128" y="-11" on="1"/>
        <pt x="128" y="25" on="0"/>
        <pt x="170" y="79" on="0"/>
        <pt x="219" y="123" on="0"/>
        <pt x="261" y="162" on="0"/>
        <pt x="261" y="185" on="1"/>
        <pt x="261" y="213" on="0"/>
        <pt x="190" y="252" on="0"/>
        <pt x="113" y="261" on="1"/>
        <pt x="126" y="326" on="1"/>
        <pt x="179" y="329" on="0"/>
        <pt x="248" y="343" on="0"/>
        <pt x="289" y="363" on="0"/>
        <pt x="306" y="388" on="0"/>
        <pt x="306" y="401" on="1"/>
        <pt x="306" y="418" on="0"/>
        <pt x="283" y="457" on="0"/>
        <pt x="255" y="501" on="0"/>
        <pt x="232" y="549" on="0"/>
        <pt x="232" y="575" on="1"/>
        <pt x="232" y="605" on="0"/>
        <pt x="269" y="665" on="0"/>
        <pt x="356" y="723" on="0"/>
        <pt x="498" y="778" on="0"/>
        <pt x="602" y="803" on="1"/>
        <pt x="618" y="727" on="1"/>
        <pt x="538" y="711" on="0"/>
        <pt x="423" y="679" on="0"/>
        <pt x="350" y="644" on="0"/>
        <pt x="316" y="606" on="0"/>
        <pt x="316" y="585" on="1"/>
        <pt x="316" y="567" on="0"/>
        <pt x="339" y="525" on="0"/>
        <pt x="366" y="481" on="0"/>
        <pt x="389" y="436" on="0"/>
        <pt x="389" y="416" on="1"/>
        <pt x="389" y="382" on="0"/>
        <pt x="323" y="313" on="0"/>
        <pt x="247" y="294" on="1"/>
        <pt x="303" y="277" on="0"/>
        <pt x="347" y="227" on="0"/>
        <pt x="347" y="199" on="1"/>
        <pt x="347" y="169" on="0"/>
        <pt x="307" y="121" on="0"/>
        <pt x="258" y="77" on="0"/>
        <pt x="218" y="33" on="0"/>
        <pt x="218" y="6" on="1"/>
        <pt x="218" y="-33" on="0"/>
        <pt x="329" y="-110" on="0"/>
        <pt x="450" y="-162" on="1"/>
        <pt x="412" y="-230" on="1"/>
      </contour>
    </TTGlyph>
    <TTGlyph name="braceleft.cap" xMin="124" yMin="-176" xMax="629" yMax="857">
      <component glyphName="braceleft" x="11" y="54" flags="0x204"/>
    </TTGlyph>
    <TTGlyph name="braceright" xMin="4" yMin="-230" xMax="509" yMax="804">
      <contour>
        <pt x="4" y="-153" on="1"/>
        <pt x="164" y="-122" on="0"/>
        <pt x="306" y="-53" on="0"/>
        <pt x="306" y="-12" on="1"/>
        <pt x="306" y="6" on="0"/>
        <pt x="283" y="49" on="0"/>
        <pt x="256" y="93" on="0"/>
        <pt x="233" y="137" on="0"/>
        <pt x="233" y="158" on="1"/>
        <pt x="233" y="192" on="0"/>
        <pt x="299" y="261" on="0"/>
        <pt x="375" y="280" on="1"/>
        <pt x="319" y="297" on="0"/>
        <pt x="275" y="346" on="0"/>
        <pt x="275" y="374" on="1"/>
        <pt x="275" y="405" on="0"/>
        <pt x="315" y="453" on="0"/>
        <pt x="364" y="496" on="0"/>
        <pt x="404" y="541" on="0"/>
        <pt x="404" y="568" on="1"/>
        <pt x="404" y="587" on="0"/>
        <pt x="377" y="625" on="0"/>
        <pt x="320" y="665" on="0"/>
        <pt x="232" y="710" on="0"/>
        <pt x="172" y="736" on="1"/>
        <pt x="210" y="804" on="1"/>
        <pt x="287" y="770" on="0"/>
        <pt x="395" y="713" on="0"/>
        <pt x="463" y="661" on="0"/>
        <pt x="494" y="611" on="0"/>
        <pt x="494" y="584" on="1"/>
        <pt x="494" y="560" on="0"/>
        <pt x="474" y="520" on="0"/>
        <pt x="445" y="487" on="0"/>
        <pt x="410" y="458" on="0"/>
        <pt x="381" y="431" on="0"/>
        <pt x="361" y="404" on="0"/>
        <pt x="361" y="389" on="1"/>
        <pt x="361" y="360" on="0"/>
        <pt x="432" y="321" on="0"/>
        <pt x="509" y="312" on="1"/>
        <pt x="496" y="248" on="1"/>
        <pt x="443" y="245" on="0"/>
        <pt x="374" y="230" on="0"/>
        <pt x="333" y="210" on="0"/>
        <pt x="316" y="185" on="0"/>
        <pt x="316" y="172" on="1"/>
        <pt x="316" y="155" on="0"/>
        <pt x="339" y="116" on="0"/>
        <pt x="366" y="73" on="0"/>
        <pt x="389" y="25" on="0"/>
        <pt x="389" y="-1" on="1"/>
        <pt x="389" y="-31" on="0"/>
        <pt x="352" y="-91" on="0"/>
        <pt x="266" y="-150" on="0"/>
        <pt x="124" y="-205" on="0"/>
        <pt x="20" y="-230" on="1"/>
      </contour>
    </TTGlyph>
    <TTGlyph name="braceright.cap" xMin="15" yMin="-176" xMax="520" yMax="858">
      <component glyphName="braceright" x="11" y="54" flags="0x204"/>
    </TTGlyph>
    <TTGlyph name="bracketleft" xMin="75" yMin="-198" xMax="609" yMax="770">
      <contour>
        <pt x="263" y="770" on="1"/>
        <pt x="609" y="770" on="1"/>
        <pt x="594" y="698" on="1"/>
        <pt x="337" y="698" on="1"/>
        <pt x="177" y="-126" on="1"/>
        <pt x="434" y="-126" on="1"/>
        <pt x="420" y="-198" on="1"/>
        <pt x="75" y="-198" on="1"/>
      </contour>
    </TTGlyph>
    <TTGlyph name="bracketleft.cap" xMin="86" yMin="-144" xMax="620" yMax="824">
      <component glyphName="bracketleft" x="11" y="54" flags="0x204"/>
    </TTGlyph>
    <TTGlyph name="bracketright" xMin="13" yMin="-197" xMax="547" yMax="771">
      <contour>
        <pt x="358" y="-197" on="1"/>
        <pt x="13" y="-197" on="1"/>
        <pt x="28" y="-125" on="1"/>
        <pt x="285" y="-125" on="1"/>
        <pt x="444" y="699" on="1"/>
        <pt x="187" y="699" on="1"/>
        <pt x="202" y="771" on="1"/>
        <pt x="547" y="771" on="1"/>
      </contour>
    </TTGlyph>
    <TTGlyph name="bracketright.cap" xMin="24" yMin="-143" xMax="558" yMax="825">
      <component glyphName="bracketright" x="11" y="54" flags="0x204"/>
    </TTGlyph>
    <TTGlyph name="breve" xMin="122" yMin="627" xMax="536" yMax="824">
      <contour>
        <pt x="536" y="787" on="1"/>
        <pt x="478" y="711" on="0"/>
        <pt x="360" y="627" on="0"/>
        <pt x="300" y="627" on="1"/>
        <pt x="243" y="627" on="0"/>
        <pt x="154" y="706" on="0"/>
        <pt x="122" y="789" on="1"/>
        <pt x="191" y="824" on="1"/>
        <pt x="219" y="756" on="0"/>
        <pt x="276" y="698" on="0"/>
        <pt x="318" y="698" on="1"/>
        <pt x="361" y="698" on="0"/>
        <pt x="438" y="762" on="0"/>
        <pt x="484" y="819" on="1"/>
      </contour>
    </TTGlyph>
    <TTGlyph name="breve.cap" xMin="122" yMin="627" xMax="536" yMax="824">
      <contour>
        <pt x="536" y="787" on="1"/>
        <pt x="478" y="711" on="0"/>
        <pt x="360" y="627" on="0"/>
        <pt x="300" y="627" on="1"/>
        <pt x="243" y="627" on="0"/>
        <pt x="154" y="706" on="0"/>
        <pt x="122" y="789" on="1"/>
        <pt x="191" y="824" on="1"/>
        <pt x="219" y="756" on="0"/>
        <pt x="276" y="698" on="0"/>
        <pt x="318" y="698" on="1"/>
        <pt x="361" y="698" on="0"/>
        <pt x="438" y="762" on="0"/>
        <pt x="484" y="819" on="1"/>
      </contour>
    </TTGlyph>
    <TTGlyph name="bullet" xMin="187" yMin="190" xMax="454" yMax="472">
      <contour>
        <pt x="454" y="347" on="1"/>
        <pt x="454" y="312" on="0"/>
        <pt x="429" y="254" on="0"/>
        <pt x="389" y="213" on="0"/>
        <pt x="335" y="190" on="0"/>
        <pt x="307" y="190" on="1"/>
        <pt x="281" y="190" on="0"/>
        <pt x="238" y="209" on="0"/>
        <pt x="205" y="242" on="0"/>
        <pt x="187" y="288" on="0"/>
        <pt x="187" y="316" on="1"/>
        <pt x="187" y="351" on="0"/>
        <pt x="211" y="408" on="0"/>
        <pt x="251" y="449" on="0"/>
        <pt x="303" y="472" on="0"/>
        <pt x="331" y="472" on="1"/>
        <pt x="385" y="472" on="0"/>
        <pt x="454" y="402" on="0"/>
      </contour>
    </TTGlyph>
    <TTGlyph name="bullet.alt" xMin="181" yMin="210" xMax="466" yMax="451">
      <contour>
        <pt x="181" y="210" on="1"/>
        <pt x="229" y="451" on="1"/>
        <pt x="466" y="451" on="1"/>
        <pt x="418" y="210" on="1"/>
      </contour>
    </TTGlyph>
    <TTGlyph name="c" xMin="84" yMin="-12" xMax="556" yMax="557">
      <contour>
        <pt x="473" y="370" on="1"/>
        <pt x="472" y="432" on="0"/>
        <pt x="432" y="480" on="0"/>
        <pt x="388" y="480" on="1"/>
        <pt x="344" y="480" on="0"/>
        <pt x="265" y="436" on="0"/>
        <pt x="207" y="362" on="0"/>
        <pt x="173" y="265" on="0"/>
        <pt x="173" y="211" on="1"/>
        <pt x="173" y="139" on="0"/>
        <pt x="244" y="65" on="0"/>
        <pt x="321" y="65" on="1"/>
        <pt x="392" y="65" on="0"/>
        <pt x="506" y="100" on="1"/>
        <pt x="517" y="53" on="1"/>
        <pt x="448" y="19" on="0"/>
        <pt x="331" y="-12" on="0"/>
        <pt x="283" y="-12" on="1"/>
        <pt x="234" y="-12" on="0"/>
        <pt x="159" y="18" on="0"/>
        <pt x="109" y="73" on="0"/>
        <pt x="84" y="149" on="0"/>
        <pt x="84" y="195" on="1"/>
        <pt x="84" y="266" on="0"/>
        <pt x="137" y="397" on="0"/>
        <pt x="226" y="497" on="0"/>
        <pt x="345" y="557" on="0"/>
        <pt x="411" y="557" on="1"/>
        <pt x="484" y="557" on="0"/>
        <pt x="556" y="480" on="0"/>
        <pt x="556" y="392" on="1"/>
        <pt x="556" y="387" on="0"/>
        <pt x="555" y="376" on="0"/>
        <pt x="555" y="371" on="1"/>
      </contour>
    </TTGlyph>
    <TTGlyph name="cacute" xMin="84" yMin="-12" xMax="571" yMax="859">
      <component glyphName="acute" x="83" y="13" flags="0x204"/>
      <component glyphName="c" x="0" y="0" flags="0x4"/>
    </TTGlyph>
    <TTGlyph name="caron" xMin="145" yMin="616" xMax="535" yMax="830">
      <contour>
        <pt x="302" y="616" on="1"/>
        <pt x="145" y="782" on="1"/>
        <pt x="207" y="830" on="1"/>
        <pt x="320" y="703" on="1"/>
        <pt x="493" y="826" on="1"/>
        <pt x="535" y="778" on="1"/>
        <pt x="306" y="616" on="1"/>
      </contour>
    </TTGlyph>
    <TTGlyph name="caron.alt" xMin="263" yMin="609" xMax="422" yMax="891">
      <contour>
        <pt x="422" y="891" on="1"/>
        <pt x="418" y="819" on="0"/>
        <pt x="364" y="681" on="0"/>
        <pt x="302" y="609" on="1"/>
        <pt x="263" y="626" on="1"/>
        <pt x="285" y="663" on="0"/>
        <pt x="310" y="731" on="0"/>
        <pt x="321" y="794" on="0"/>
        <pt x="321" y="855" on="0"/>
        <pt x="320" y="886" on="1"/>
      </contour>
    </TTGlyph>
    <TTGlyph name="caron.cap" xMin="145" yMin="616" xMax="535" yMax="830">
      <contour>
        <pt x="302" y="616" on="1"/>
        <pt x="145" y="782" on="1"/>
        <pt x="207" y="830" on="1"/>
        <pt x="320" y="703" on="1"/>
        <pt x="493" y="826" on="1"/>
        <pt x="535" y="778" on="1"/>
        <pt x="306" y="616" on="1"/>
      </contour>
    </TTGlyph>
    <TTGlyph name="ccaron" xMin="84" yMin="-12" xMax="626" yMax="843">
      <component glyphName="caron" x="91" y="13" flags="0x204"/>
      <component glyphName="c" x="0" y="0" flags="0x4"/>
    </TTGlyph>
    <TTGlyph name="ccedilla" xMin="84" yMin="-206" xMax="556" yMax="557">
      <contour>
        <pt x="316" y="-206" on="1"/>
        <pt x="317" y="-197" on="0"/>
        <pt x="317" y="-180" on="0"/>
        <pt x="317" y="-172" on="1"/>
        <pt x="317" y="-112" on="0"/>
        <pt x="287" y="-61" on="0"/>
        <pt x="261" y="-61" on="1"/>
        <pt x="233" y="-61" on="0"/>
        <pt x="181" y="-121" on="0"/>
        <pt x="155" y="-176" on="1"/>
        <pt x="108" y="-160" on="1"/>
        <pt x="160" y="-36" on="0"/>
        <pt x="225" y="-5" on="1"/>
        <pt x="155" y="11" on="0"/>
        <pt x="84" y="118" on="0"/>
        <pt x="84" y="195" on="1"/>
        <pt x="84" y="266" on="0"/>
        <pt x="137" y="397" on="0"/>
        <pt x="226" y="497" on="0"/>
        <pt x="345" y="557" on="0"/>
        <pt x="411" y="557" on="1"/>
        <pt x="484" y="557" on="0"/>
        <pt x="556" y="480" on="0"/>
        <pt x="556" y="392" on="1"/>
        <pt x="556" y="387" on="0"/>
        <pt x="555" y="376" on="0"/>
        <pt x="555" y="371" on="1"/>
        <pt x="473" y="370" on="1"/>
        <pt x="472" y="432" on="0"/>
        <pt x="432" y="480" on="0"/>
        <pt x="388" y="480" on="1"/>
        <pt x="344" y="480" on="0"/>
        <pt x="265" y="436" on="0"/>
        <pt x="207" y="362" on="0"/>
        <pt x="173" y="265" on="0"/>
        <pt x="173" y="211" on="1"/>
        <pt x="173" y="139" on="0"/>
        <pt x="244" y="65" on="0"/>
        <pt x="321" y="65" on="1"/>
        <pt x="392" y="65" on="0"/>
        <pt x="506" y="100" on="1"/>
        <pt x="517" y="53" on="1"/>
        <pt x="462" y="27" on="0"/>
        <pt x="368" y="-4" on="0"/>
        <pt x="326" y="-9" on="1"/>
        <pt x="358" y="-26" on="0"/>
        <pt x="396" y="-109" on="0"/>
        <pt x="396" y="-175" on="1"/>
        <pt x="396" y="-182" on="0"/>
        <pt x="396" y="-196" on="0"/>
        <pt x="395" y="-204" on="1"/>
      </contour>
    </TTGlyph>
    <TTGlyph name="cdotaccent" xMin="84" yMin="-12" xMax="556" yMax="795">
      <component glyphName="c" x="0" y="0" flags="0x204"/>
      <component glyphName="dotaccent" x="98" y="13" flags="0x4"/>
    </TTGlyph>
    <TTGlyph name="cedilla" xMin="123" yMin="-194" xMax="411" yMax="17">
      <contour>
        <pt x="123" y="-148" on="1"/>
        <pt x="158" y="-63" on="0"/>
        <pt x="238" y="17" on="0"/>
        <pt x="286" y="17" on="1"/>
        <pt x="312" y="17" on="0"/>
        <pt x="358" y="-5" on="0"/>
        <pt x="392" y="-49" on="0"/>
        <pt x="411" y="-118" on="0"/>
        <pt x="411" y="-164" on="1"/>
        <pt x="411" y="-171" on="0"/>
        <pt x="411" y="-184" on="0"/>
        <pt x="410" y="-192" on="1"/>
        <pt x="331" y="-194" on="1"/>
        <pt x="332" y="-185" on="0"/>
        <pt x="332" y="-168" on="0"/>
        <pt x="332" y="-160" on="1"/>
        <pt x="332" y="-100" on="0"/>
        <pt x="302" y="-49" on="0"/>
        <pt x="276" y="-49" on="1"/>
        <pt x="248" y="-49" on="0"/>
        <pt x="196" y="-109" on="0"/>
        <pt x="170" y="-164" on="1"/>
      </contour>
    </TTGlyph>
    <TTGlyph name="cedilla.cap" xMin="123" yMin="-194" xMax="411" yMax="17">
      <contour>
        <pt x="123" y="-148" on="1"/>
        <pt x="158" y="-63" on="0"/>
        <pt x="238" y="17" on="0"/>
        <pt x="286" y="17" on="1"/>
        <pt x="312" y="17" on="0"/>
        <pt x="358" y="-5" on="0"/>
        <pt x="392" y="-49" on="0"/>
        <pt x="411" y="-118" on="0"/>
        <pt x="411" y="-164" on="1"/>
        <pt x="411" y="-171" on="0"/>
        <pt x="411" y="-184" on="0"/>
        <pt x="410" y="-192" on="1"/>
        <pt x="331" y="-194" on="1"/>
        <pt x="332" y="-185" on="0"/>
        <pt x="332" y="-168" on="0"/>
        <pt x="332" y="-160" on="1"/>
        <pt x="332" y="-100" on="0"/>
        <pt x="302" y="-49" on="0"/>
        <pt x="276" y="-49" on="1"/>
        <pt x="248" y="-49" on="0"/>
        <pt x="196" y="-109" on="0"/>
        <pt x="170" y="-164" on="1"/>
      </contour>
    </TTGlyph>
    <TTGlyph name="cent" xMin="94" yMin="-94" xMax="566" yMax="688">
      <contour>
        <pt x="178" y="285" on="1"/>
        <pt x="178" y="242" on="0"/>
        <pt x="228" y="172" on="0"/>
        <pt x="290" y="149" on="1"/>
        <pt x="357" y="445" on="1"/>
        <pt x="306" y="437" on="0"/>
        <pt x="237" y="406" on="0"/>
        <pt x="195" y="364" on="0"/>
        <pt x="178" y="313" on="0"/>
      </contour>
      <contour>
        <pt x="476" y="34" on="1"/>
        <pt x="399" y="37" on="0"/>
        <pt x="337" y="49" on="1"/>
        <pt x="306" y="-94" on="1"/>
        <pt x="225" y="-94" on="1"/>
        <pt x="264" y="69" on="1"/>
        <pt x="176" y="99" on="0"/>
        <pt x="94" y="203" on="0"/>
        <pt x="94" y="269" on="1"/>
        <pt x="94" y="310" on="0"/>
        <pt x="123" y="392" on="0"/>
        <pt x="189" y="462" on="0"/>
        <pt x="294" y="516" on="0"/>
        <pt x="369" y="529" on="1"/>
        <pt x="402" y="688" on="1"/>
        <pt x="483" y="688" on="1"/>
        <pt x="448" y="537" on="1"/>
        <pt x="476" y="539" on="0"/>
        <pt x="534" y="539" on="0"/>
        <pt x="566" y="536" on="1"/>
        <pt x="549" y="449" on="1"/>
        <pt x="514" y="451" on="0"/>
        <pt x="454" y="453" on="0"/>
        <pt x="426" y="451" on="1"/>
        <pt x="353" y="130" on="1"/>
        <pt x="382" y="124" on="0"/>
        <pt x="451" y="116" on="0"/>
        <pt x="492" y="114" on="1"/>
      </contour>
    </TTGlyph>
    <TTGlyph name="check.1" xMin="90" yMin="-21" xMax="651" yMax="746">
      <contour>
        <pt x="651" y="706" on="1"/>
        <pt x="538" y="541" on="0"/>
        <pt x="344" y="182" on="0"/>
        <pt x="262" y="-21" on="1"/>
        <pt x="184" y="-20" on="1"/>
        <pt x="90" y="381" on="1"/>
        <pt x="173" y="406" on="1"/>
        <pt x="237" y="96" on="1"/>
        <pt x="242" y="96" on="1"/>
        <pt x="308" y="273" on="0"/>
        <pt x="469" y="601" on="0"/>
        <pt x="564" y="746" on="1"/>
        <pt x="651" y="706" on="1"/>
      </contour>
    </TTGlyph>
    <TTGlyph name="check.2" xMin="38" yMin="-6" xMax="632" yMax="749">
      <contour>
        <pt x="241" y="566" on="1"/>
        <pt x="299" y="377" on="1"/>
        <pt x="550" y="749" on="1"/>
        <pt x="632" y="707" on="1"/>
        <pt x="328" y="297" on="1"/>
        <pt x="425" y="6" on="1"/>
        <pt x="337" y="-6" on="1"/>
        <pt x="264" y="228" on="1"/>
        <pt x="94" y="-4" on="1"/>
        <pt x="38" y="23" on="1"/>
        <pt x="236" y="303" on="1"/>
        <pt x="155" y="543" on="1"/>
      </contour>
    </TTGlyph>
    <TTGlyph name="circumflex" xMin="120" yMin="619" xMax="508" yMax="833">
      <contour>
        <pt x="334" y="746" on="1"/>
        <pt x="160" y="623" on="1"/>
        <pt x="120" y="671" on="1"/>
        <pt x="348" y="833" on="1"/>
        <pt x="352" y="833" on="1"/>
        <pt x="508" y="667" on="1"/>
        <pt x="447" y="619" on="1"/>
      </contour>
    </TTGlyph>
    <TTGlyph name="circumflex.cap" xMin="120" yMin="619" xMax="508" yMax="833">
      <contour>
        <pt x="334" y="746" on="1"/>
        <pt x="160" y="623" on="1"/>
        <pt x="120" y="671" on="1"/>
        <pt x="348" y="833" on="1"/>
        <pt x="352" y="833" on="1"/>
        <pt x="508" y="667" on="1"/>
        <pt x="447" y="619" on="1"/>
      </contour>
    </TTGlyph>
    <TTGlyph name="colon" xMin="197" yMin="0" xMax="423" yMax="497">
      <contour>
        <pt x="273" y="365" on="1"/>
        <pt x="299" y="497" on="1"/>
        <pt x="423" y="497" on="1"/>
        <pt x="397" y="365" on="1"/>
      </contour>
      <contour>
        <pt x="197" y="0" on="1"/>
        <pt x="223" y="131" on="1"/>
        <pt x="347" y="131" on="1"/>
        <pt x="321" y="0" on="1"/>
      </contour>
    </TTGlyph>
    <TTGlyph name="colon.alt" xMin="216" yMin="95" xMax="442" yMax="592">
      <contour>
        <pt x="293" y="461" on="1"/>
        <pt x="318" y="592" on="1"/>
        <pt x="442" y="592" on="1"/>
        <pt x="416" y="461" on="1"/>
      </contour>
      <contour>
        <pt x="216" y="95" on="1"/>
        <pt x="242" y="226" on="1"/>
        <pt x="366" y="226" on="1"/>
        <pt x="340" y="95" on="1"/>
      </contour>
    </TTGlyph>
    <TTGlyph name="colonmonetary" xMin="84" yMin="-82" xMax="640" yMax="769">
      <contour>
        <pt x="479" y="570" on="1"/>
        <pt x="426" y="562" on="0"/>
        <pt x="388" y="551" on="1"/>
        <pt x="279" y="155" on="1"/>
        <pt x="314" y="140" on="0"/>
        <pt x="358" y="128" on="1"/>
      </contour>
      <contour>
        <pt x="166" y="315" on="1"/>
        <pt x="166" y="273" on="0"/>
        <pt x="197" y="208" on="0"/>
        <pt x="231" y="183" on="1"/>
        <pt x="325" y="530" on="1"/>
        <pt x="281" y="512" on="0"/>
        <pt x="220" y="465" on="0"/>
        <pt x="182" y="410" on="0"/>
        <pt x="166" y="348" on="0"/>
      </contour>
      <contour>
        <pt x="333" y="49" on="1"/>
        <pt x="289" y="60" on="0"/>
        <pt x="257" y="74" on="1"/>
        <pt x="214" y="-82" on="1"/>
        <pt x="148" y="-82" on="1"/>
        <pt x="200" y="101" on="1"/>
        <pt x="140" y="136" on="0"/>
        <pt x="84" y="235" on="0"/>
        <pt x="84" y="301" on="1"/>
        <pt x="84" y="348" on="0"/>
        <pt x="111" y="439" on="0"/>
        <pt x="172" y="520" on="0"/>
        <pt x="270" y="589" on="0"/>
        <pt x="341" y="614" on="1"/>
        <pt x="383" y="769" on="1"/>
        <pt x="448" y="769" on="1"/>
        <pt x="411" y="634" on="1"/>
        <pt x="431" y="639" on="0"/>
        <pt x="475" y="648" on="0"/>
        <pt x="498" y="651" on="1"/>
        <pt x="529" y="769" on="1"/>
        <pt x="595" y="769" on="1"/>
        <pt x="565" y="659" on="1"/>
        <pt x="583" y="661" on="0"/>
        <pt x="620" y="663" on="0"/>
        <pt x="640" y="664" on="1"/>
        <pt x="632" y="582" on="1"/>
        <pt x="607" y="581" on="0"/>
        <pt x="561" y="579" on="0"/>
        <pt x="538" y="577" on="1"/>
        <pt x="412" y="117" on="1"/>
        <pt x="458" y="108" on="0"/>
        <pt x="510" y="102" on="1"/>
        <pt x="478" y="25" on="1"/>
        <pt x="433" y="29" on="0"/>
        <pt x="394" y="37" on="1"/>
        <pt x="362" y="-82" on="1"/>
        <pt x="296" y="-82" on="1"/>
      </contour>
    </TTGlyph>
    <TTGlyph name="comma" xMin="134" yMin="-194" xMax="348" yMax="135">
      <contour>
        <pt x="134" y="-173" on="1"/>
        <pt x="160" y="-144" on="0"/>
        <pt x="196" y="-89" on="0"/>
        <pt x="219" y="-32" on="0"/>
        <pt x="229" y="27" on="0"/>
        <pt x="229" y="61" on="1"/>
        <pt x="229" y="78" on="0"/>
        <pt x="227" y="112" on="0"/>
        <pt x="225" y="131" on="1"/>
        <pt x="348" y="135" on="1"/>
        <pt x="346" y="83" on="0"/>
        <pt x="324" y="-5" on="0"/>
        <pt x="280" y="-84" on="0"/>
        <pt x="215" y="-157" on="0"/>
        <pt x="171" y="-194" on="1"/>
        <pt x="134" y="-173" on="1"/>
      </contour>
    </TTGlyph>
    <TTGlyph name="commaaccent" xMin="208" yMin="-305" xMax="366" yMax="-76">
      <contour>
        <pt x="208" y="-288" on="1"/>
        <pt x="234" y="-246" on="0"/>
        <pt x="256" y="-170" on="0"/>
        <pt x="256" y="-133" on="1"/>
        <pt x="256" y="-119" on="0"/>
        <pt x="253" y="-92" on="0"/>
        <pt x="251" y="-78" on="1"/>
        <pt x="366" y="-76" on="1"/>
        <pt x="364" y="-134" on="0"/>
        <pt x="303" y="-253" on="0"/>
        <pt x="244" y="-305" on="1"/>
        <pt x="208" y="-288" on="1"/>
      </contour>
    </TTGlyph>
    <TTGlyph name="commaaccent.cap" xMin="208" yMin="-305" xMax="366" yMax="-76">
      <contour>
        <pt x="208" y="-288" on="1"/>
        <pt x="234" y="-246" on="0"/>
        <pt x="256" y="-170" on="0"/>
        <pt x="256" y="-133" on="1"/>
        <pt x="256" y="-119" on="0"/>
        <pt x="253" y="-92" on="0"/>
        <pt x="251" y="-78" on="1"/>
        <pt x="366" y="-76" on="1"/>
        <pt x="364" y="-134" on="0"/>
        <pt x="303" y="-253" on="0"/>
        <pt x="244" y="-305" on="1"/>
        <pt x="208" y="-288" on="1"/>
      </contour>
    </TTGlyph>
    <TTGlyph name="commaaccent.rot" xMin="246" yMin="624" xMax="404" yMax="854">
      <contour>
        <pt x="404" y="836" on="1"/>
        <pt x="367" y="779" on="0"/>
        <pt x="354" y="675" on="0"/>
        <pt x="362" y="627" on="1"/>
        <pt x="246" y="624" on="1"/>
        <pt x="249" y="683" on="0"/>
        <pt x="309" y="802" on="0"/>
        <pt x="368" y="854" on="1"/>
        <pt x="404" y="836" on="1"/>
      </contour>
    </TTGlyph>
    <TTGlyph name="copyright" xMin="55" yMin="8" xMax="585" yMax="680">
      <contour>
        <pt x="55" y="283" on="1"/>
        <pt x="55" y="371" on="0"/>
        <pt x="103" y="517" on="0"/>
        <pt x="185" y="622" on="0"/>
        <pt x="296" y="680" on="0"/>
        <pt x="358" y="680" on="1"/>
        <pt x="407" y="680" on="0"/>
        <pt x="491" y="644" on="0"/>
        <pt x="551" y="574" on="0"/>
        <pt x="585" y="472" on="0"/>
        <pt x="585" y="407" on="1"/>
        <pt x="585" y="319" on="0"/>
        <pt x="540" y="173" on="0"/>
        <pt x="460" y="67" on="0"/>
        <pt x="351" y="8" on="0"/>
        <pt x="287" y="8" on="1"/>
        <pt x="237" y="8" on="0"/>
        <pt x="152" y="45" on="0"/>
        <pt x="90" y="115" on="0"/>
        <pt x="55" y="218" on="0"/>
      </contour>
      <contour>
        <pt x="110" y="293" on="1"/>
        <pt x="110" y="236" on="0"/>
        <pt x="139" y="149" on="0"/>
        <pt x="188" y="90" on="0"/>
        <pt x="256" y="59" on="0"/>
        <pt x="295" y="59" on="1"/>
        <pt x="346" y="59" on="0"/>
        <pt x="433" y="110" on="0"/>
        <pt x="495" y="201" on="0"/>
        <pt x="530" y="325" on="0"/>
        <pt x="530" y="397" on="1"/>
        <pt x="530" y="454" on="0"/>
        <pt x="502" y="541" on="0"/>
        <pt x="454" y="600" on="0"/>
        <pt x="388" y="630" on="0"/>
        <pt x="350" y="630" on="1"/>
        <pt x="300" y="630" on="0"/>
        <pt x="213" y="579" on="0"/>
        <pt x="148" y="489" on="0"/>
        <pt x="110" y="365" on="0"/>
      </contour>
      <contour>
        <pt x="358" y="533" on="1"/>
        <pt x="400" y="533" on="0"/>
        <pt x="436" y="475" on="0"/>
        <pt x="436" y="419" on="1"/>
        <pt x="436" y="401" on="1"/>
        <pt x="383" y="400" on="1"/>
        <pt x="383" y="407" on="1"/>
        <pt x="383" y="439" on="0"/>
        <pt x="368" y="474" on="0"/>
        <pt x="348" y="474" on="1"/>
        <pt x="327" y="474" on="0"/>
        <pt x="293" y="444" on="0"/>
        <pt x="267" y="396" on="0"/>
        <pt x="253" y="335" on="0"/>
        <pt x="253" y="304" on="1"/>
        <pt x="253" y="216" on="0"/>
        <pt x="324" y="216" on="1"/>
        <pt x="340" y="216" on="0"/>
        <pt x="377" y="224" on="0"/>
        <pt x="400" y="232" on="1"/>
        <pt x="391" y="175" on="1"/>
        <pt x="341" y="157" on="0"/>
        <pt x="304" y="157" on="1"/>
        <pt x="249" y="157" on="0"/>
        <pt x="192" y="229" on="0"/>
        <pt x="192" y="293" on="1"/>
        <pt x="192" y="339" on="0"/>
        <pt x="218" y="426" on="0"/>
        <pt x="263" y="493" on="0"/>
        <pt x="323" y="533" on="0"/>
      </contour>
    </TTGlyph>
    <TTGlyph name="d" xMin="62" yMin="-12" xMax="600" yMax="781">
      <contour>
        <pt x="226" y="72" on="1"/>
        <pt x="244" y="72" on="0"/>
        <pt x="286" y="86" on="0"/>
        <pt x="330" y="112" on="0"/>
        <pt x="373" y="146" on="0"/>
        <pt x="392" y="166" on="1"/>
        <pt x="450" y="464" on="1"/>
        <pt x="419" y="474" on="0"/>
        <pt x="363" y="483" on="0"/>
        <pt x="343" y="483" on="1"/>
        <pt x="303" y="483" on="0"/>
        <pt x="233" y="433" on="0"/>
        <pt x="180" y="350" on="0"/>
        <pt x="150" y="246" on="0"/>
        <pt x="150" y="192" on="1"/>
        <pt x="150" y="130" on="0"/>
        <pt x="194" y="72" on="0"/>
      </contour>
      <contour>
        <pt x="581" y="42" on="1"/>
        <pt x="534" y="15" on="0"/>
        <pt x="466" y="-10" on="0"/>
        <pt x="442" y="-10" on="1"/>
        <pt x="410" y="-10" on="0"/>
        <pt x="381" y="33" on="0"/>
        <pt x="381" y="71" on="1"/>
        <pt x="381" y="78" on="0"/>
        <pt x="382" y="92" on="0"/>
        <pt x="383" y="100" on="1"/>
        <pt x="360" y="77" on="0"/>
        <pt x="309" y="36" on="0"/>
        <pt x="257" y="6" on="0"/>
        <pt x="206" y="-12" on="0"/>
        <pt x="183" y="-12" on="1"/>
        <pt x="131" y="-12" on="0"/>
        <pt x="62" y="78" on="0"/>
        <pt x="62" y="169" on="1"/>
        <pt x="62" y="244" on="0"/>
        <pt x="109" y="384" on="0"/>
        <pt x="195" y="492" on="0"/>
        <pt x="315" y="557" on="0"/>
        <pt x="388" y="557" on="1"/>
        <pt x="406" y="557" on="0"/>
        <pt x="446" y="554" on="0"/>
        <pt x="467" y="550" on="1"/>
        <pt x="511" y="774" on="1"/>
        <pt x="600" y="781" on="1"/>
        <pt x="475" y="144" on="1"/>
        <pt x="469" y="115" on="0"/>
        <pt x="469" y="97" on="1"/>
        <pt x="469" y="66" on="0"/>
        <pt x="495" y="66" on="1"/>
        <pt x="518" y="66" on="0"/>
        <pt x="572" y="87" on="1"/>
      </contour>
    </TTGlyph>
    <TTGlyph name="dagger" xMin="142" yMin="117" xMax="585" yMax="773">
      <contour>
        <pt x="247" y="117" on="1"/>
        <pt x="235" y="127" on="1"/>
        <pt x="316" y="527" on="1"/>
        <pt x="142" y="544" on="1"/>
        <pt x="157" y="617" on="1"/>
        <pt x="331" y="599" on="1"/>
        <pt x="366" y="773" on="1"/>
        <pt x="452" y="765" on="1"/>
        <pt x="415" y="590" on="1"/>
        <pt x="585" y="573" on="1"/>
        <pt x="571" y="501" on="1"/>
        <pt x="399" y="518" on="1"/>
        <pt x="307" y="140" on="1"/>
      </contour>
    </TTGlyph>
    <TTGlyph name="daggerdbl" xMin="98" yMin="61" xMax="585" yMax="773">
      <contour>
        <pt x="235" y="61" on="1"/>
        <pt x="224" y="71" on="1"/>
        <pt x="271" y="306" on="1"/>
        <pt x="98" y="323" on="1"/>
        <pt x="112" y="395" on="1"/>
        <pt x="286" y="377" on="1"/>
        <pt x="316" y="527" on="1"/>
        <pt x="142" y="544" on="1"/>
        <pt x="157" y="617" on="1"/>
        <pt x="331" y="599" on="1"/>
        <pt x="366" y="773" on="1"/>
        <pt x="452" y="765" on="1"/>
        <pt x="415" y="591" on="1"/>
        <pt x="585" y="573" on="1"/>
        <pt x="571" y="501" on="1"/>
        <pt x="399" y="518" on="1"/>
        <pt x="363" y="369" on="1"/>
        <pt x="540" y="351" on="1"/>
        <pt x="526" y="280" on="1"/>
        <pt x="347" y="298" on="1"/>
        <pt x="296" y="84" on="1"/>
      </contour>
    </TTGlyph>
    <TTGlyph name="dcaron" xMin="62" yMin="-12" xMax="805" yMax="891">
      <component glyphName="caron.alt" x="383" y="0" flags="0x204"/>
      <component glyphName="d" x="0" y="0" flags="0x4"/>
    </TTGlyph>
    <TTGlyph name="dcroat" xMin="62" yMin="-12" xMax="660" yMax="781">
      <contour>
        <pt x="226" y="72" on="1"/>
        <pt x="244" y="72" on="0"/>
        <pt x="286" y="86" on="0"/>
        <pt x="330" y="112" on="0"/>
        <pt x="373" y="146" on="0"/>
        <pt x="392" y="166" on="1"/>
        <pt x="450" y="464" on="1"/>
        <pt x="419" y="474" on="0"/>
        <pt x="363" y="483" on="0"/>
        <pt x="343" y="483" on="1"/>
        <pt x="303" y="483" on="0"/>
        <pt x="233" y="433" on="0"/>
        <pt x="180" y="350" on="0"/>
        <pt x="150" y="246" on="0"/>
        <pt x="150" y="192" on="1"/>
        <pt x="150" y="130" on="0"/>
        <pt x="194" y="72" on="0"/>
      </contour>
      <contour>
        <pt x="581" y="42" on="1"/>
        <pt x="534" y="15" on="0"/>
        <pt x="466" y="-10" on="0"/>
        <pt x="442" y="-10" on="1"/>
        <pt x="410" y="-10" on="0"/>
        <pt x="381" y="33" on="0"/>
        <pt x="381" y="71" on="1"/>
        <pt x="381" y="78" on="0"/>
        <pt x="382" y="92" on="0"/>
        <pt x="383" y="100" on="1"/>
        <pt x="360" y="77" on="0"/>
        <pt x="309" y="36" on="0"/>
        <pt x="257" y="6" on="0"/>
        <pt x="206" y="-12" on="0"/>
        <pt x="183" y="-12" on="1"/>
        <pt x="131" y="-12" on="0"/>
        <pt x="62" y="78" on="0"/>
        <pt x="62" y="169" on="1"/>
        <pt x="62" y="244" on="0"/>
        <pt x="109" y="384" on="0"/>
        <pt x="195" y="492" on="0"/>
        <pt x="315" y="557" on="0"/>
        <pt x="388" y="557" on="1"/>
        <pt x="406" y="557" on="0"/>
        <pt x="446" y="554" on="0"/>
        <pt x="467" y="550" on="1"/>
        <pt x="485" y="642" on="1"/>
        <pt x="335" y="642" on="1"/>
        <pt x="347" y="701" on="1"/>
        <pt x="497" y="701" on="1"/>
        <pt x="511" y="774" on="1"/>
        <pt x="600" y="781" on="1"/>
        <pt x="584" y="701" on="1"/>
        <pt x="660" y="701" on="1"/>
        <pt x="649" y="641" on="1"/>
        <pt x="573" y="641" on="1"/>
        <pt x="475" y="144" on="1"/>
        <pt x="469" y="115" on="0"/>
        <pt x="469" y="97" on="1"/>
        <pt x="469" y="66" on="0"/>
        <pt x="495" y="66" on="1"/>
        <pt x="518" y="66" on="0"/>
        <pt x="572" y="87" on="1"/>
      </contour>
    </TTGlyph>
    <TTGlyph name="degree" xMin="169" yMin="347" xMax="559" yMax="749">
      <contour>
        <pt x="383" y="749" on="1"/>
        <pt x="421" y="749" on="0"/>
        <pt x="486" y="723" on="0"/>
        <pt x="533" y="676" on="0"/>
        <pt x="559" y="609" on="0"/>
        <pt x="559" y="567" on="1"/>
        <pt x="559" y="517" on="0"/>
        <pt x="523" y="436" on="0"/>
        <pt x="463" y="379" on="0"/>
        <pt x="385" y="347" on="0"/>
        <pt x="343" y="347" on="1"/>
        <pt x="305" y="347" on="0"/>
        <pt x="241" y="373" on="0"/>
        <pt x="195" y="420" on="0"/>
        <pt x="169" y="487" on="0"/>
        <pt x="169" y="529" on="1"/>
        <pt x="169" y="579" on="0"/>
        <pt x="205" y="660" on="0"/>
        <pt x="264" y="718" on="0"/>
        <pt x="341" y="749" on="0"/>
      </contour>
      <contour>
        <pt x="353" y="416" on="1"/>
        <pt x="381" y="416" on="0"/>
        <pt x="429" y="437" on="0"/>
        <pt x="465" y="475" on="0"/>
        <pt x="486" y="528" on="0"/>
        <pt x="486" y="561" on="1"/>
        <pt x="486" y="613" on="0"/>
        <pt x="426" y="681" on="0"/>
        <pt x="374" y="681" on="1"/>
        <pt x="347" y="681" on="0"/>
        <pt x="299" y="660" on="0"/>
        <pt x="263" y="622" on="0"/>
        <pt x="242" y="569" on="0"/>
        <pt x="242" y="536" on="1"/>
        <pt x="242" y="484" on="0"/>
        <pt x="302" y="416" on="0"/>
      </contour>
    </TTGlyph>
    <TTGlyph name="dieresis" xMin="141" yMin="633" xMax="518" yMax="784">
      <contour>
        <pt x="380" y="635" on="1"/>
        <pt x="415" y="782" on="1"/>
        <pt x="518" y="784" on="1"/>
        <pt x="472" y="637" on="1"/>
      </contour>
      <contour>
        <pt x="141" y="633" on="1"/>
        <pt x="177" y="780" on="1"/>
        <pt x="278" y="781" on="1"/>
        <pt x="234" y="634" on="1"/>
      </contour>
    </TTGlyph>
    <TTGlyph name="dieresis.cap" xMin="141" yMin="633" xMax="518" yMax="784">
      <contour>
        <pt x="380" y="635" on="1"/>
        <pt x="415" y="782" on="1"/>
        <pt x="518" y="784" on="1"/>
        <pt x="472" y="637" on="1"/>
      </contour>
      <contour>
        <pt x="141" y="633" on="1"/>
        <pt x="177" y="780" on="1"/>
        <pt x="278" y="781" on="1"/>
        <pt x="234" y="634" on="1"/>
      </contour>
    </TTGlyph>
    <TTGlyph name="divide" xMin="74" yMin="73" xMax="572" yMax="578">
      <contour>
        <pt x="299" y="473" on="1"/>
        <pt x="321" y="578" on="1"/>
        <pt x="422" y="578" on="1"/>
        <pt x="401" y="473" on="1"/>
      </contour>
      <contour>
        <pt x="556" y="287" on="1"/>
        <pt x="74" y="287" on="1"/>
        <pt x="89" y="363" on="1"/>
        <pt x="572" y="363" on="1"/>
      </contour>
      <contour>
        <pt x="223" y="73" on="1"/>
        <pt x="245" y="178" on="1"/>
        <pt x="346" y="178" on="1"/>
        <pt x="325" y="73" on="1"/>
      </contour>
    </TTGlyph>
    <TTGlyph name="dollar" xMin="47" yMin="-90" xMax="585" yMax="776">
      <contour>
        <pt x="233" y="524" on="1"/>
        <pt x="233" y="498" on="0"/>
        <pt x="283" y="438" on="0"/>
        <pt x="320" y="406" on="1"/>
        <pt x="373" y="584" on="1"/>
        <pt x="302" y="588" on="0"/>
        <pt x="233" y="550" on="0"/>
      </contour>
      <contour>
        <pt x="429" y="167" on="1"/>
        <pt x="429" y="194" on="0"/>
        <pt x="377" y="253" on="0"/>
        <pt x="339" y="286" on="1"/>
        <pt x="284" y="102" on="1"/>
        <pt x="358" y="100" on="0"/>
        <pt x="429" y="140" on="0"/>
      </contour>
      <contour>
        <pt x="158" y="-89" on="1"/>
        <pt x="194" y="32" on="1"/>
        <pt x="162" y="34" on="0"/>
        <pt x="89" y="46" on="0"/>
        <pt x="47" y="54" on="1"/>
        <pt x="66" y="136" on="1"/>
        <pt x="157" y="112" on="0"/>
        <pt x="225" y="106" on="1"/>
        <pt x="292" y="326" on="1"/>
        <pt x="265" y="349" on="0"/>
        <pt x="214" y="396" on="0"/>
        <pt x="174" y="445" on="0"/>
        <pt x="149" y="495" on="0"/>
        <pt x="149" y="521" on="1"/>
        <pt x="149" y="548" on="0"/>
        <pt x="176" y="598" on="0"/>
        <pt x="233" y="637" on="0"/>
        <pt x="324" y="659" on="0"/>
        <pt x="387" y="658" on="1"/>
        <pt x="423" y="776" on="1"/>
        <pt x="505" y="776" on="1"/>
        <pt x="464" y="652" on="1"/>
        <pt x="492" y="649" on="0"/>
        <pt x="552" y="638" on="0"/>
        <pt x="585" y="630" on="1"/>
        <pt x="569" y="549" on="1"/>
        <pt x="529" y="560" on="0"/>
        <pt x="460" y="574" on="0"/>
        <pt x="431" y="578" on="1"/>
        <pt x="366" y="366" on="1"/>
        <pt x="393" y="343" on="0"/>
        <pt x="445" y="294" on="0"/>
        <pt x="487" y="244" on="0"/>
        <pt x="512" y="192" on="0"/>
        <pt x="512" y="166" on="1"/>
        <pt x="512" y="140" on="0"/>
        <pt x="486" y="92" on="0"/>
        <pt x="428" y="53" on="0"/>
        <pt x="336" y="29" on="0"/>
        <pt x="270" y="28" on="1"/>
        <pt x="238" y="-90" on="1"/>
      </contour>
    </TTGlyph>
    <TTGlyph name="dotaccent" xMin="249" yMin="634" xMax="389" yMax="782">
      <contour>
        <pt x="249" y="634" on="1"/>
        <pt x="284" y="781" on="1"/>
        <pt x="389" y="782" on="1"/>
        <pt x="343" y="635" on="1"/>
      </contour>
    </TTGlyph>
    <TTGlyph name="dotaccent.cap" xMin="249" yMin="634" xMax="389" yMax="782">
      <contour>
        <pt x="249" y="634" on="1"/>
        <pt x="284" y="781" on="1"/>
        <pt x="389" y="782" on="1"/>
        <pt x="343" y="635" on="1"/>
      </contour>
    </TTGlyph>
    <TTGlyph name="dotlessi" xMin="89" yMin="-11" xMax="533" yMax="545">
      <contour>
        <pt x="533" y="50" on="1"/>
        <pt x="457" y="18" on="0"/>
        <pt x="342" y="-11" on="0"/>
        <pt x="300" y="-11" on="1"/>
        <pt x="246" y="-11" on="0"/>
        <pt x="196" y="37" on="0"/>
        <pt x="196" y="82" on="1"/>
        <pt x="196" y="114" on="0"/>
        <pt x="206" y="148" on="1"/>
        <pt x="290" y="466" on="1"/>
        <pt x="95" y="441" on="1"/>
        <pt x="89" y="488" on="1"/>
        <pt x="318" y="545" on="1"/>
        <pt x="396" y="544" on="1"/>
        <pt x="296" y="163" on="1"/>
        <pt x="288" y="133" on="0"/>
        <pt x="288" y="115" on="1"/>
        <pt x="288" y="92" on="0"/>
        <pt x="316" y="68" on="0"/>
        <pt x="350" y="68" on="1"/>
        <pt x="377" y="68" on="0"/>
        <pt x="462" y="83" on="0"/>
        <pt x="523" y="98" on="1"/>
        <pt x="533" y="50" on="1"/>
      </contour>
    </TTGlyph>
    <TTGlyph name="e" xMin="75" yMin="-12" xMax="559" yMax="558">
      <contour>
        <pt x="529" y="62" on="1"/>
        <pt x="454" y="24" on="0"/>
        <pt x="327" y="-12" on="0"/>
        <pt x="276" y="-12" on="1"/>
        <pt x="226" y="-12" on="0"/>
        <pt x="151" y="18" on="0"/>
        <pt x="101" y="73" on="0"/>
        <pt x="75" y="149" on="0"/>
        <pt x="75" y="194" on="1"/>
        <pt x="75" y="258" on="0"/>
        <pt x="125" y="388" on="0"/>
        <pt x="214" y="493" on="0"/>
        <pt x="334" y="558" on="0"/>
        <pt x="404" y="558" on="1"/>
        <pt x="476" y="558" on="0"/>
        <pt x="559" y="488" on="0"/>
        <pt x="559" y="428" on="1"/>
        <pt x="559" y="332" on="0"/>
        <pt x="354" y="219" on="0"/>
        <pt x="162" y="205" on="1"/>
        <pt x="162" y="136" on="0"/>
        <pt x="229" y="66" on="0"/>
        <pt x="304" y="66" on="1"/>
        <pt x="385" y="66" on="0"/>
        <pt x="518" y="109" on="1"/>
      </contour>
      <contour>
        <pt x="382" y="484" on="1"/>
        <pt x="338" y="484" on="0"/>
        <pt x="266" y="445" on="0"/>
        <pt x="210" y="382" on="0"/>
        <pt x="173" y="300" on="0"/>
        <pt x="166" y="257" on="1"/>
        <pt x="236" y="263" on="0"/>
        <pt x="350" y="287" on="0"/>
        <pt x="431" y="325" on="0"/>
        <pt x="474" y="377" on="0"/>
        <pt x="474" y="410" on="1"/>
        <pt x="474" y="443" on="0"/>
        <pt x="425" y="484" on="0"/>
      </contour>
    </TTGlyph>
    <TTGlyph name="eacute" xMin="75" yMin="-12" xMax="568" yMax="860">
      <component glyphName="acute" x="80" y="14" flags="0x204"/>
      <component glyphName="e" x="0" y="0" flags="0x4"/>
    </TTGlyph>
    <TTGlyph name="ebreve" xMin="75" yMin="-12" xMax="638" yMax="838">
      <component glyphName="e" x="0" y="0" flags="0x204"/>
      <component glyphName="breve" x="102" y="14" flags="0x4"/>
    </TTGlyph>
    <TTGlyph name="ecaron" xMin="75" yMin="-12" xMax="624" yMax="844">
      <component glyphName="caron" x="89" y="14" flags="0x204"/>
      <component glyphName="e" x="0" y="0" flags="0x4"/>
    </TTGlyph>
    <TTGlyph name="ecircumflex" xMin="75" yMin="-12" xMax="602" yMax="847">
      <component glyphName="circumflex" x="94" y="14" flags="0x204"/>
      <component glyphName="e" x="0" y="0" flags="0x4"/>
    </TTGlyph>
    <TTGlyph name="edieresis" xMin="75" yMin="-12" xMax="604" yMax="798">
      <component glyphName="dieresis" x="86" y="14" flags="0x204"/>
      <component glyphName="e" x="0" y="0" flags="0x4"/>
    </TTGlyph>
    <TTGlyph name="edotaccent" xMin="75" yMin="-12" xMax="559" yMax="796">
      <component glyphName="e" x="0" y="0" flags="0x204"/>
      <component glyphName="dotaccent" x="96" y="14" flags="0x4"/>
    </TTGlyph>
    <TTGlyph name="egrave" xMin="75" yMin="-12" xMax="559" yMax="866">
      <component glyphName="e" x="0" y="0" flags="0x204"/>
      <component glyphName="grave" x="97" y="14" flags="0x4"/>
    </TTGlyph>
    <TTGlyph name="eight" xMin="63" yMin="-13" xMax="596" yMax="698">
      <contour>
        <pt x="507" y="165" on="1"/>
        <pt x="507" y="129" on="0"/>
        <pt x="471" y="64" on="0"/>
        <pt x="406" y="15" on="0"/>
        <pt x="317" y="-13" on="0"/>
        <pt x="264" y="-13" on="1"/>
        <pt x="219" y="-13" on="0"/>
        <pt x="144" y="9" on="0"/>
        <pt x="92" y="48" on="0"/>
        <pt x="63" y="103" on="0"/>
        <pt x="63" y="136" on="1"/>
        <pt x="63" y="160" on="0"/>
        <pt x="79" y="209" on="0"/>
        <pt x="122" y="263" on="0"/>
        <pt x="197" y="327" on="0"/>
        <pt x="257" y="366" on="1"/>
        <pt x="217" y="404" on="0"/>
        <pt x="159" y="486" on="0"/>
        <pt x="159" y="531" on="1"/>
        <pt x="159" y="564" on="0"/>
        <pt x="194" y="624" on="0"/>
        <pt x="261" y="670" on="0"/>
        <pt x="361" y="698" on="0"/>
        <pt x="426" y="698" on="1"/>
        <pt x="449" y="698" on="0"/>
        <pt x="499" y="694" on="0"/>
        <pt x="526" y="690" on="1"/>
        <pt x="500" y="604" on="1"/>
        <pt x="460" y="613" on="0"/>
        <pt x="395" y="621" on="0"/>
        <pt x="369" y="621" on="1"/>
        <pt x="300" y="621" on="0"/>
        <pt x="244" y="575" on="0"/>
        <pt x="244" y="544" on="1"/>
        <pt x="244" y="512" on="0"/>
        <pt x="295" y="447" on="0"/>
        <pt x="330" y="412" on="1"/>
        <pt x="378" y="441" on="0"/>
        <pt x="495" y="507" on="0"/>
        <pt x="567" y="545" on="1"/>
        <pt x="596" y="491" on="1"/>
        <pt x="528" y="455" on="0"/>
        <pt x="420" y="394" on="0"/>
        <pt x="376" y="368" on="1"/>
        <pt x="401" y="345" on="0"/>
        <pt x="448" y="296" on="0"/>
        <pt x="485" y="245" on="0"/>
        <pt x="507" y="192" on="0"/>
      </contour>
      <contour>
        <pt x="284" y="59" on="1"/>
        <pt x="314" y="59" on="0"/>
        <pt x="366" y="74" on="0"/>
        <pt x="404" y="101" on="0"/>
        <pt x="425" y="137" on="0"/>
        <pt x="425" y="158" on="1"/>
        <pt x="425" y="178" on="0"/>
        <pt x="405" y="218" on="0"/>
        <pt x="371" y="259" on="0"/>
        <pt x="327" y="301" on="0"/>
        <pt x="303" y="323" on="1"/>
        <pt x="253" y="290" on="0"/>
        <pt x="193" y="241" on="0"/>
        <pt x="160" y="201" on="0"/>
        <pt x="149" y="170" on="0"/>
        <pt x="149" y="155" on="1"/>
        <pt x="149" y="132" on="0"/>
        <pt x="170" y="96" on="0"/>
        <pt x="207" y="72" on="0"/>
        <pt x="256" y="59" on="0"/>
      </contour>
    </TTGlyph>
    <TTGlyph name="eight.den" xMin="73" yMin="-244" xMax="449" yMax="215">
      <component glyphName="eight.num" x="-125" y="-705" flags="0x204"/>
    </TTGlyph>
    <TTGlyph name="eight.inf" xMin="86" yMin="-178" xMax="462" yMax="281">
      <component glyphName="eight.num" x="-112" y="-639" flags="0x204"/>
    </TTGlyph>
    <TTGlyph name="eight.num" xMin="198" yMin="461" xMax="574" yMax="920">
      <contour>
        <pt x="518" y="580" on="1"/>
        <pt x="518" y="555" on="0"/>
        <pt x="492" y="512" on="0"/>
        <pt x="446" y="480" on="0"/>
        <pt x="383" y="461" on="0"/>
        <pt x="345" y="461" on="1"/>
        <pt x="278" y="461" on="0"/>
        <pt x="198" y="516" on="0"/>
        <pt x="198" y="561" on="1"/>
        <pt x="198" y="577" on="0"/>
        <pt x="209" y="608" on="0"/>
        <pt x="238" y="642" on="0"/>
        <pt x="289" y="681" on="0"/>
        <pt x="329" y="705" on="1"/>
        <pt x="301" y="729" on="0"/>
        <pt x="261" y="780" on="0"/>
        <pt x="261" y="809" on="1"/>
        <pt x="261" y="830" on="0"/>
        <pt x="285" y="870" on="0"/>
        <pt x="332" y="901" on="0"/>
        <pt x="402" y="920" on="0"/>
        <pt x="449" y="920" on="1"/>
        <pt x="467" y="920" on="0"/>
        <pt x="507" y="917" on="0"/>
        <pt x="529" y="913" on="1"/>
        <pt x="505" y="846" on="1"/>
        <pt x="474" y="854" on="0"/>
        <pt x="425" y="860" on="0"/>
        <pt x="406" y="860" on="1"/>
        <pt x="363" y="860" on="0"/>
        <pt x="329" y="833" on="0"/>
        <pt x="329" y="815" on="1"/>
        <pt x="329" y="797" on="0"/>
        <pt x="363" y="758" on="0"/>
        <pt x="388" y="738" on="1"/>
        <pt x="453" y="772" on="0"/>
        <pt x="552" y="817" on="1"/>
        <pt x="574" y="776" on="1"/>
        <pt x="529" y="756" on="0"/>
        <pt x="456" y="721" on="0"/>
        <pt x="427" y="706" on="1"/>
        <pt x="444" y="692" on="0"/>
        <pt x="477" y="662" on="0"/>
        <pt x="502" y="631" on="0"/>
        <pt x="518" y="598" on="0"/>
      </contour>
      <contour>
        <pt x="358" y="517" on="1"/>
        <pt x="400" y="517" on="0"/>
        <pt x="451" y="551" on="0"/>
        <pt x="451" y="576" on="1"/>
        <pt x="451" y="599" on="0"/>
        <pt x="400" y="648" on="0"/>
        <pt x="368" y="674" on="1"/>
        <pt x="336" y="656" on="0"/>
        <pt x="297" y="627" on="0"/>
        <pt x="275" y="604" on="0"/>
        <pt x="267" y="586" on="0"/>
        <pt x="267" y="577" on="1"/>
        <pt x="267" y="549" on="0"/>
        <pt x="320" y="517" on="0"/>
      </contour>
    </TTGlyph>
    <TTGlyph name="eight.sup" xMin="177" yMin="357" xMax="553" yMax="816">
      <component glyphName="eight.num" x="-21" y="-104" flags="0x204"/>
    </TTGlyph>
    <TTGlyph name="ellipsis" xMin="27" yMin="0" xMax="569" yMax="134">
      <contour>
        <pt x="27" y="0" on="1"/>
        <pt x="56" y="134" on="1"/>
        <pt x="163" y="134" on="1"/>
        <pt x="134" y="0" on="1"/>
      </contour>
      <contour>
        <pt x="433" y="0" on="1"/>
        <pt x="462" y="134" on="1"/>
        <pt x="569" y="134" on="1"/>
        <pt x="540" y="0" on="1"/>
      </contour>
      <contour>
        <pt x="230" y="0" on="1"/>
        <pt x="259" y="134" on="1"/>
        <pt x="366" y="134" on="1"/>
        <pt x="337" y="0" on="1"/>
      </contour>
    </TTGlyph>
    <TTGlyph name="emacron" xMin="75" yMin="-12" xMax="606" yMax="762">
      <component glyphName="e" x="0" y="0" flags="0x204"/>
      <component glyphName="macron" x="100" y="14" flags="0x4"/>
    </TTGlyph>
    <TTGlyph name="emdash" xMin="82" yMin="290" xMax="588" yMax="361">
      <contour>
        <pt x="574" y="290" on="1"/>
        <pt x="82" y="290" on="1"/>
        <pt x="96" y="361" on="1"/>
        <pt x="588" y="361" on="1"/>
      </contour>
    </TTGlyph>
    <TTGlyph name="endash" xMin="91" yMin="290" xMax="552" yMax="361">
      <contour>
        <pt x="539" y="290" on="1"/>
        <pt x="91" y="290" on="1"/>
        <pt x="105" y="361" on="1"/>
        <pt x="552" y="361" on="1"/>
      </contour>
    </TTGlyph>
    <TTGlyph name="eogonek" xMin="75" yMin="-232" xMax="559" yMax="558">
      <contour>
        <pt x="453" y="-186" on="1"/>
        <pt x="405" y="-210" on="0"/>
        <pt x="327" y="-232" on="0"/>
        <pt x="296" y="-232" on="1"/>
        <pt x="248" y="-232" on="0"/>
        <pt x="200" y="-188" on="0"/>
        <pt x="200" y="-156" on="1"/>
        <pt x="200" y="-121" on="0"/>
        <pt x="255" y="-47" on="0"/>
        <pt x="318" y="-9" on="1"/>
        <pt x="295" y="-12" on="0"/>
        <pt x="275" y="-12" on="1"/>
        <pt x="225" y="-12" on="0"/>
        <pt x="151" y="18" on="0"/>
        <pt x="100" y="73" on="0"/>
        <pt x="75" y="149" on="0"/>
        <pt x="75" y="194" on="1"/>
        <pt x="75" y="258" on="0"/>
        <pt x="125" y="388" on="0"/>
        <pt x="214" y="493" on="0"/>
        <pt x="334" y="558" on="0"/>
        <pt x="404" y="558" on="1"/>
        <pt x="476" y="558" on="0"/>
        <pt x="559" y="488" on="0"/>
        <pt x="559" y="428" on="1"/>
        <pt x="559" y="332" on="0"/>
        <pt x="354" y="219" on="0"/>
        <pt x="162" y="205" on="1"/>
        <pt x="162" y="136" on="0"/>
        <pt x="229" y="66" on="0"/>
        <pt x="304" y="66" on="1"/>
        <pt x="385" y="66" on="0"/>
        <pt x="518" y="109" on="1"/>
        <pt x="529" y="62" on="1"/>
        <pt x="473" y="37" on="0"/>
        <pt x="381" y="-14" on="0"/>
        <pt x="317" y="-64" on="0"/>
        <pt x="282" y="-110" on="0"/>
        <pt x="282" y="-131" on="1"/>
        <pt x="282" y="-147" on="0"/>
        <pt x="307" y="-168" on="0"/>
        <pt x="335" y="-168" on="1"/>
        <pt x="374" y="-168" on="0"/>
        <pt x="442" y="-143" on="1"/>
      </contour>
      <contour>
        <pt x="382" y="484" on="1"/>
        <pt x="338" y="484" on="0"/>
        <pt x="266" y="445" on="0"/>
        <pt x="210" y="382" on="0"/>
        <pt x="173" y="300" on="0"/>
        <pt x="166" y="257" on="1"/>
        <pt x="236" y="263" on="0"/>
        <pt x="350" y="287" on="0"/>
        <pt x="431" y="325" on="0"/>
        <pt x="474" y="377" on="0"/>
        <pt x="474" y="410" on="1"/>
        <pt x="474" y="443" on="0"/>
        <pt x="425" y="484" on="0"/>
      </contour>
    </TTGlyph>
    <TTGlyph name="equal" xMin="71" yMin="168" xMax="578" yMax="490">
      <contour>
        <pt x="562" y="414" on="1"/>
        <pt x="118" y="414" on="1"/>
        <pt x="133" y="490" on="1"/>
        <pt x="578" y="490" on="1"/>
      </contour>
      <contour>
        <pt x="515" y="168" on="1"/>
        <pt x="71" y="168" on="1"/>
        <pt x="86" y="244" on="1"/>
        <pt x="530" y="244" on="1"/>
      </contour>
    </TTGlyph>
    <TTGlyph name="eth" xMin="67" yMin="-13" xMax="570" yMax="790">
      <contour>
        <pt x="275" y="-13" on="1"/>
        <pt x="227" y="-13" on="0"/>
        <pt x="150" y="18" on="0"/>
        <pt x="96" y="75" on="0"/>
        <pt x="67" y="154" on="0"/>
        <pt x="67" y="202" on="1"/>
        <pt x="67" y="264" on="0"/>
        <pt x="111" y="375" on="0"/>
        <pt x="189" y="459" on="0"/>
        <pt x="296" y="509" on="0"/>
        <pt x="359" y="509" on="1"/>
        <pt x="379" y="509" on="0"/>
        <pt x="421" y="504" on="0"/>
        <pt x="444" y="499" on="1"/>
        <pt x="422" y="553" on="0"/>
        <pt x="379" y="610" on="1"/>
        <pt x="215" y="564" on="1"/>
        <pt x="198" y="618" on="1"/>
        <pt x="338" y="657" on="1"/>
        <pt x="300" y="697" on="0"/>
        <pt x="246" y="741" on="1"/>
        <pt x="314" y="790" on="1"/>
        <pt x="380" y="736" on="0"/>
        <pt x="427" y="682" on="1"/>
        <pt x="557" y="719" on="1"/>
        <pt x="570" y="664" on="1"/>
        <pt x="465" y="634" on="1"/>
        <pt x="563" y="500" on="0"/>
        <pt x="563" y="345" on="1"/>
        <pt x="563" y="263" on="0"/>
        <pt x="520" y="131" on="0"/>
        <pt x="443" y="38" on="0"/>
        <pt x="338" y="-13" on="0"/>
      </contour>
      <contour>
        <pt x="293" y="60" on="1"/>
        <pt x="335" y="60" on="0"/>
        <pt x="402" y="101" on="0"/>
        <pt x="450" y="174" on="0"/>
        <pt x="475" y="274" on="0"/>
        <pt x="475" y="333" on="1"/>
        <pt x="475" y="352" on="0"/>
        <pt x="472" y="389" on="0"/>
        <pt x="470" y="407" on="1"/>
        <pt x="431" y="424" on="0"/>
        <pt x="359" y="437" on="0"/>
        <pt x="335" y="437" on="1"/>
        <pt x="296" y="437" on="0"/>
        <pt x="231" y="401" on="0"/>
        <pt x="184" y="341" on="0"/>
        <pt x="157" y="263" on="0"/>
        <pt x="157" y="221" on="1"/>
        <pt x="157" y="148" on="0"/>
        <pt x="231" y="60" on="0"/>
      </contour>
    </TTGlyph>
    <TTGlyph name="exclam" xMin="188" yMin="0" xMax="462" yMax="751">
      <contour>
        <pt x="276" y="260" on="1"/>
        <pt x="280" y="284" on="0"/>
        <pt x="292" y="361" on="0"/>
        <pt x="305" y="454" on="0"/>
        <pt x="318" y="554" on="0"/>
        <pt x="331" y="647" on="0"/>
        <pt x="342" y="726" on="0"/>
        <pt x="346" y="751" on="1"/>
        <pt x="462" y="751" on="1"/>
        <pt x="456" y="726" on="0"/>
        <pt x="436" y="647" on="0"/>
        <pt x="411" y="554" on="0"/>
        <pt x="384" y="454" on="0"/>
        <pt x="360" y="361" on="0"/>
        <pt x="340" y="284" on="0"/>
        <pt x="335" y="260" on="1"/>
      </contour>
      <contour>
        <pt x="188" y="0" on="1"/>
        <pt x="214" y="124" on="1"/>
        <pt x="335" y="124" on="1"/>
        <pt x="310" y="0" on="1"/>
      </contour>
    </TTGlyph>
    <TTGlyph name="exclamdown" xMin="179" yMin="-62" xMax="453" yMax="688">
      <contour>
        <pt x="453" y="688" on="1"/>
        <pt x="427" y="564" on="1"/>
        <pt x="306" y="564" on="1"/>
        <pt x="331" y="688" on="1"/>
      </contour>
      <contour>
        <pt x="366" y="428" on="1"/>
        <pt x="361" y="404" on="0"/>
        <pt x="350" y="327" on="0"/>
        <pt x="337" y="235" on="0"/>
        <pt x="323" y="134" on="0"/>
        <pt x="311" y="41" on="0"/>
        <pt x="299" y="-37" on="0"/>
        <pt x="295" y="-62" on="1"/>
        <pt x="179" y="-62" on="1"/>
        <pt x="185" y="-37" on="0"/>
        <pt x="205" y="41" on="0"/>
        <pt x="230" y="134" on="0"/>
        <pt x="257" y="235" on="0"/>
        <pt x="281" y="327" on="0"/>
        <pt x="301" y="404" on="0"/>
        <pt x="306" y="428" on="1"/>
      </contour>
    </TTGlyph>
    <TTGlyph name="f" xMin="81" yMin="-198" xMax="632" yMax="782">
      <contour>
        <pt x="455" y="3" on="1"/>
        <pt x="455" y="-42" on="0"/>
        <pt x="422" y="-116" on="0"/>
        <pt x="367" y="-169" on="0"/>
        <pt x="296" y="-198" on="0"/>
        <pt x="258" y="-198" on="1"/>
        <pt x="223" y="-198" on="0"/>
        <pt x="161" y="-168" on="0"/>
        <pt x="116" y="-105" on="0"/>
        <pt x="90" y="-10" on="0"/>
        <pt x="90" y="56" on="1"/>
        <pt x="90" y="112" on="0"/>
        <pt x="107" y="226" on="0"/>
        <pt x="123" y="283" on="1"/>
        <pt x="81" y="301" on="1"/>
        <pt x="94" y="354" on="1"/>
        <pt x="145" y="354" on="1"/>
        <pt x="176" y="441" on="0"/>
        <pt x="263" y="596" on="0"/>
        <pt x="365" y="713" on="0"/>
        <pt x="477" y="782" on="0"/>
        <pt x="533" y="782" on="1"/>
        <pt x="581" y="782" on="0"/>
        <pt x="632" y="732" on="0"/>
        <pt x="632" y="690" on="1"/>
        <pt x="632" y="651" on="0"/>
        <pt x="584" y="551" on="0"/>
        <pt x="531" y="496" on="1"/>
        <pt x="494" y="515" on="1"/>
        <pt x="525" y="553" on="0"/>
        <pt x="553" y="616" on="0"/>
        <pt x="553" y="639" on="1"/>
        <pt x="553" y="662" on="0"/>
        <pt x="526" y="689" on="0"/>
        <pt x="500" y="689" on="1"/>
        <pt x="464" y="689" on="0"/>
        <pt x="388" y="636" on="0"/>
        <pt x="317" y="545" on="0"/>
        <pt x="253" y="423" on="0"/>
        <pt x="229" y="354" on="1"/>
        <pt x="557" y="354" on="1"/>
        <pt x="543" y="282" on="1"/>
        <pt x="269" y="286" on="1"/>
        <pt x="367" y="211" on="0"/>
        <pt x="455" y="67" on="0"/>
      </contour>
      <contour>
        <pt x="290" y="-126" on="1"/>
        <pt x="333" y="-126" on="0"/>
        <pt x="392" y="-66" on="0"/>
        <pt x="392" y="-13" on="1"/>
        <pt x="392" y="49" on="0"/>
        <pt x="303" y="187" on="0"/>
        <pt x="201" y="259" on="1"/>
        <pt x="189" y="209" on="0"/>
        <pt x="176" y="109" on="0"/>
        <pt x="176" y="61" on="1"/>
        <pt x="176" y="9" on="0"/>
        <pt x="194" y="-63" on="0"/>
        <pt x="226" y="-107" on="0"/>
        <pt x="267" y="-126" on="0"/>
      </contour>
    </TTGlyph>
    <TTGlyph name="f.lig" xMin="81" yMin="-167" xMax="632" yMax="782">
      <contour>
        <pt x="455" y="18" on="1"/>
        <pt x="455" y="-23" on="0"/>
        <pt x="422" y="-91" on="0"/>
        <pt x="367" y="-140" on="0"/>
        <pt x="296" y="-167" on="0"/>
        <pt x="258" y="-167" on="1"/>
        <pt x="223" y="-167" on="0"/>
        <pt x="162" y="-139" on="0"/>
        <pt x="117" y="-80" on="0"/>
        <pt x="91" y="12" on="0"/>
        <pt x="91" y="76" on="1"/>
        <pt x="91" y="127" on="0"/>
        <pt x="107" y="230" on="0"/>
        <pt x="121" y="284" on="1"/>
        <pt x="81" y="301" on="1"/>
        <pt x="94" y="354" on="1"/>
        <pt x="143" y="354" on="1"/>
        <pt x="173" y="439" on="0"/>
        <pt x="261" y="594" on="0"/>
        <pt x="364" y="712" on="0"/>
        <pt x="477" y="782" on="0"/>
        <pt x="533" y="782" on="1"/>
        <pt x="581" y="782" on="0"/>
        <pt x="632" y="732" on="0"/>
        <pt x="632" y="690" on="1"/>
        <pt x="632" y="651" on="0"/>
        <pt x="584" y="551" on="0"/>
        <pt x="531" y="496" on="1"/>
        <pt x="494" y="515" on="1"/>
        <pt x="525" y="553" on="0"/>
        <pt x="553" y="616" on="0"/>
        <pt x="553" y="639" on="1"/>
        <pt x="553" y="662" on="0"/>
        <pt x="526" y="689" on="0"/>
        <pt x="500" y="689" on="1"/>
        <pt x="463" y="689" on="0"/>
        <pt x="387" y="635" on="0"/>
        <pt x="315" y="544" on="0"/>
        <pt x="252" y="422" on="0"/>
        <pt x="228" y="354" on="1"/>
        <pt x="557" y="354" on="1"/>
        <pt x="543" y="282" on="1"/>
        <pt x="271" y="286" on="1"/>
        <pt x="368" y="215" on="0"/>
        <pt x="455" y="79" on="0"/>
      </contour>
      <contour>
        <pt x="290" y="-95" on="1"/>
        <pt x="333" y="-95" on="0"/>
        <pt x="393" y="-42" on="0"/>
        <pt x="393" y="7" on="1"/>
        <pt x="393" y="63" on="0"/>
        <pt x="303" y="192" on="0"/>
        <pt x="201" y="260" on="1"/>
        <pt x="178" y="168" on="0"/>
        <pt x="178" y="82" on="1"/>
        <pt x="178" y="32" on="0"/>
        <pt x="196" y="-36" on="0"/>
        <pt x="226" y="-77" on="0"/>
        <pt x="267" y="-95" on="0"/>
      </contour>
    </TTGlyph>
    <TTGlyph name="five" xMin="64" yMin="-4" xMax="595" yMax="688">
      <contour>
        <pt x="529" y="219" on="1"/>
        <pt x="529" y="179" on="0"/>
        <pt x="489" y="99" on="0"/>
        <pt x="400" y="36" on="0"/>
        <pt x="258" y="-4" on="0"/>
        <pt x="156" y="-4" on="1"/>
        <pt x="135" y="-4" on="0"/>
        <pt x="89" y="-2" on="0"/>
        <pt x="64" y="0" on="1"/>
        <pt x="75" y="85" on="1"/>
        <pt x="139" y="79" on="0"/>
        <pt x="191" y="79" on="1"/>
        <pt x="263" y="79" on="0"/>
        <pt x="360" y="101" on="0"/>
        <pt x="419" y="136" on="0"/>
        <pt x="444" y="181" on="0"/>
        <pt x="444" y="204" on="1"/>
        <pt x="444" y="229" on="0"/>
        <pt x="414" y="275" on="0"/>
        <pt x="345" y="316" on="0"/>
        <pt x="233" y="351" on="0"/>
        <pt x="150" y="365" on="1"/>
        <pt x="226" y="688" on="1"/>
        <pt x="595" y="688" on="1"/>
        <pt x="572" y="610" on="1"/>
        <pt x="289" y="610" on="1"/>
        <pt x="245" y="423" on="1"/>
        <pt x="326" y="406" on="0"/>
        <pt x="435" y="362" on="0"/>
        <pt x="501" y="309" on="0"/>
        <pt x="529" y="250" on="0"/>
      </contour>
    </TTGlyph>
    <TTGlyph name="five.den" xMin="70" yMin="-237" xMax="445" yMax="205">
      <component glyphName="five.num" x="-125" y="-705" flags="0x204"/>
    </TTGlyph>
    <TTGlyph name="five.inf" xMin="83" yMin="-171" xMax="458" yMax="271">
      <component glyphName="five.num" x="-112" y="-639" flags="0x204"/>
    </TTGlyph>
    <TTGlyph name="five.num" xMin="195" yMin="468" xMax="570" yMax="910">
      <contour>
        <pt x="529" y="612" on="1"/>
        <pt x="529" y="585" on="0"/>
        <pt x="500" y="534" on="0"/>
        <pt x="437" y="493" on="0"/>
        <pt x="334" y="468" on="0"/>
        <pt x="261" y="468" on="1"/>
        <pt x="231" y="468" on="0"/>
        <pt x="195" y="471" on="1"/>
        <pt x="203" y="537" on="1"/>
        <pt x="226" y="535" on="0"/>
        <pt x="267" y="533" on="0"/>
        <pt x="285" y="533" on="1"/>
        <pt x="334" y="533" on="0"/>
        <pt x="401" y="545" on="0"/>
        <pt x="441" y="566" on="0"/>
        <pt x="458" y="591" on="0"/>
        <pt x="458" y="605" on="1"/>
        <pt x="458" y="619" on="0"/>
        <pt x="437" y="645" on="0"/>
        <pt x="388" y="669" on="0"/>
        <pt x="308" y="690" on="0"/>
        <pt x="248" y="698" on="1"/>
        <pt x="300" y="910" on="1"/>
        <pt x="570" y="910" on="1"/>
        <pt x="552" y="849" on="1"/>
        <pt x="352" y="849" on="1"/>
        <pt x="326" y="742" on="1"/>
        <pt x="384" y="732" on="0"/>
        <pt x="462" y="704" on="0"/>
        <pt x="509" y="671" on="0"/>
        <pt x="529" y="632" on="0"/>
      </contour>
    </TTGlyph>
    <TTGlyph name="five.sup" xMin="174" yMin="364" xMax="549" yMax="806">
      <component glyphName="five.num" x="-21" y="-104" flags="0x204"/>
    </TTGlyph>
    <TTGlyph name="fiveeighths" xMin="73" yMin="-244" xMax="570" yMax="910">
      <component glyphName="eight.num" x="-125" y="-705" flags="0x204"/>
      <component glyphName="fraction.afrc" x="0" y="0" flags="0x4"/>
      <component glyphName="five.num" x="0" y="0" flags="0x4"/>
    </TTGlyph>
    <TTGlyph name="fivesixths" xMin="75" yMin="-243" xMax="570" yMax="910">
      <component glyphName="six.num" x="-125" y="-705" flags="0x204"/>
      <component glyphName="fraction.afrc" x="0" y="0" flags="0x4"/>
      <component glyphName="five.num" x="0" y="0" flags="0x4"/>
    </TTGlyph>
    <TTGlyph name="four" xMin="62" yMin="0" xMax="564" yMax="696">
      <contour>
        <pt x="467" y="145" on="1"/>
        <pt x="439" y="0" on="1"/>
        <pt x="357" y="0" on="1"/>
        <pt x="385" y="145" on="1"/>
        <pt x="62" y="145" on="1"/>
        <pt x="66" y="204" on="1"/>
        <pt x="99" y="261" on="0"/>
        <pt x="156" y="370" on="0"/>
        <pt x="207" y="486" on="0"/>
        <pt x="254" y="617" on="0"/>
        <pt x="278" y="696" on="1"/>
        <pt x="373" y="690" on="1"/>
        <pt x="347" y="610" on="0"/>
        <pt x="296" y="481" on="0"/>
        <pt x="243" y="370" on="0"/>
        <pt x="186" y="272" on="0"/>
        <pt x="154" y="223" on="1"/>
        <pt x="400" y="223" on="1"/>
        <pt x="446" y="457" on="1"/>
        <pt x="530" y="465" on="1"/>
        <pt x="483" y="223" on="1"/>
        <pt x="564" y="223" on="1"/>
        <pt x="541" y="145" on="1"/>
      </contour>
    </TTGlyph>
    <TTGlyph name="four.den" xMin="70" yMin="-233" xMax="433" yMax="210">
      <component glyphName="four.num" x="-125" y="-705" flags="0x204"/>
    </TTGlyph>
    <TTGlyph name="four.inf" xMin="83" yMin="-167" xMax="446" yMax="276">
      <component glyphName="four.num" x="-112" y="-639" flags="0x204"/>
    </TTGlyph>
    <TTGlyph name="four.num" xMin="195" yMin="472" xMax="558" yMax="915">
      <contour>
        <pt x="487" y="561" on="1"/>
        <pt x="469" y="472" on="1"/>
        <pt x="403" y="472" on="1"/>
        <pt x="420" y="561" on="1"/>
        <pt x="195" y="561" on="1"/>
        <pt x="200" y="610" on="1"/>
        <pt x="222" y="646" on="0"/>
        <pt x="259" y="714" on="0"/>
        <pt x="292" y="786" on="0"/>
        <pt x="322" y="866" on="0"/>
        <pt x="337" y="915" on="1"/>
        <pt x="414" y="912" on="1"/>
        <pt x="397" y="862" on="0"/>
        <pt x="365" y="782" on="0"/>
        <pt x="330" y="713" on="0"/>
        <pt x="293" y="652" on="0"/>
        <pt x="272" y="622" on="1"/>
        <pt x="432" y="622" on="1"/>
        <pt x="460" y="764" on="1"/>
        <pt x="528" y="769" on="1"/>
        <pt x="499" y="622" on="1"/>
        <pt x="558" y="622" on="1"/>
        <pt x="540" y="561" on="1"/>
      </contour>
    </TTGlyph>
    <TTGlyph name="four.sup" xMin="174" yMin="368" xMax="537" yMax="811">
      <component glyphName="four.num" x="-21" y="-104" flags="0x204"/>
    </TTGlyph>
    <TTGlyph name="fourfifths" xMin="70" yMin="-237" xMax="568" yMax="915">
      <component glyphName="four.num" x="0" y="0" flags="0x204"/>
      <component glyphName="five.num" x="-125" y="-705" flags="0x4"/>
      <component glyphName="fraction.afrc" x="0" y="0" flags="0x4"/>
    </TTGlyph>
    <TTGlyph name="fraction" xMin="-40" yMin="-178" xMax="672" yMax="837">
      <contour>
        <pt x="-40" y="-139" on="1"/>
        <pt x="602" y="837" on="1"/>
        <pt x="672" y="798" on="1"/>
        <pt x="31" y="-178" on="1"/>
      </contour>
    </TTGlyph>
    <TTGlyph name="fraction.afrc" xMin="75" yMin="309" xMax="568" yMax="368">
      <contour>
        <pt x="87" y="368" on="1"/>
        <pt x="568" y="368" on="1"/>
        <pt x="556" y="309" on="1"/>
        <pt x="75" y="309" on="1"/>
      </contour>
    </TTGlyph>
    <TTGlyph name="g" xMin="56" yMin="-192" xMax="586" yMax="559">
      <contour>
        <pt x="242" y="108" on="1"/>
        <pt x="281" y="108" on="0"/>
        <pt x="363" y="167" on="0"/>
        <pt x="400" y="222" on="1"/>
        <pt x="408" y="281" on="0"/>
        <pt x="439" y="402" on="0"/>
        <pt x="459" y="451" on="1"/>
        <pt x="427" y="468" on="0"/>
        <pt x="369" y="483" on="0"/>
        <pt x="347" y="483" on="1"/>
        <pt x="306" y="483" on="0"/>
        <pt x="237" y="436" on="0"/>
        <pt x="186" y="361" on="0"/>
        <pt x="157" y="267" on="0"/>
        <pt x="157" y="220" on="1"/>
        <pt x="157" y="163" on="0"/>
        <pt x="206" y="108" on="0"/>
      </contour>
      <contour>
        <pt x="476" y="-90" on="1"/>
        <pt x="465" y="-113" on="0"/>
        <pt x="416" y="-150" on="0"/>
        <pt x="338" y="-177" on="0"/>
        <pt x="227" y="-192" on="0"/>
        <pt x="153" y="-192" on="1"/>
        <pt x="108" y="-192" on="0"/>
        <pt x="56" y="-189" on="1"/>
        <pt x="65" y="-102" on="1"/>
        <pt x="107" y="-106" on="0"/>
        <pt x="180" y="-109" on="0"/>
        <pt x="210" y="-109" on="1"/>
        <pt x="296" y="-109" on="0"/>
        <pt x="383" y="-89" on="0"/>
        <pt x="395" y="-76" on="1"/>
        <pt x="403" y="-68" on="0"/>
        <pt x="408" y="-44" on="0"/>
        <pt x="408" y="-27" on="1"/>
        <pt x="408" y="3" on="0"/>
        <pt x="398" y="89" on="0"/>
        <pt x="396" y="143" on="1"/>
        <pt x="355" y="93" on="0"/>
        <pt x="255" y="27" on="0"/>
        <pt x="201" y="27" on="1"/>
        <pt x="144" y="27" on="0"/>
        <pt x="69" y="112" on="0"/>
        <pt x="69" y="197" on="1"/>
        <pt x="69" y="266" on="0"/>
        <pt x="116" y="396" on="0"/>
        <pt x="199" y="496" on="0"/>
        <pt x="314" y="557" on="0"/>
        <pt x="383" y="557" on="1"/>
        <pt x="440" y="557" on="0"/>
        <pt x="497" y="531" on="1"/>
        <pt x="514" y="559" on="0"/>
        <pt x="527" y="559" on="1"/>
        <pt x="536" y="559" on="0"/>
        <pt x="556" y="553" on="0"/>
        <pt x="574" y="544" on="0"/>
        <pt x="586" y="532" on="0"/>
        <pt x="586" y="526" on="1"/>
        <pt x="586" y="511" on="0"/>
        <pt x="569" y="449" on="0"/>
        <pt x="539" y="370" on="0"/>
        <pt x="500" y="280" on="0"/>
        <pt x="478" y="238" on="1"/>
        <pt x="477" y="224" on="0"/>
        <pt x="476" y="198" on="0"/>
        <pt x="476" y="187" on="1"/>
        <pt x="476" y="115" on="0"/>
        <pt x="488" y="13" on="0"/>
        <pt x="488" y="-25" on="1"/>
        <pt x="488" y="-44" on="0"/>
        <pt x="483" y="-76" on="0"/>
      </contour>
    </TTGlyph>
    <TTGlyph name="gbreve" xMin="56" yMin="-192" xMax="634" yMax="839">
      <component glyphName="g" x="0" y="0" flags="0x204"/>
      <component glyphName="breve" x="98" y="15" flags="0x4"/>
    </TTGlyph>
    <TTGlyph name="gcommaaccent" xMin="56" yMin="-192" xMax="586" yMax="869">
      <component glyphName="commaaccent.rot" x="76" y="15" flags="0x204"/>
      <component glyphName="g" x="0" y="0" flags="0x4"/>
    </TTGlyph>
    <TTGlyph name="gdotaccent" xMin="56" yMin="-192" xMax="586" yMax="797">
      <component glyphName="g" x="0" y="0" flags="0x204"/>
      <component glyphName="dotaccent" x="93" y="15" flags="0x4"/>
    </TTGlyph>
    <TTGlyph name="germandbls" xMin="59" yMin="-9" xMax="571" yMax="779">
      <contour>
        <pt x="246" y="75" on="1"/>
        <pt x="270" y="73" on="0"/>
        <pt x="312" y="70" on="0"/>
        <pt x="330" y="70" on="1"/>
        <pt x="405" y="70" on="0"/>
        <pt x="467" y="108" on="0"/>
        <pt x="467" y="142" on="1"/>
        <pt x="467" y="181" on="0"/>
        <pt x="389" y="286" on="0"/>
        <pt x="301" y="359" on="1"/>
        <pt x="349" y="406" on="0"/>
        <pt x="417" y="480" on="0"/>
        <pt x="460" y="543" on="0"/>
        <pt x="480" y="596" on="0"/>
        <pt x="480" y="622" on="1"/>
        <pt x="480" y="657" on="0"/>
        <pt x="440" y="704" on="0"/>
        <pt x="400" y="704" on="1"/>
        <pt x="345" y="704" on="0"/>
        <pt x="267" y="610" on="0"/>
        <pt x="249" y="517" on="1"/>
        <pt x="148" y="0" on="1"/>
        <pt x="59" y="0" on="1"/>
        <pt x="159" y="512" on="1"/>
        <pt x="171" y="574" on="0"/>
        <pt x="220" y="673" on="0"/>
        <pt x="289" y="742" on="0"/>
        <pt x="375" y="779" on="0"/>
        <pt x="425" y="779" on="1"/>
        <pt x="462" y="779" on="0"/>
        <pt x="517" y="757" on="0"/>
        <pt x="553" y="720" on="0"/>
        <pt x="571" y="671" on="0"/>
        <pt x="571" y="643" on="1"/>
        <pt x="571" y="581" on="0"/>
        <pt x="487" y="453" on="0"/>
        <pt x="407" y="378" on="1"/>
        <pt x="476" y="319" on="0"/>
        <pt x="557" y="207" on="0"/>
        <pt x="557" y="154" on="1"/>
        <pt x="557" y="122" on="0"/>
        <pt x="528" y="63" on="0"/>
        <pt x="463" y="18" on="0"/>
        <pt x="358" y="-9" on="0"/>
        <pt x="283" y="-9" on="1"/>
        <pt x="272" y="-9" on="0"/>
        <pt x="248" y="-9" on="0"/>
        <pt x="235" y="-8" on="1"/>
      </contour>
    </TTGlyph>
    <TTGlyph name="grave" xMin="169" yMin="613" xMax="438" yMax="852">
      <contour>
        <pt x="416" y="613" on="1"/>
        <pt x="389" y="626" on="0"/>
        <pt x="324" y="666" on="0"/>
        <pt x="257" y="711" on="0"/>
        <pt x="194" y="759" on="0"/>
        <pt x="169" y="781" on="1"/>
        <pt x="229" y="852" on="1"/>
        <pt x="250" y="828" on="0"/>
        <pt x="303" y="772" on="0"/>
        <pt x="359" y="718" on="0"/>
        <pt x="414" y="669" on="0"/>
        <pt x="438" y="651" on="1"/>
      </contour>
    </TTGlyph>
    <TTGlyph name="grave.cap" xMin="169" yMin="613" xMax="438" yMax="852">
      <contour>
        <pt x="416" y="613" on="1"/>
        <pt x="389" y="626" on="0"/>
        <pt x="324" y="666" on="0"/>
        <pt x="257" y="711" on="0"/>
        <pt x="194" y="759" on="0"/>
        <pt x="169" y="781" on="1"/>
        <pt x="229" y="852" on="1"/>
        <pt x="250" y="828" on="0"/>
        <pt x="303" y="772" on="0"/>
        <pt x="359" y="718" on="0"/>
        <pt x="414" y="669" on="0"/>
        <pt x="438" y="651" on="1"/>
      </contour>
    </TTGlyph>
    <TTGlyph name="greater" xMin="76" yMin="-21" xMax="548" yMax="666">
      <contour>
        <pt x="76" y="49" on="1"/>
        <pt x="457" y="311" on="1"/>
        <pt x="459" y="321" on="1"/>
        <pt x="177" y="606" on="1"/>
        <pt x="238" y="666" on="1"/>
        <pt x="548" y="347" on="1"/>
        <pt x="534" y="270" on="1"/>
        <pt x="115" y="-21" on="1"/>
      </contour>
    </TTGlyph>
    <TTGlyph name="greaterequal" xMin="42" yMin="16" xMax="555" yMax="660">
      <contour>
        <pt x="177" y="594" on="1"/>
        <pt x="225" y="660" on="1"/>
        <pt x="555" y="423" on="1"/>
        <pt x="542" y="353" on="1"/>
        <pt x="118" y="149" on="1"/>
        <pt x="99" y="222" on="1"/>
        <pt x="455" y="390" on="1"/>
        <pt x="456" y="399" on="1"/>
      </contour>
      <contour>
        <pt x="485" y="16" on="1"/>
        <pt x="42" y="16" on="1"/>
        <pt x="56" y="92" on="1"/>
        <pt x="499" y="92" on="1"/>
      </contour>
    </TTGlyph>
    <TTGlyph name="guillemotleft" xMin="56" yMin="-13" xMax="633" yMax="561">
      <contour>
        <pt x="56" y="228" on="1"/>
        <pt x="76" y="320" on="1"/>
        <pt x="309" y="561" on="1"/>
        <pt x="367" y="505" on="1"/>
        <pt x="128" y="270" on="1"/>
        <pt x="276" y="34" on="1"/>
        <pt x="201" y="-13" on="1"/>
      </contour>
      <contour>
        <pt x="320" y="231" on="1"/>
        <pt x="342" y="323" on="1"/>
        <pt x="577" y="559" on="1"/>
        <pt x="633" y="502" on="1"/>
        <pt x="392" y="271" on="1"/>
        <pt x="537" y="32" on="1"/>
        <pt x="463" y="-13" on="1"/>
      </contour>
    </TTGlyph>
    <TTGlyph name="guillemotleft.cap" xMin="70" yMin="60" xMax="647" yMax="634">
      <component glyphName="guillemotleft" x="14" y="73" flags="0x204"/>
    </TTGlyph>
    <TTGlyph name="guillemotright" xMin="14" yMin="-13" xMax="591" yMax="561">
      <contour>
        <pt x="281" y="43" on="1"/>
        <pt x="520" y="278" on="1"/>
        <pt x="372" y="513" on="1"/>
        <pt x="446" y="561" on="1"/>
        <pt x="591" y="320" on="1"/>
        <pt x="571" y="228" on="1"/>
        <pt x="338" y="-13" on="1"/>
      </contour>
      <contour>
        <pt x="14" y="46" on="1"/>
        <pt x="255" y="276" on="1"/>
        <pt x="110" y="515" on="1"/>
        <pt x="184" y="561" on="1"/>
        <pt x="327" y="317" on="1"/>
        <pt x="306" y="225" on="1"/>
        <pt x="71" y="-12" on="1"/>
      </contour>
    </TTGlyph>
    <TTGlyph name="guillemotright.cap" xMin="28" yMin="60" xMax="605" yMax="634">
      <component glyphName="guillemotright" x="14" y="73" flags="0x204"/>
    </TTGlyph>
    <TTGlyph name="guilsinglleft" xMin="138" yMin="-21" xMax="520" yMax="565">
      <contour>
        <pt x="138" y="231" on="1"/>
        <pt x="161" y="323" on="1"/>
        <pt x="469" y="565" on="1"/>
        <pt x="520" y="495" on="1"/>
        <pt x="217" y="270" on="1"/>
        <pt x="416" y="40" on="1"/>
        <pt x="351" y="-21" on="1"/>
      </contour>
    </TTGlyph>
    <TTGlyph name="guilsinglleft.cap" xMin="152" yMin="52" xMax="534" yMax="638">
      <component glyphName="guilsinglleft" x="14" y="73" flags="0x204"/>
    </TTGlyph>
    <TTGlyph name="guilsinglright" xMin="97" yMin="-18" xMax="480" yMax="567">
      <contour>
        <pt x="97" y="51" on="1"/>
        <pt x="401" y="277" on="1"/>
        <pt x="201" y="506" on="1"/>
        <pt x="267" y="567" on="1"/>
        <pt x="480" y="316" on="1"/>
        <pt x="457" y="223" on="1"/>
        <pt x="148" y="-18" on="1"/>
      </contour>
    </TTGlyph>
    <TTGlyph name="guilsinglright.cap" xMin="111" yMin="55" xMax="494" yMax="640">
      <component glyphName="guilsinglright" x="14" y="73" flags="0x204"/>
    </TTGlyph>
    <TTGlyph name="h" xMin="58" yMin="-11" xMax="578" yMax="781">
      <contour>
        <pt x="578" y="41" on="1"/>
        <pt x="533" y="14" on="0"/>
        <pt x="466" y="-11" on="0"/>
        <pt x="441" y="-11" on="1"/>
        <pt x="410" y="-11" on="0"/>
        <pt x="380" y="25" on="0"/>
        <pt x="380" y="56" on="1"/>
        <pt x="380" y="88" on="0"/>
        <pt x="402" y="182" on="0"/>
        <pt x="429" y="283" on="0"/>
        <pt x="451" y="378" on="0"/>
        <pt x="451" y="411" on="1"/>
        <pt x="451" y="473" on="0"/>
        <pt x="397" y="473" on="1"/>
        <pt x="362" y="473" on="0"/>
        <pt x="269" y="416" on="0"/>
        <pt x="215" y="358" on="1"/>
        <pt x="145" y="0" on="1"/>
        <pt x="58" y="0" on="1"/>
        <pt x="208" y="774" on="1"/>
        <pt x="297" y="781" on="1"/>
        <pt x="230" y="434" on="1"/>
        <pt x="287" y="495" on="0"/>
        <pt x="400" y="557" on="0"/>
        <pt x="451" y="557" on="1"/>
        <pt x="477" y="557" on="0"/>
        <pt x="513" y="541" on="0"/>
        <pt x="536" y="513" on="0"/>
        <pt x="546" y="475" on="0"/>
        <pt x="546" y="453" on="1"/>
        <pt x="546" y="412" on="0"/>
        <pt x="523" y="307" on="0"/>
        <pt x="496" y="204" on="0"/>
        <pt x="473" y="116" on="0"/>
        <pt x="473" y="93" on="1"/>
        <pt x="473" y="80" on="0"/>
        <pt x="481" y="66" on="0"/>
        <pt x="494" y="66" on="1"/>
        <pt x="513" y="66" on="0"/>
        <pt x="566" y="87" on="1"/>
        <pt x="578" y="41" on="1"/>
      </contour>
    </TTGlyph>
    <TTGlyph name="hbar" xMin="58" yMin="-11" xMax="578" yMax="781">
      <contour>
        <pt x="578" y="41" on="1"/>
        <pt x="533" y="14" on="0"/>
        <pt x="466" y="-11" on="0"/>
        <pt x="441" y="-11" on="1"/>
        <pt x="410" y="-11" on="0"/>
        <pt x="380" y="25" on="0"/>
        <pt x="380" y="56" on="1"/>
        <pt x="380" y="88" on="0"/>
        <pt x="402" y="182" on="0"/>
        <pt x="429" y="282" on="0"/>
        <pt x="451" y="377" on="0"/>
        <pt x="451" y="410" on="1"/>
        <pt x="451" y="439" on="0"/>
        <pt x="425" y="472" on="0"/>
        <pt x="397" y="472" on="1"/>
        <pt x="361" y="472" on="0"/>
        <pt x="268" y="415" on="0"/>
        <pt x="214" y="356" on="1"/>
        <pt x="145" y="0" on="1"/>
        <pt x="58" y="0" on="1"/>
        <pt x="182" y="641" on="1"/>
        <pt x="105" y="641" on="1"/>
        <pt x="116" y="701" on="1"/>
        <pt x="194" y="701" on="1"/>
        <pt x="208" y="774" on="1"/>
        <pt x="297" y="781" on="1"/>
        <pt x="281" y="701" on="1"/>
        <pt x="430" y="701" on="1"/>
        <pt x="419" y="642" on="1"/>
        <pt x="270" y="642" on="1"/>
        <pt x="229" y="432" on="1"/>
        <pt x="287" y="494" on="0"/>
        <pt x="400" y="555" on="0"/>
        <pt x="451" y="555" on="1"/>
        <pt x="477" y="555" on="0"/>
        <pt x="513" y="539" on="0"/>
        <pt x="536" y="511" on="0"/>
        <pt x="546" y="473" on="0"/>
        <pt x="546" y="451" on="1"/>
        <pt x="546" y="410" on="0"/>
        <pt x="523" y="306" on="0"/>
        <pt x="496" y="204" on="0"/>
        <pt x="473" y="116" on="0"/>
        <pt x="473" y="93" on="1"/>
        <pt x="473" y="80" on="0"/>
        <pt x="481" y="66" on="0"/>
        <pt x="494" y="66" on="1"/>
        <pt x="513" y="66" on="0"/>
        <pt x="566" y="87" on="1"/>
        <pt x="578" y="41" on="1"/>
      </contour>
    </TTGlyph>
    <TTGlyph name="hcoslug" xMin="50" yMin="-100" xMax="644" yMax="700">
      <contour>
        <pt x="644" y="-100" on="1"/>
        <pt x="50" y="-100" on="1"/>
        <pt x="50" y="700" on="1"/>
        <pt x="644" y="700" on="1"/>
      </contour>
      <contour>
        <pt x="247" y="428" on="1"/>
        <pt x="247" y="441" on="0"/>
        <pt x="262" y="457" on="0"/>
        <pt x="274" y="457" on="1"/>
        <pt x="287" y="457" on="0"/>
        <pt x="303" y="436" on="0"/>
        <pt x="303" y="419" on="1"/>
        <pt x="303" y="406" on="0"/>
        <pt x="293" y="382" on="0"/>
        <pt x="285" y="369" on="1"/>
        <pt x="268" y="386" on="0"/>
        <pt x="247" y="411" on="0"/>
      </contour>
      <contour>
        <pt x="312" y="342" on="1"/>
        <pt x="342" y="362" on="0"/>
        <pt x="354" y="376" on="1"/>
        <pt x="369" y="361" on="0"/>
        <pt x="369" y="342" on="1"/>
        <pt x="369" y="325" on="0"/>
        <pt x="353" y="296" on="1"/>
        <pt x="343" y="307" on="0"/>
        <pt x="324" y="330" on="0"/>
      </contour>
      <contour>
        <pt x="261" y="219" on="1"/>
        <pt x="238" y="219" on="0"/>
        <pt x="209" y="250" on="0"/>
        <pt x="209" y="273" on="1"/>
        <pt x="209" y="297" on="0"/>
        <pt x="225" y="313" on="1"/>
        <pt x="239" y="300" on="0"/>
        <pt x="278" y="257" on="0"/>
        <pt x="299" y="231" on="1"/>
        <pt x="284" y="219" on="0"/>
      </contour>
      <contour>
        <pt x="382" y="264" on="1"/>
        <pt x="393" y="279" on="0"/>
        <pt x="417" y="299" on="0"/>
        <pt x="428" y="306" on="1"/>
        <pt x="435" y="295" on="0"/>
        <pt x="457" y="281" on="0"/>
        <pt x="471" y="281" on="1"/>
        <pt x="492" y="281" on="0"/>
        <pt x="521" y="312" on="0"/>
        <pt x="521" y="335" on="1"/>
        <pt x="521" y="358" on="0"/>
        <pt x="492" y="387" on="0"/>
        <pt x="471" y="387" on="1"/>
        <pt x="436" y="387" on="0"/>
        <pt x="411" y="349" on="1"/>
        <pt x="409" y="369" on="0"/>
        <pt x="385" y="386" on="0"/>
        <pt x="365" y="386" on="1"/>
        <pt x="362" y="386" on="1"/>
        <pt x="371" y="401" on="0"/>
        <pt x="371" y="420" on="1"/>
        <pt x="371" y="433" on="0"/>
        <pt x="359" y="460" on="0"/>
        <pt x="335" y="481" on="0"/>
        <pt x="299" y="494" on="0"/>
        <pt x="276" y="494" on="1"/>
        <pt x="251" y="494" on="0"/>
        <pt x="211" y="480" on="0"/>
        <pt x="182" y="456" on="0"/>
        <pt x="167" y="425" on="0"/>
        <pt x="167" y="409" on="1"/>
        <pt x="167" y="387" on="0"/>
        <pt x="182" y="357" on="0"/>
        <pt x="198" y="340" on="1"/>
        <pt x="116" y="312" on="0"/>
        <pt x="116" y="249" on="1"/>
        <pt x="116" y="229" on="0"/>
        <pt x="133" y="195" on="0"/>
        <pt x="163" y="170" on="0"/>
        <pt x="202" y="156" on="0"/>
        <pt x="225" y="156" on="1"/>
        <pt x="288" y="156" on="0"/>
        <pt x="329" y="201" on="1"/>
        <pt x="354" y="175" on="0"/>
        <pt x="391" y="156" on="0"/>
        <pt x="414" y="156" on="1"/>
        <pt x="446" y="156" on="0"/>
        <pt x="492" y="206" on="0"/>
        <pt x="494" y="250" on="1"/>
        <pt x="487" y="252" on="1"/>
        <pt x="479" y="239" on="0"/>
        <pt x="460" y="223" on="0"/>
        <pt x="444" y="223" on="1"/>
        <pt x="429" y="223" on="0"/>
        <pt x="401" y="242" on="0"/>
      </contour>
      <contour>
        <pt x="274" y="122" on="1"/>
        <pt x="274" y="113" on="1"/>
        <pt x="267" y="113" on="1"/>
        <pt x="267" y="106" on="1"/>
        <pt x="274" y="106" on="1"/>
        <pt x="274" y="86" on="1"/>
        <pt x="274" y="73" on="0"/>
        <pt x="286" y="73" on="1"/>
        <pt x="297" y="73" on="0"/>
        <pt x="300" y="86" on="1"/>
        <pt x="295" y="88" on="1"/>
        <pt x="294" y="81" on="0"/>
        <pt x="290" y="81" on="1"/>
        <pt x="286" y="81" on="0"/>
        <pt x="286" y="86" on="1"/>
        <pt x="286" y="106" on="1"/>
        <pt x="299" y="106" on="1"/>
        <pt x="299" y="113" on="1"/>
        <pt x="286" y="113" on="1"/>
        <pt x="286" y="124" on="1"/>
      </contour>
      <contour>
        <pt x="174" y="94" on="1"/>
        <pt x="174" y="84" on="0"/>
        <pt x="186" y="73" on="0"/>
        <pt x="195" y="73" on="1"/>
        <pt x="204" y="73" on="0"/>
        <pt x="216" y="85" on="0"/>
        <pt x="216" y="94" on="1"/>
        <pt x="216" y="103" on="0"/>
        <pt x="204" y="114" on="0"/>
        <pt x="195" y="114" on="1"/>
        <pt x="186" y="114" on="0"/>
        <pt x="174" y="103" on="0"/>
      </contour>
      <contour>
        <pt x="203" y="94" on="1"/>
        <pt x="203" y="78" on="0"/>
        <pt x="195" y="78" on="1"/>
        <pt x="187" y="78" on="0"/>
        <pt x="187" y="94" on="1"/>
        <pt x="187" y="109" on="0"/>
        <pt x="195" y="109" on="1"/>
        <pt x="203" y="109" on="0"/>
      </contour>
      <contour>
        <pt x="379" y="93" on="1"/>
        <pt x="379" y="80" on="0"/>
        <pt x="372" y="80" on="1"/>
        <pt x="364" y="80" on="0"/>
        <pt x="364" y="93" on="1"/>
        <pt x="364" y="106" on="0"/>
        <pt x="372" y="106" on="1"/>
        <pt x="379" y="106" on="0"/>
      </contour>
      <contour>
        <pt x="219" y="74" on="1"/>
        <pt x="241" y="74" on="1"/>
        <pt x="241" y="81" on="1"/>
        <pt x="237" y="81" on="1"/>
        <pt x="237" y="96" on="1"/>
        <pt x="237" y="106" on="0"/>
        <pt x="244" y="106" on="1"/>
        <pt x="250" y="106" on="0"/>
        <pt x="250" y="99" on="1"/>
        <pt x="250" y="81" on="1"/>
        <pt x="246" y="81" on="1"/>
        <pt x="246" y="74" on="1"/>
        <pt x="268" y="74" on="1"/>
        <pt x="268" y="81" on="1"/>
        <pt x="262" y="81" on="1"/>
        <pt x="262" y="100" on="1"/>
        <pt x="262" y="114" on="0"/>
        <pt x="250" y="114" on="1"/>
        <pt x="241" y="114" on="0"/>
        <pt x="236" y="103" on="1"/>
        <pt x="236" y="113" on="1"/>
        <pt x="219" y="113" on="1"/>
        <pt x="219" y="106" on="1"/>
        <pt x="225" y="106" on="1"/>
        <pt x="225" y="81" on="1"/>
        <pt x="219" y="81" on="1"/>
      </contour>
      <contour>
        <pt x="125" y="74" on="1"/>
        <pt x="155" y="74" on="1"/>
        <pt x="155" y="81" on="1"/>
        <pt x="145" y="81" on="1"/>
        <pt x="145" y="97" on="1"/>
        <pt x="149" y="97" on="1"/>
        <pt x="154" y="97" on="0"/>
        <pt x="155" y="89" on="1"/>
        <pt x="162" y="89" on="1"/>
        <pt x="162" y="112" on="1"/>
        <pt x="155" y="112" on="1"/>
        <pt x="154" y="104" on="0"/>
        <pt x="149" y="104" on="1"/>
        <pt x="145" y="104" on="1"/>
        <pt x="145" y="122" on="1"/>
        <pt x="157" y="122" on="1"/>
        <pt x="162" y="122" on="0"/>
        <pt x="166" y="117" on="0"/>
        <pt x="168" y="109" on="1"/>
        <pt x="176" y="109" on="1"/>
        <pt x="176" y="129" on="1"/>
        <pt x="125" y="129" on="1"/>
        <pt x="125" y="122" on="1"/>
        <pt x="132" y="122" on="1"/>
        <pt x="132" y="81" on="1"/>
        <pt x="125" y="81" on="1"/>
      </contour>
      <contour>
        <pt x="302" y="74" on="1"/>
        <pt x="309" y="74" on="1"/>
        <pt x="310" y="78" on="1"/>
        <pt x="312" y="76" on="0"/>
        <pt x="318" y="73" on="0"/>
        <pt x="323" y="73" on="1"/>
        <pt x="337" y="73" on="0"/>
        <pt x="337" y="86" on="1"/>
        <pt x="337" y="92" on="0"/>
        <pt x="329" y="97" on="0"/>
        <pt x="320" y="99" on="0"/>
        <pt x="313" y="101" on="0"/>
        <pt x="313" y="104" on="1"/>
        <pt x="313" y="108" on="0"/>
        <pt x="318" y="108" on="1"/>
        <pt x="323" y="108" on="0"/>
        <pt x="328" y="101" on="1"/>
        <pt x="335" y="101" on="1"/>
        <pt x="335" y="114" on="1"/>
        <pt x="329" y="114" on="1"/>
        <pt x="327" y="109" on="1"/>
        <pt x="324" y="114" on="0"/>
        <pt x="316" y="114" on="1"/>
        <pt x="309" y="114" on="0"/>
        <pt x="302" y="107" on="0"/>
        <pt x="302" y="102" on="1"/>
        <pt x="302" y="96" on="0"/>
        <pt x="309" y="91" on="0"/>
        <pt x="318" y="88" on="0"/>
        <pt x="326" y="86" on="0"/>
        <pt x="326" y="83" on="1"/>
        <pt x="326" y="79" on="0"/>
        <pt x="321" y="79" on="1"/>
        <pt x="315" y="79" on="0"/>
        <pt x="309" y="88" on="1"/>
        <pt x="302" y="88" on="1"/>
      </contour>
      <contour>
        <pt x="352" y="73" on="1"/>
        <pt x="358" y="73" on="1"/>
        <pt x="362" y="81" on="1"/>
        <pt x="367" y="73" on="0"/>
        <pt x="376" y="73" on="1"/>
        <pt x="385" y="73" on="0"/>
        <pt x="392" y="87" on="0"/>
        <pt x="392" y="94" on="1"/>
        <pt x="392" y="114" on="0"/>
        <pt x="377" y="114" on="1"/>
        <pt x="367" y="114" on="0"/>
        <pt x="364" y="105" on="1"/>
        <pt x="364" y="132" on="1"/>
        <pt x="346" y="132" on="1"/>
        <pt x="346" y="125" on="1"/>
        <pt x="352" y="125" on="1"/>
      </contour>
      <contour>
        <pt x="405" y="65" on="1"/>
        <pt x="407" y="67" on="0"/>
        <pt x="407" y="69" on="1"/>
        <pt x="407" y="75" on="0"/>
        <pt x="400" y="75" on="1"/>
        <pt x="393" y="75" on="0"/>
        <pt x="393" y="68" on="1"/>
        <pt x="393" y="59" on="0"/>
        <pt x="404" y="59" on="1"/>
        <pt x="416" y="59" on="0"/>
        <pt x="422" y="75" on="1"/>
        <pt x="435" y="106" on="1"/>
        <pt x="440" y="106" on="1"/>
        <pt x="440" y="113" on="1"/>
        <pt x="423" y="113" on="1"/>
        <pt x="423" y="106" on="1"/>
        <pt x="428" y="106" on="1"/>
        <pt x="420" y="86" on="1"/>
        <pt x="411" y="106" on="1"/>
        <pt x="417" y="106" on="1"/>
        <pt x="417" y="113" on="1"/>
        <pt x="392" y="113" on="1"/>
        <pt x="392" y="106" on="1"/>
        <pt x="397" y="106" on="1"/>
        <pt x="399" y="99" on="0"/>
        <pt x="403" y="93" on="1"/>
        <pt x="405" y="88" on="0"/>
        <pt x="411" y="77" on="0"/>
        <pt x="413" y="73" on="1"/>
        <pt x="411" y="65" on="0"/>
      </contour>
      <contour>
        <pt x="446" y="33" on="1"/>
        <pt x="446" y="26" on="1"/>
        <pt x="452" y="26" on="1"/>
        <pt x="450" y="21" on="0"/>
        <pt x="446" y="17" on="1"/>
        <pt x="443" y="20" on="0"/>
        <pt x="438" y="26" on="0"/>
        <pt x="434" y="30" on="1"/>
        <pt x="445" y="35" on="0"/>
        <pt x="445" y="42" on="1"/>
        <pt x="445" y="47" on="0"/>
        <pt x="438" y="54" on="0"/>
        <pt x="431" y="54" on="1"/>
        <pt x="423" y="54" on="0"/>
        <pt x="414" y="45" on="0"/>
        <pt x="414" y="40" on="1"/>
        <pt x="414" y="34" on="0"/>
        <pt x="420" y="28" on="1"/>
        <pt x="407" y="24" on="0"/>
        <pt x="407" y="13" on="1"/>
        <pt x="407" y="-1" on="0"/>
        <pt x="425" y="-1" on="1"/>
        <pt x="434" y="-1" on="0"/>
        <pt x="440" y="5" on="1"/>
        <pt x="445" y="-1" on="0"/>
        <pt x="452" y="-1" on="1"/>
        <pt x="462" y="-1" on="0"/>
        <pt x="465" y="11" on="1"/>
        <pt x="460" y="12" on="1"/>
        <pt x="459" y="7" on="0"/>
        <pt x="456" y="7" on="1"/>
        <pt x="453" y="7" on="0"/>
        <pt x="450" y="12" on="1"/>
        <pt x="452" y="15" on="0"/>
        <pt x="457" y="21" on="0"/>
        <pt x="459" y="26" on="1"/>
        <pt x="464" y="26" on="1"/>
        <pt x="464" y="33" on="1"/>
      </contour>
      <contour>
        <pt x="294" y="42" on="1"/>
        <pt x="294" y="50" on="0"/>
        <pt x="298" y="54" on="0"/>
        <pt x="300" y="54" on="1"/>
        <pt x="301" y="54" on="0"/>
        <pt x="301" y="53" on="0"/>
        <pt x="302" y="53" on="1"/>
        <pt x="303" y="53" on="1"/>
        <pt x="302" y="52" on="1"/>
        <pt x="302" y="50" on="1"/>
        <pt x="302" y="44" on="0"/>
        <pt x="308" y="44" on="1"/>
        <pt x="308" y="39" on="1"/>
        <pt x="294" y="39" on="1"/>
      </contour>
      <contour>
        <pt x="469" y="27" on="1"/>
        <pt x="469" y="-1" on="0"/>
        <pt x="498" y="-1" on="1"/>
        <pt x="520" y="-1" on="0"/>
        <pt x="522" y="22" on="1"/>
        <pt x="514" y="22" on="1"/>
        <pt x="512" y="6" on="0"/>
        <pt x="500" y="6" on="1"/>
        <pt x="484" y="6" on="0"/>
        <pt x="484" y="28" on="1"/>
        <pt x="484" y="50" on="0"/>
        <pt x="498" y="50" on="1"/>
        <pt x="508" y="50" on="0"/>
        <pt x="513" y="34" on="1"/>
        <pt x="521" y="34" on="1"/>
        <pt x="521" y="56" on="1"/>
        <pt x="513" y="56" on="1"/>
        <pt x="512" y="50" on="1"/>
        <pt x="505" y="57" on="0"/>
        <pt x="496" y="57" on="1"/>
        <pt x="485" y="57" on="0"/>
        <pt x="469" y="41" on="0"/>
      </contour>
      <contour>
        <pt x="431" y="33" on="1"/>
        <pt x="425" y="39" on="0"/>
        <pt x="425" y="43" on="1"/>
        <pt x="425" y="48" on="0"/>
        <pt x="430" y="48" on="1"/>
        <pt x="436" y="48" on="0"/>
        <pt x="436" y="42" on="1"/>
        <pt x="436" y="36" on="0"/>
      </contour>
      <contour>
        <pt x="273" y="18" on="1"/>
        <pt x="273" y="21" on="1"/>
        <pt x="273" y="40" on="0"/>
        <pt x="254" y="40" on="1"/>
        <pt x="246" y="40" on="0"/>
        <pt x="234" y="28" on="0"/>
        <pt x="234" y="19" on="1"/>
        <pt x="234" y="-1" on="0"/>
        <pt x="255" y="-1" on="1"/>
        <pt x="269" y="-1" on="0"/>
        <pt x="273" y="13" on="1"/>
        <pt x="266" y="13" on="1"/>
        <pt x="265" y="6" on="0"/>
        <pt x="257" y="6" on="1"/>
        <pt x="247" y="6" on="0"/>
        <pt x="247" y="18" on="1"/>
      </contour>
      <contour>
        <pt x="189" y="20" on="1"/>
        <pt x="189" y="10" on="0"/>
        <pt x="201" y="-1" on="0"/>
        <pt x="210" y="-1" on="1"/>
        <pt x="219" y="-1" on="0"/>
        <pt x="231" y="11" on="0"/>
        <pt x="231" y="20" on="1"/>
        <pt x="231" y="29" on="0"/>
        <pt x="219" y="40" on="0"/>
        <pt x="210" y="40" on="1"/>
        <pt x="201" y="40" on="0"/>
        <pt x="189" y="29" on="0"/>
      </contour>
      <contour>
        <pt x="525" y="20" on="1"/>
        <pt x="525" y="10" on="0"/>
        <pt x="537" y="-1" on="0"/>
        <pt x="546" y="-1" on="1"/>
        <pt x="555" y="-1" on="0"/>
        <pt x="567" y="11" on="0"/>
        <pt x="567" y="20" on="1"/>
        <pt x="567" y="29" on="0"/>
        <pt x="555" y="40" on="0"/>
        <pt x="546" y="40" on="1"/>
        <pt x="537" y="40" on="0"/>
        <pt x="525" y="29" on="0"/>
      </contour>
      <contour>
        <pt x="366" y="18" on="1"/>
        <pt x="366" y="21" on="1"/>
        <pt x="366" y="40" on="0"/>
        <pt x="347" y="40" on="1"/>
        <pt x="339" y="40" on="0"/>
        <pt x="327" y="28" on="0"/>
        <pt x="327" y="19" on="1"/>
        <pt x="327" y="-1" on="0"/>
        <pt x="348" y="-1" on="1"/>
        <pt x="362" y="-1" on="0"/>
        <pt x="366" y="13" on="1"/>
        <pt x="359" y="13" on="1"/>
        <pt x="358" y="6" on="0"/>
        <pt x="350" y="6" on="1"/>
        <pt x="340" y="6" on="0"/>
        <pt x="340" y="18" on="1"/>
      </contour>
      <contour>
        <pt x="247" y="23" on="1"/>
        <pt x="247" y="35" on="0"/>
        <pt x="254" y="35" on="1"/>
        <pt x="261" y="35" on="0"/>
        <pt x="261" y="23" on="1"/>
      </contour>
      <contour>
        <pt x="218" y="20" on="1"/>
        <pt x="218" y="4" on="0"/>
        <pt x="210" y="4" on="1"/>
        <pt x="202" y="4" on="0"/>
        <pt x="202" y="20" on="1"/>
        <pt x="202" y="35" on="0"/>
        <pt x="210" y="35" on="1"/>
        <pt x="218" y="35" on="0"/>
      </contour>
      <contour>
        <pt x="554" y="20" on="1"/>
        <pt x="554" y="4" on="0"/>
        <pt x="546" y="4" on="1"/>
        <pt x="538" y="4" on="0"/>
        <pt x="538" y="20" on="1"/>
        <pt x="538" y="35" on="0"/>
        <pt x="546" y="35" on="1"/>
        <pt x="554" y="35" on="0"/>
      </contour>
      <contour>
        <pt x="340" y="23" on="1"/>
        <pt x="340" y="35" on="0"/>
        <pt x="347" y="35" on="1"/>
        <pt x="354" y="35" on="0"/>
        <pt x="354" y="23" on="1"/>
      </contour>
      <contour>
        <pt x="276" y="0" on="1"/>
        <pt x="299" y="0" on="1"/>
        <pt x="299" y="7" on="1"/>
        <pt x="294" y="7" on="1"/>
        <pt x="294" y="32" on="1"/>
        <pt x="308" y="32" on="1"/>
        <pt x="308" y="7" on="1"/>
        <pt x="303" y="7" on="1"/>
        <pt x="303" y="0" on="1"/>
        <pt x="326" y="0" on="1"/>
        <pt x="326" y="7" on="1"/>
        <pt x="320" y="7" on="1"/>
        <pt x="320" y="59" on="1"/>
        <pt x="310" y="57" on="1"/>
        <pt x="306" y="59" on="0"/>
        <pt x="301" y="59" on="1"/>
        <pt x="293" y="59" on="0"/>
        <pt x="282" y="50" on="0"/>
        <pt x="282" y="40" on="1"/>
        <pt x="282" y="39" on="1"/>
        <pt x="275" y="39" on="1"/>
        <pt x="275" y="32" on="1"/>
        <pt x="282" y="32" on="1"/>
        <pt x="282" y="7" on="1"/>
        <pt x="276" y="7" on="1"/>
      </contour>
      <contour>
        <pt x="368" y="0" on="1"/>
        <pt x="394" y="0" on="1"/>
        <pt x="394" y="7" on="1"/>
        <pt x="386" y="7" on="1"/>
        <pt x="386" y="23" on="1"/>
        <pt x="390" y="32" on="0"/>
        <pt x="393" y="32" on="1"/>
        <pt x="393" y="31" on="1"/>
        <pt x="393" y="25" on="0"/>
        <pt x="399" y="25" on="1"/>
        <pt x="406" y="25" on="0"/>
        <pt x="406" y="32" on="1"/>
        <pt x="406" y="40" on="0"/>
        <pt x="398" y="40" on="1"/>
        <pt x="390" y="40" on="0"/>
        <pt x="386" y="29" on="1"/>
        <pt x="386" y="39" on="1"/>
        <pt x="368" y="39" on="1"/>
        <pt x="368" y="32" on="1"/>
        <pt x="374" y="32" on="1"/>
        <pt x="374" y="7" on="1"/>
        <pt x="368" y="7" on="1"/>
      </contour>
      <contour>
        <pt x="437" y="9" on="1"/>
        <pt x="432" y="6" on="0"/>
        <pt x="429" y="6" on="1"/>
        <pt x="419" y="6" on="0"/>
        <pt x="419" y="16" on="1"/>
        <pt x="419" y="21" on="0"/>
        <pt x="423" y="25" on="1"/>
        <pt x="427" y="21" on="0"/>
        <pt x="433" y="14" on="0"/>
      </contour>
      <contour>
        <pt x="124" y="0" on="1"/>
        <pt x="153" y="0" on="1"/>
        <pt x="153" y="7" on="1"/>
        <pt x="145" y="7" on="1"/>
        <pt x="145" y="25" on="1"/>
        <pt x="167" y="25" on="1"/>
        <pt x="167" y="7" on="1"/>
        <pt x="159" y="7" on="1"/>
        <pt x="159" y="0" on="1"/>
        <pt x="188" y="0" on="1"/>
        <pt x="188" y="7" on="1"/>
        <pt x="180" y="7" on="1"/>
        <pt x="180" y="48" on="1"/>
        <pt x="188" y="48" on="1"/>
        <pt x="188" y="55" on="1"/>
        <pt x="159" y="55" on="1"/>
        <pt x="159" y="48" on="1"/>
        <pt x="167" y="48" on="1"/>
        <pt x="167" y="32" on="1"/>
        <pt x="145" y="32" on="1"/>
        <pt x="145" y="48" on="1"/>
        <pt x="153" y="48" on="1"/>
        <pt x="153" y="55" on="1"/>
        <pt x="124" y="55" on="1"/>
        <pt x="124" y="48" on="1"/>
        <pt x="132" y="48" on="1"/>
        <pt x="132" y="7" on="1"/>
        <pt x="124" y="7" on="1"/>
      </contour>
      <contour>
        <pt x="583" y="6" on="1"/>
        <pt x="583" y="13" on="0"/>
        <pt x="576" y="13" on="1"/>
        <pt x="569" y="13" on="0"/>
        <pt x="569" y="6" on="1"/>
        <pt x="569" y="-1" on="0"/>
        <pt x="576" y="-1" on="1"/>
        <pt x="583" y="-1" on="0"/>
      </contour>
    </TTGlyph>
</ttFont>
